<?xml version="1.0" encoding="UTF-8" standalone="no"?>
<svg
   width="24"
   height="23.875959"
   viewBox="0 0 24 23.875959"
   version="1.1"
   xml:space="preserve"
   style="clip-rule:evenodd;fill-rule:evenodd;stroke-linejoin:round;stroke-miterlimit:2"
   id="svg17715"
   sodipodi:docname="AED.svg"
   inkscape:version="1.1 (c68e22c387, 2021-05-23)"
   xmlns:inkscape="http://www.inkscape.org/namespaces/inkscape"
   xmlns:sodipodi="http://sodipodi.sourceforge.net/DTD/sodipodi-0.dtd"
   xmlns="http://www.w3.org/2000/svg"
   xmlns:svg="http://www.w3.org/2000/svg"
   xmlns:serif="http://www.serif.com/"><sodipodi:namedview
     id="namedview17717"
     pagecolor="#ffffff"
     bordercolor="#666666"
     borderopacity="1.0"
     inkscape:pageshadow="2"
     inkscape:pageopacity="0.0"
     inkscape:pagecheckerboard="0"
     showgrid="false"
     fit-margin-top="0"
     fit-margin-left="0"
     fit-margin-right="0"
     fit-margin-bottom="0"
     inkscape:zoom="17.459427"
     inkscape:cx="25.573577"
     inkscape:cy="22.537968"
     inkscape:current-layer="svg17715"
     lock-margins="true"
     height="23.87596px" /><g
     id="g17833"
     transform="matrix(1.0708267,0,0,1.0783126,0.11234906,0.09756847)"><g
       id="AHK-GreenBack"
       serif:id="AHK GreenBack"
       transform="matrix(0.14999621,0,0,0.14999621,-2.4342388,-2.4342388)"><g
         id="g17674"><path
           id="green-back"
           serif:id="green back"
           d="m 40.221,161.96 c -11.253,0 -22.207,-11.006 -22.257,-21.662 0.15,-34.659 0.027,-65.333 0,-100.793 0,-11.006 11.004,-22.011 22.257,-22.011 35.293,0.076 64.834,0.093 101.179,0 11.004,-0.031 21.406,11.005 21.405,22.011 -0.001,10.852 0.023,89.887 -0.111,100.793 -0.131,10.655 -10.291,21.662 -21.295,21.662 -34.951,0.041 -65.674,0.004 -101.178,0 z"
           style="fill:url(#_Linear1);fill-rule:nonzero" /><path
           d="m 40.221,161.96 c -11.253,0 -22.207,-11.006 -22.257,-21.662 0.15,-34.659 0.027,-65.333 0,-100.793 0,-11.006 11.004,-22.011 22.257,-22.011 35.293,0.076 64.834,0.093 101.179,0 11.004,-0.031 21.406,11.005 21.405,22.011 -0.001,10.852 0.023,89.887 -0.111,100.793 -0.131,10.655 -10.291,21.662 -21.295,21.662 -34.951,0.041 -65.674,0.004 -101.178,0 z"
           style="fill:url(#_Linear2);fill-rule:nonzero"
           id="path17672" /></g><g
         id="masked-reflex"
         serif:id="masked reflex"><g
           style="filter:url(#_Effect3)"
           id="g17677"><path
             id="reflex"
             d="m 41.776,39.66 c -3.464,3.464 -12.471,5.871 -16.17,2.171 -3.699,-3.7 -0.868,-10.143 2.596,-13.608 3.463,-3.464 11.037,-6.324 14.736,-2.624 3.699,3.7 2.301,10.596 -1.162,14.061 z"
             style="fill:#ffffff;fill-opacity:0.89" /></g></g></g><g
       id="Herz"
       transform="matrix(0.14999621,0,0,0.14999621,-2.4342388,-2.4342388)"><path
         id="Herz1"
         serif:id="Herz"
         d="M 64.661,60.46 C 48.389,60.609 33.885,76.711 38.251,98.021 41.58,114.265 58.88,135.394 89.057,155.87 119.234,135.394 136.534,114.265 139.863,98.021 144.23,76.711 129.731,60.609 113.459,60.46 105.096,60.332 94.633,64.751 89.057,75.432 83.481,64.751 73.024,60.332 64.661,60.46 Z m 26.276,17.938 c 11.535,0 15.696,-0.009 18.115,1.611 2.419,1.623 3.141,4.062 0.842,6.916 -2.298,2.854 -5.532,3.872 -11.309,2.105 -5.778,-1.767 -18.958,-2.461 -21.161,-0.708 -2.203,1.754 -0.801,5.855 1.666,6.488 2.467,0.634 2.203,1.036 2.203,5.005 0,4.429 0.004,4.438 -2.966,4.438 -3.668,0 -8.584,-3.267 -10.248,-6.806 -1.761,-3.747 -1.486,-10.203 0.556,-13 4.231,-5.797 10.034,-6.049 22.302,-6.049 z m 9.131,2.264 c -1.564,0 -2.885,0.562 -2.21,2.362 0.676,1.801 3.199,1.357 3.595,0.287 0.397,-1.069 0.178,-2.649 -1.385,-2.649 z M 83.07,89.738 h 9.753 v 22.675 h 2.527 c 3.403,0 5.926,-2.847 4.663,-5.261 -0.514,-0.982 -1.942,-2.046 -3.174,-2.362 -2.021,-0.519 -2.24,-1.015 -2.24,-5.091 0,-5.064 0.403,-5.28 6.378,-3.448 6.521,1.998 9.989,9.091 7.91,16.186 -1.362,4.651 -5.237,7.785 -11.175,9.046 l -4.889,1.037 v 19.831 H 83.07 v -9.827 c 0,-5.405 -0.199,-10.026 -0.44,-10.272 -0.241,-0.247 -1.642,-0.276 -3.113,-0.055 -4.587,0.688 -4.481,7.452 0.116,7.452 1.404,0 1.66,0.7 1.66,4.48 0,2.465 -0.318,4.688 -0.714,4.938 -0.395,0.25 -2.36,0.028 -4.358,-0.488 -13.772,-3.576 -11.913,-23.851 2.362,-25.788 l 4.486,-0.61 v -11.224 z m 11.529,39.911 h 3.339 c 4.834,0 10.162,3.859 9.796,7.099 -0.266,2.351 -0.474,2.439 -6.708,2.697 l -6.427,0.263 z"
         style="fill:url(#_Linear4);fill-rule:nonzero" /></g><path
       id="Kreuz"
       d="M 18.113142,2.2364932 V 3.3382153 H 17.01427 v 1.1018725 h 1.098872 v 1.101872 h 1.099022 v -1.101872 h 1.098873 V 3.3382153 H 19.212164 V 2.2364932 Z"
       style="fill:#ffffff;fill-rule:nonzero;stroke-width:0.149996" /><g
       id="AED"
       transform="matrix(0.14999621,0,0,0.14999621,-2.4342388,-2.4342388)"><path
         id="D"
         d="m 97.32,24.353 v 28.823 h 14.705 c 12.063,-5.142 12.065,-23.68 0.346,-28.823 z m 6.814,5.142 h 5.993 c 5.625,2.472 5.621,16.073 -0.163,18.539 h -5.83 z"
         style="fill:#ffffff;fill-rule:nonzero" /><path
         id="E"
         d="m 89.059,29.431 c -3.239,0 -6.729,0 -10.128,0 v 6.698 h 8.446 v 5.141 h -8.446 v 6.698 c 3.376,0 6.752,0 10.128,0 m 0,5.142 H 72.812 V 24.288 h 16.247"
         style="fill:#ffffff;fill-rule:nonzero" /><path
         id="A"
         d="m 48.58,41.337 h 8.189 L 52.673,31.269 Z m 0.56,-16.981 7.025,-0.068 11.893,28.888 H 60.905 L 58.147,46.48 H 47.2 l -2.757,6.696 h -7.197 z"
         style="fill:#ffffff;fill-rule:nonzero" /></g></g><defs
     id="defs17713"><linearGradient
       id="_Linear1"
       x1="0"
       y1="0"
       x2="1"
       y2="0"
       gradientUnits="userSpaceOnUse"
       gradientTransform="matrix(68.9095,97.7547,-44.8405,31.6091,78.9679,50.2408)"><stop
         offset="0"
         style="stop-color:#7d0011;stop-opacity:1"
         id="stop17689" /><stop
         offset="0.43"
         style="stop-color:#a3111c;stop-opacity:1"
         id="stop17691" /><stop
         offset="1"
         style="stop-color:#f83735;stop-opacity:1"
         id="stop17693" /></linearGradient><linearGradient
       id="_Linear2"
       x1="0"
       y1="0"
       x2="1"
       y2="0"
       gradientUnits="userSpaceOnUse"
       gradientTransform="matrix(68.9095,97.7547,-44.8405,31.6091,78.9679,50.2408)"><stop
         offset="0"
         style="stop-color:#7d0011;stop-opacity:1"
         id="stop17696" /><stop
         offset="0.43"
         style="stop-color:#a3111c;stop-opacity:1"
         id="stop17698" /><stop
         offset="1"
         style="stop-color:#f83735;stop-opacity:1"
         id="stop17700" /></linearGradient><filter
       id="_Effect3"
       filterUnits="userSpaceOnUse"
       x="-23.865299"
       y="-23.865299"
       width="116.722"
       height="115.284"><feGaussianBlur
         in="SourceGraphic"
         stdDeviation="7.95508"
         id="feGaussianBlur17703" /></filter><linearGradient
       id="_Linear4"
       x1="0"
       y1="0"
       x2="1"
       y2="0"
       gradientUnits="userSpaceOnUse"
       gradientTransform="matrix(128.612,132.849,-132.849,128.612,23.9461,25.3399)"><stop
         offset="0"
         style="stop-color:#fff;stop-opacity:1"
         id="stop17706" /><stop
         offset="0.61"
         style="stop-color:#e3e3e3;stop-opacity:1"
         id="stop17708" /><stop
         offset="1"
         style="stop-color:#878787;stop-opacity:1"
         id="stop17710" /></linearGradient></defs></svg>
