<?xml version="1.0" encoding="UTF-8" standalone="no"?>
<svg
   inkscape:version="1.1 (c68e22c387, 2021-05-23)"
   sodipodi:docname="AlbisIcon.svg"
   id="svg1027"
   style="clip-rule:evenodd;fill-rule:evenodd;stroke-linejoin:round;stroke-miterlimit:2"
   xml:space="preserve"
   version="1.1"
   viewBox="0 0 28.500002 28.500002"
   height="28.500002"
   width="28.500002"
   xmlns:inkscape="http://www.inkscape.org/namespaces/inkscape"
   xmlns:sodipodi="http://sodipodi.sourceforge.net/DTD/sodipodi-0.dtd"
   xmlns:xlink="http://www.w3.org/1999/xlink"
   xmlns="http://www.w3.org/2000/svg"
   xmlns:svg="http://www.w3.org/2000/svg"><sodipodi:namedview
     id="namedview1029"
     pagecolor="#ffffff"
     bordercolor="#666666"
     borderopacity="1.0"
     inkscape:pageshadow="2"
     inkscape:pageopacity="0.0"
     inkscape:pagecheckerboard="0"
     showgrid="false"
     showguides="true"
     inkscape:guide-bbox="true"
     inkscape:snap-bbox="true"
     inkscape:bbox-paths="true"
     inkscape:bbox-nodes="true"
     inkscape:snap-bbox-edge-midpoints="true"
     inkscape:snap-bbox-midpoints="true"
     inkscape:object-paths="true"
     inkscape:snap-intersection-paths="true"
     inkscape:snap-smooth-nodes="true"
     inkscape:snap-object-midpoints="true"
     inkscape:snap-center="true"
     inkscape:snap-text-baseline="true"
     inkscape:snap-page="true"
     inkscape:zoom="13.648468"
     inkscape:cx="4.3594638"
     inkscape:cy="31.029125"
     inkscape:current-layer="svg1027"
     inkscape:snap-global="false"
     fit-margin-top="0"
     fit-margin-left="0"
     fit-margin-right="0"
     fit-margin-bottom="0" /><g
     id="Albis"
     transform="matrix(0.05760203,0,0,0.05760203,0.09158535,0.05495121)"><circle
       cx="243.047"
       cy="243.047"
       r="243.047"
       style="fill:url(#_Radial1)"
       id="circle986" /><path
       d="m 214.74771,132.83077 c 15.66642,0.56009 31.26487,0.46533 46.73607,-0.32394 0.14454,30.71669 0.12525,61.4359 -0.0571,92.15657 9.26809,-0.39667 18.5218,-0.99886 27.75321,-1.81186 8.3341,-0.73809 16.63353,-1.64111 24.87934,-2.73858 5.69341,-0.75756 10.32079,-3.32541 13.75434,-7.61345 3.43796,-4.29239 4.62381,-8.90189 3.74596,-13.77834 -0.72642,-4.03672 -2.18911,-7.12543 -4.34014,-9.26955 -2.15455,-2.14843 -4.6897,-3.67891 -7.61963,-4.6108 -2.93251,-0.93129 -6.18547,-1.36253 -9.79565,-1.30962 -3.61088,0.0519 -7.24902,0.28468 -10.93,0.6998 -3.12976,0.35331 -6.12168,0.74919 -8.98534,1.19923 -1.19987,0.18815 -2.36307,0.35426 -3.48806,0.49881 -1.55972,0.19792 -3.04527,0.3538 -4.45448,0.46894 -0.44219,-12.23009 -0.90861,-24.45921 -1.3993,-36.68729 1.03621,-0.0886 2.07185,-0.18034 3.10689,-0.27515 6.9848,-0.65904 13.8599,-1.42198 20.60885,-2.31447 7.57902,-1.00225 14.68201,-0.6594 21.57939,1.02414 6.8878,1.68158 13.19043,4.34796 19.04266,8.04954 5.84287,3.69645 11.08497,8.33179 15.68932,13.96257 0.89933,1.09954 1.75576,2.22998 2.56783,3.39205 3.3691,4.74736 5.98481,10.11955 7.7097,16.05776 1.87401,6.45116 2.49118,12.86303 1.65944,19.27031 0,0 0,0 0,0 -0.12051,0.93761 -0.27213,1.87453 -0.45541,2.81067 -1.43112,7.31703 -4.40447,14.15891 -9.02803,20.44656 -4.62059,6.28358 -10.73384,11.68728 -18.28557,16.06466 -7.55071,4.37634 -16.1689,7.25323 -25.64509,8.52061 -9.04337,1.20953 -18.09825,2.18816 -27.14435,2.96752 -36.42346,3.15407 -73.05622,3.25178 -109.49071,0.56581 -6.10482,-0.45025 -11.55011,0.91391 -16.43675,4.14061 -4.88356,3.22374 -7.62414,7.26764 -8.11722,12.20722 -0.49252,4.93215 1.39572,9.48684 5.784,13.60268 4.38381,4.11268 9.8355,6.43722 16.25964,6.90665 5.09241,0.37203 10.19003,0.69242 15.29191,0.96054 0.20557,12.25428 0.45998,24.50936 0.76343,36.76497 -6.17021,-0.30112 -12.33269,-0.67501 -18.48597,-1.12068 -10.45205,-0.75677 -20.07727,-3.12065 -28.73813,-6.99577 -8.66348,-3.87586 -15.94527,-8.78592 -21.82159,-14.6159 -5.88043,-5.83183 -10.15169,-12.38193 -12.87209,-19.57483 -2.72083,-7.1957 -3.39125,-14.5991 -2.16235,-22.1991 1.22904,-7.60173 4.1883,-14.38578 8.74183,-20.41364 4.5545,-6.02743 10.14043,-11.09186 16.71675,-15.26251 6.57839,-4.17282 13.91202,-7.22969 22.04306,-9.25118 8.13395,-2.02267 16.61806,-2.67078 25.60667,-2.00251 10.48479,0.77948 20.9789,1.31554 31.47094,1.60055 -0.87523,-30.72423 -1.46045,-61.44869 -1.75829,-92.1696 z M 353.37545,59.036121 c 0.1914,-0.158203 0.63259,0.520259 1.52085,1.967054 0.88876,1.447661 1.98815,3.247988 3.31859,5.438794 2.13125,3.509501 3.49048,5.84291 3.75278,7.124379 0.25932,1.266883 -0.009,2.124086 -0.82471,2.546751 -0.28558,0.14797 -0.60798,0.255157 -0.95823,0.321348 -0.35082,0.0653 -0.69339,0.167701 -1.02508,0.305993 1.69447,2.783931 3.19977,5.529587 4.40129,8.14797 1.06455,2.319567 1.67445,4.455123 1.65962,6.400481 -0.0149,1.953164 -0.65741,3.18207 -1.93738,3.666006 -1.72357,0.651631 -3.34585,0.217123 -4.61324,-1.331205 -1.27232,-1.554347 -2.43484,-3.364819 -3.49352,-5.449724 -1.0547,-2.076124 -2.21721,-3.955206 -3.4755,-5.602684 -1.26263,-1.651704 -2.82024,-2.166541 -4.97056,-1.43915 -1.07515,0.363699 -2.19816,0.744855 -3.36749,1.145155 -0.63612,2.430936 -1.49083,4.752323 -2.57722,6.97365 -1.88988,3.95104 -4.42946,7.396171 -7.62598,10.295957 -4.91659,4.460174 -10.87042,7.315964 -17.6315,8.493834 -10.96209,1.90974 -22.54648,3.37423 -34.64698,4.55901 -40.3964,3.78815 -82.04186,2.41071 -123.73078,-3.32574 -5.03267,-0.69248 -9.56766,0.43453 -13.69174,3.41754 -4.11906,2.98111 -6.65561,6.97337 -7.50774,12.03638 -0.82338,4.89179 0.32116,9.47012 3.54255,13.70931 3.2173,4.23496 7.45751,6.73802 12.62779,7.44857 14.5215,1.99569 29.05987,3.49123 43.57252,4.45813 -0.26178,12.2375 -0.48084,24.47681 -0.65702,36.71772 -15.95961,-1.01161 -31.92555,-2.62554 -47.85036,-4.81007 -8.48137,-1.1634 -16.18619,-3.85215 -22.97425,-7.97728 -6.79098,-4.12626 -12.40721,-9.20761 -16.82297,-15.15752 -4.4171,-5.95166 -7.38863,-12.54166 -8.966863,-19.7201 -1.580301,-7.18151 -1.439188,-14.51343 0.283281,-22.01403 1.721952,-7.49831 4.792562,-14.16713 9.073472,-20.053412 4.28116,-5.888131 9.34253,-10.798871 15.12813,-14.78558 5.78929,-3.988437 12.0157,-6.856437 18.71605,-8.654294 6.69942,-1.798017 13.52795,-2.194516 20.61617,-1.218671 17.48301,2.40691 34.91738,4.000602 52.19552,4.7091 -0.0246,-12.322306 -5e-5,-24.643694 0.0735,-36.963885 15.63119,0.69727 31.07987,0.612891 46.24693,-0.319435 0.15495,12.320896 0.27997,24.642403 0.3751,36.964434 5.6895,-0.323766 11.3502,-0.75522 16.97803,-1.297104 5.72419,-0.584115 11.27798,-1.220308 16.64717,-1.930699 -0.62842,-4.930262 0.3115,-9.390182 2.60401,-13.438325 2.28933,-4.043756 5.20987,-6.344346 8.7947,-6.962798 8.64707,-1.491794 16.57103,-3.265581 23.68459,-5.457431 4.17059,-1.595499 7.54152,-2.757511 10.0278,-3.57946 1.94435,5.607421 3.59857,11.681889 4.49857,18.00571 5.12122,-1.729494 8.23792,-2.726482 9.01008,-3.364679 z M 218.52322,280.46081 c 14.08371,0.3069 28.18314,0.19841 42.27669,-0.33992 -0.38364,30.72195 -0.92982,61.44471 -1.63776,92.1672 7.25108,-0.22795 14.50853,-0.55415 21.77034,-0.97995 7.14217,-0.41869 13.2254,-2.71275 18.14059,-6.80544 0.24774,-0.20628 0.48845,-0.41375 0.72216,-0.6224 0,0 0,0 0,0 4.41889,-3.92652 6.34112,-8.26257 5.85423,-12.94617 -0.42419,-4.08398 -2.61333,-7.52491 -6.47447,-10.3773 -0.39127,-0.28893 -0.79067,-0.56737 -1.19821,-0.83536 -3.61135,-2.37103 -7.87128,-3.91137 -12.80487,-4.656 -0.12578,-12.41573 -0.28179,-24.83068 -0.46808,-37.24476 3.45345,0.085 6.84176,0.32069 10.17249,0.70993 5.33149,0.62903 10.53272,1.64166 15.63045,3.04488 8.28093,2.27993 15.69404,5.35734 22.24058,9.33106 6.54231,3.9712 12.14664,8.68555 16.73444,14.23021 4.58773,5.54375 7.63174,11.71592 8.94459,18.6059 1.40903,7.39352 0.62328,14.79335 -2.56938,22.203 -3.18751,7.40227 -8.26953,14.21157 -15.25178,20.30263 -6.9775,6.08585 -15.4681,11.16218 -25.31448,15.05907 -4.00253,1.58426 -8.1351,2.89899 -12.38196,3.93774 -6.17956,1.53413 -12.65533,2.5083 -19.38984,2.90436 -46.43878,2.73105 -92.61043,1.60309 -138.05617,-3.07693 0.48026,-5.1104 2.38031,-9.72749 5.63328,-13.8757 3.25577,-4.14978 7.41418,-7.66424 12.45915,-10.58437 5.04806,-2.92004 10.79046,-5.13354 17.25128,-6.68778 6.4623,-1.55364 13.31659,-2.16789 20.64211,-1.87772 7.20332,0.28543 14.4184,0.47619 21.6432,0.57092 -1.81619,-30.71396 -3.33818,-61.43426 -4.56858,-92.1571 z m 8.31284,147.58847 c 10.2198,0.0787 20.4634,-0.0215 30.72614,-0.30358 -0.15493,6.1607 -0.31574,12.32137 -0.48245,18.48202 -9.6807,0.25502 -19.34284,0.35211 -28.98275,0.29373 -0.43162,-6.15707 -0.85193,-12.31447 -1.26094,-18.47217 z"
       style="fill:url(#radialGradient900);fill-rule:nonzero;stroke-width:1.16534;filter:url(#filter16605)"
       id="path988"
       inkscape:path-effect="#path-effect902"
       inkscape:original-d="m 198.15679,71.923211 56.14516,-0.778785 -3.45072,107.145624 54.6036,-0.75747 c 5.96361,-0.0825 11.07608,-2.29221 15.33511,-6.6273 4.26017,-4.33512 6.3497,-9.38603 6.26975,-15.15155 -0.0659,-4.77277 -1.09576,-8.58697 -3.08982,-11.44264 -1.99408,-2.85682 -4.54431,-5.05797 -7.65075,-6.60688 -3.10758,-1.54774 -6.66899,-2.54256 -10.68659,-2.98332 -4.0176,-0.44193 -8.08301,-0.6338 -12.19625,-0.57674 -3.49568,0.0489 -6.83616,0.1939 -10.02145,0.43735 -3.18532,0.2423 -6.11446,0.38318 -8.78748,0.42023 l 1.25879,-42.677528 28.38137,-0.393604 c 9.25421,-0.128324 17.91546,1.441411 25.98374,4.710471 8.06714,3.269068 15.12306,7.745591 21.16784,13.429571 6.0436,5.68397 10.86819,12.37899 14.47142,20.08507 3.6044,7.70606 5.46809,16.03416 5.59219,24.9819 0.12424,8.94775 -1.5079,17.32317 -4.89717,25.12625 -3.38812,7.80422 -8.02449,14.67941 -13.90672,20.62785 -5.88343,5.94962 -12.81181,10.66908 -20.78517,14.16064 -7.97452,3.49158 -16.58889,5.30214 -25.84309,5.43047 l -133.2679,1.8485 c -5.96478,0.0825 -11.12856,2.29177 -15.49011,6.6283 -4.36274,4.33653 -6.50353,9.38815 -6.42354,15.15486 0.0798,5.76553 2.36003,10.75581 6.84135,14.96969 4.48017,4.2139 9.70323,6.28003 15.66802,6.1973 l 14.19009,-0.1971 2.75075,42.62193 -16.34928,0.22633 c -9.25535,0.12841 -17.91662,-1.44256 -25.98375,-4.71163 -8.0683,-3.26906 -15.12424,-7.7456 -21.16784,-13.42957 -6.04476,-5.68279 -10.86817,-12.37782 -14.47258,-20.08506 -3.60325,-7.70609 -5.46691,-16.03301 -5.591,-24.98076 -0.12424,-8.94892 1.50786,-17.32435 4.89599,-25.1274 3.38927,-7.80308 8.02446,-14.6794 13.90789,-20.62789 5.88228,-5.94844 12.81065,-10.66905 20.78518,-14.1606 7.97335,-3.49158 16.58771,-5.30096 25.84309,-5.42933 l 32.3909,-0.44934 z M 424.93059,4.3401911 c 3.08434,-0.042781 5.72175,0.9648817 7.90986,3.0218505 2.18812,2.0581351 3.30346,4.5786814 3.34482,7.5616554 0.0659,4.771601 -1.58948,7.828221 -4.96468,9.167519 -3.37522,1.339296 -7.11945,2.038054 -11.23269,2.095103 -1.44021,0.02002 -2.82868,-0.01089 -4.16657,-0.09139 -1.33791,-0.08168 -2.625,-0.112765 -3.85895,-0.09565 1.49259,3.757683 2.26234,7.327264 2.30923,10.707581 0.0418,2.981805 -1.00362,5.532318 -3.13385,7.650351 -2.13016,2.118027 -4.73863,3.19845 -7.82297,3.241228 -4.11324,0.05702 -6.85387,-0.999291 -8.22071,-3.167882 -1.36685,-2.168586 -2.37827,-4.59151 -3.03191,-7.266473 -0.65479,-2.676113 -1.66574,-5.147993 -3.03395,-7.41679 -1.3694,-2.267618 -4.10955,-3.372917 -8.22279,-3.315868 l -6.16985,0.08559 c -6.07337,7.044297 -13.40342,12.46624 -21.9902,16.264658 -8.58678,3.798422 -17.61039,5.763823 -27.07086,5.89504 l -199.28485,2.764094 c -6.16987,0.0856 -11.38558,2.246404 -15.64715,6.481313 -4.2604,4.236061 -6.34926,9.335898 -6.26651,15.301848 0.0799,5.766698 2.36004,10.755824 6.84136,14.969699 4.48016,4.213891 9.70324,6.280046 15.66801,6.197314 l 50.28409,-0.697444 2.44197,42.626222 -52.13446,0.72298 c -9.2554,0.12841 -17.91666,-1.44254 -25.98378,-4.71164 C 93.424924,129.06222 86.317703,124.58641 80.170394,118.90385 74.024266,113.22242 69.148415,106.5281 65.545167,98.820852 61.940773,91.114783 60.077107,82.787861 59.953,73.840104 59.828898,64.892349 61.460885,56.515776 64.850165,48.712705 68.238283,40.909649 72.9259,34.032585 78.910699,28.082709 84.896663,22.132814 91.876316,17.411505 99.850854,13.919931 107.82418,10.428375 116.43857,8.6189917 125.69395,8.4906193 l 68.4849,-0.9498913 -2.75605,-42.920205 66.63451,-0.924254 -1.56341,42.9801159 46.58215,-0.6460912 c -0.0798,-5.76669834 2.00957,-10.8175963 6.26975,-15.1527156 4.25901,-4.3351041 9.3715,-6.5434471 15.33514,-6.6261631 l 66.63453,-0.924253 c 0.0962,6.9587232 -1.14071,14.1363964 -3.71285,21.5307148 z M 208.55693,243.31436 l 40.10353,-0.55597 -3.45071,107.14559 18.20081,-0.25211 c 5.96477,-0.0825 11.12735,-2.29295 15.49008,-6.62949 4.36276,-4.33654 6.50354,-9.38815 6.42356,-15.15368 -0.0659,-4.77275 -1.66755,-8.97648 -4.80293,-12.61229 -3.13654,-3.63581 -7.07872,-6.11716 -11.82882,-7.44283 l 1.56048,-43.27843 c 8.24027,0.87983 15.98411,3.10916 23.2339,6.68792 7.24863,3.57877 13.48329,8.16573 18.70403,13.76209 5.21957,5.59517 9.37119,12.00118 12.45365,19.21799 3.08249,7.21567 4.68084,14.90062 4.79393,23.05369 0.12154,8.74849 -1.51133,17.07499 -4.89924,24.97706 -3.38675,7.90328 -8.07366,14.82927 -14.05848,20.77916 -5.98595,5.9499 -12.96561,10.67121 -20.94015,14.16279 -7.97332,3.49155 -16.48517,5.30068 -25.5343,5.42621 l -111.05637,1.54032 c -0.0825,-5.96596 1.02273,-11.54979 3.31524,-16.75268 2.29371,-5.20291 5.41902,-9.77055 9.37476,-13.70401 3.95695,-3.93234 8.59375,-7.07926 13.90924,-9.44075 5.31549,-2.36036 11.05702,-3.5833 17.22689,-3.66888 l 18.20198,-0.25214 z m 10.39899,171.39116 24.06305,-0.33401 -0.6285,21.48794 -22.21149,0.30813 z" /></g><defs
     id="defs1025"><radialGradient
       id="radialGradient2329"
       cx="0"
       cy="0"
       r="1"
       gradientUnits="userSpaceOnUse"
       gradientTransform="matrix(0.818358,235.597,-243.675,0.846417,234.029,228.807)"><stop
         offset="0"
         style="stop-color:#fff;stop-opacity:1"
         id="stop2323" /><stop
         offset="0.59146398"
         style="stop-color:#cfcfcf;stop-opacity:1"
         id="stop2325" /><stop
         offset="1"
         style="stop-color:#7e7e7e;stop-opacity:1"
         id="stop2327" /></radialGradient><inkscape:path-effect
       effect="bend_path"
       id="path-effect902"
       is_visible="true"
       lpeversion="1"
       bendpath="M 73.070273,222.73518 C 228.47833,260.67203 375.16695,242.28258 440.81334,202.40303"
       prop_scale="0.8609026"
       scale_y_rel="true"
       vertical="false"
       hide_knot="false"
       bendpath-nodetypes="cc" /><inkscape:path-effect
       effect="bend_path"
       id="path-effect4812"
       is_visible="true"
       lpeversion="1"
       bendpath="M 92.326,248.426 H 415.849"
       prop_scale="1.0153395"
       scale_y_rel="false"
       vertical="false"
       hide_knot="false" /><inkscape:path-effect
       effect="lattice2"
       gridpoint4="172.96587,40.636381"
       gridpoint5="335.20913,40.636381"
       gridpoint6="172.96587,456.21562"
       gridpoint7="335.20913,456.21562"
       gridpoint8x9="254.15008,36.849701"
       gridpoint10x11="254.15008,460.0023"
       gridpoint12="92.326,147.189"
       gridpoint13="415.849,147.189"
       gridpoint14="92.326,349.663"
       gridpoint15="415.849,349.663"
       gridpoint16="173.20675,147.189"
       gridpoint17="334.96825,147.189"
       gridpoint18="173.20675,349.663"
       gridpoint19="334.96825,349.663"
       gridpoint20x21="254.0875,147.189"
       gridpoint22x23="254.0875,349.663"
       gridpoint24x26="92.326,248.426"
       gridpoint25x27="415.849,248.426"
       gridpoint28x30="173.20675,248.426"
       gridpoint29x31="334.96825,248.426"
       gridpoint32x33x34x35="254.0875,248.426"
       id="path-effect1733"
       is_visible="true"
       lpeversion="1"
       horizontal_mirror="true"
       vertical_mirror="true"
       perimetral="true"
       live_update="true"
       gridpoint0="92.326,45.952"
       gridpoint1="415.849,45.952"
       gridpoint2="92.326,450.9"
       gridpoint3="415.849,450.9" /><radialGradient
       id="_Radial1"
       cx="0"
       cy="0"
       r="1"
       gradientUnits="userSpaceOnUse"
       gradientTransform="matrix(0,-243.047,243.047,0,243.047,243.047)"><stop
         offset="0"
         style="stop-color:#f83735;stop-opacity:1"
         id="stop997" /><stop
         offset="0.75"
         style="stop-color:#9a0d19;stop-opacity:1"
         id="stop999" /><stop
         offset="1"
         style="stop-color:#7d0011;stop-opacity:1"
         id="stop1001" /></radialGradient><radialGradient
       id="_Radial2"
       cx="0"
       cy="0"
       r="1"
       gradientUnits="userSpaceOnUse"
       gradientTransform="matrix(0.818358,235.597,-243.675,0.846417,234.029,228.807)"><stop
         offset="0"
         style="stop-color:#fff;stop-opacity:1"
         id="stop1004" /><stop
         offset="0.67"
         style="stop-color:#bcbcbc;stop-opacity:1"
         id="stop1006" /><stop
         offset="1"
         style="stop-color:#9a9a9a;stop-opacity:1"
         id="stop1008" /></radialGradient><radialGradient
       id="_Radial3"
       cx="-0.10192569"
       cy="-0.021991296"
       r="1"
       gradientUnits="userSpaceOnUse"
       gradientTransform="matrix(0.818358,235.597,-243.675,0.846417,801.34694,92.555299)"
       fx="-0.10192569"
       fy="-0.021991296"
       xlink:href="#_Radial2"><stop
         offset="0"
         style="stop-color:#fff;stop-opacity:1"
         id="stop1011" /><stop
         offset="0.67"
         style="stop-color:#bcbcbc;stop-opacity:1"
         id="stop1013" /><stop
         offset="1"
         style="stop-color:#9a9a9a;stop-opacity:1"
         id="stop1015" /></radialGradient><radialGradient
       id="_Radial4"
       cx="0"
       cy="0"
       r="1"
       gradientUnits="userSpaceOnUse"
       gradientTransform="matrix(0.818358,235.597,-243.675,0.846417,234.029,228.807)"><stop
         offset="0"
         style="stop-color:#fff;stop-opacity:1"
         id="stop1018" /><stop
         offset="0.67"
         style="stop-color:#bcbcbc;stop-opacity:1"
         id="stop1020" /><stop
         offset="1"
         style="stop-color:#9a9a9a;stop-opacity:1"
         id="stop1022" /></radialGradient><filter
       style="color-interpolation-filters:sRGB"
       id="filter1286"
       inkscape:label="" /><filter
       style="color-interpolation-filters:sRGB"
       inkscape:label="Diffuse Light"
       id="filter4362"
       x="-0.0084699159"
       y="-0.0067668259"
       width="1.0169398"
       height="1.0135337"><feGaussianBlur
         in="SourceGraphic"
         stdDeviation="0.027205244"
         result="blur"
         id="feGaussianBlur4352" /><feDiffuseLighting
         diffuseConstant="1"
         surfaceScale="10"
         lighting-color="#f0f0f0"
         result="diffuse"
         id="feDiffuseLighting4356"><feDistantLight
           elevation="64"
           azimuth="98"
           id="feDistantLight4354" /></feDiffuseLighting><feComposite
         in="diffuse"
         in2="diffuse"
         operator="arithmetic"
         k1="1"
         result="composite1"
         id="feComposite4358"
         k2="0"
         k3="0"
         k4="0" /><feComposite
         in="composite1"
         in2="SourceGraphic"
         k1="1"
         operator="arithmetic"
         k3="1"
         result="fbSourceGraphic"
         id="feComposite4360"
         k2="0"
         k4="0" /><feColorMatrix
         result="fbSourceGraphicAlpha"
         in="fbSourceGraphic"
         values="0 0 0 -1 0 0 0 0 -1 0 0 0 0 -1 0 0 0 0 1 0"
         id="feColorMatrix4382" /><feGaussianBlur
         id="feGaussianBlur4384"
         in="fbSourceGraphic"
         stdDeviation="1.11455"
         result="blur" /><feDiffuseLighting
         id="feDiffuseLighting4386"
         diffuseConstant="1"
         surfaceScale="10"
         lighting-color="#f0f0f0"
         result="diffuse"><feDistantLight
           id="feDistantLight4388"
           elevation="65"
           azimuth="98" /></feDiffuseLighting><feComposite
         in2="diffuse"
         id="feComposite4390"
         in="diffuse"
         operator="arithmetic"
         k1="1"
         result="composite1"
         k2="0"
         k3="0"
         k4="0" /><feComposite
         in2="fbSourceGraphic"
         id="feComposite4392"
         in="composite1"
         k1="1"
         operator="arithmetic"
         k3="1"
         result="composite2"
         k2="0"
         k4="0" /></filter><radialGradient
       inkscape:collect="always"
       xlink:href="#radialGradient2329"
       id="radialGradient900"
       gradientUnits="userSpaceOnUse"
       gradientTransform="matrix(4.7612249,274.51018,-283.9224,4.9244739,226.53477,177.24163)"
       cx="0.08811108"
       cy="-0.031553783"
       r="1"
       fx="0.08811108"
       fy="-0.031553783" /><filter
       style="color-interpolation-filters:sRGB"
       inkscape:label="Diffuse Light"
       id="filter16605"
       x="-0.074423802"
       y="-0.050456809"
       width="1.1488476"
       height="1.1009136"><feGaussianBlur
         in="SourceGraphic"
         stdDeviation="1.54799"
         result="blur"
         id="feGaussianBlur16595" /><feDiffuseLighting
         diffuseConstant="1"
         surfaceScale="10"
         lighting-color="#ffffff"
         result="diffuse"
         id="feDiffuseLighting16599"><feDistantLight
           elevation="56"
           azimuth="66"
           id="feDistantLight16597" /></feDiffuseLighting><feComposite
         in="diffuse"
         in2="diffuse"
         operator="arithmetic"
         k1="1"
         result="composite1"
         id="feComposite16601"
         k2="0"
         k3="0"
         k4="0" /><feComposite
         in="composite1"
         in2="SourceGraphic"
         k1="1"
         operator="arithmetic"
         k3="1"
         result="fbSourceGraphic"
         id="feComposite16603"
         k2="0"
         k4="0" /><feColorMatrix
         result="fbSourceGraphicAlpha"
         in="fbSourceGraphic"
         values="0 0 0 -1 0 0 0 0 -1 0 0 0 0 -1 0 0 0 0 1 0"
         id="feColorMatrix17165" /><feGaussianBlur
         id="feGaussianBlur17167"
         in="fbSourceGraphic"
         stdDeviation="3.49845"
         result="blur" /><feDiffuseLighting
         id="feDiffuseLighting17169"
         diffuseConstant="1"
         surfaceScale="10"
         lighting-color="#ffffff"
         result="diffuse"><feDistantLight
           id="feDistantLight17171"
           elevation="52"
           azimuth="66" /></feDiffuseLighting><feComposite
         in2="diffuse"
         id="feComposite17173"
         in="diffuse"
         operator="arithmetic"
         k1="1"
         result="composite1"
         k2="0"
         k3="0"
         k4="0" /><feComposite
         in2="fbSourceGraphic"
         id="feComposite17175"
         in="composite1"
         k1="1"
         operator="arithmetic"
         k3="1"
         result="fbSourceGraphic"
         k2="0"
         k4="0" /><feColorMatrix
         result="fbSourceGraphicAlpha"
         in="fbSourceGraphic"
         values="0 0 0 -1 0 0 0 0 -1 0 0 0 0 -1 0 0 0 0 1 0"
         id="feColorMatrix17195" /><feGaussianBlur
         id="feGaussianBlur17197"
         in="fbSourceGraphic"
         stdDeviation="3.49845"
         result="blur" /><feDiffuseLighting
         id="feDiffuseLighting17199"
         diffuseConstant="1"
         surfaceScale="10"
         lighting-color="#ffffff"
         result="diffuse"><feDistantLight
           id="feDistantLight17201"
           elevation="52"
           azimuth="66" /></feDiffuseLighting><feComposite
         in2="diffuse"
         id="feComposite17203"
         in="diffuse"
         operator="arithmetic"
         k1="1"
         result="composite1"
         k2="0"
         k3="0"
         k4="0" /><feComposite
         in2="fbSourceGraphic"
         id="feComposite17205"
         in="composite1"
         k1="1"
         operator="arithmetic"
         k3="1"
         result="composite2"
         k2="0"
         k4="0" /></filter></defs></svg>
