<?xml version="1.0" encoding="UTF-8" standalone="no"?>
<svg
   viewBox="0 0 28.193268 38"
   version="1.1"
   id="svg375"
   sodipodi:docname="coding.svg"
   inkscape:version="1.1 (c68e22c387, 2021-05-23)"
   width="28.193268"
   height="38"
   xmlns:inkscape="http://www.inkscape.org/namespaces/inkscape"
   xmlns:sodipodi="http://sodipodi.sourceforge.net/DTD/sodipodi-0.dtd"
   xmlns="http://www.w3.org/2000/svg"
   xmlns:svg="http://www.w3.org/2000/svg"
   xmlns:rdf="http://www.w3.org/1999/02/22-rdf-syntax-ns#"
   xmlns:cc="http://creativecommons.org/ns#"
   xmlns:dc="http://purl.org/dc/elements/1.1/">
  <sodipodi:namedview
     id="namedview377"
     pagecolor="#ffffff"
     bordercolor="#666666"
     borderopacity="1.0"
     inkscape:pageshadow="2"
     inkscape:pageopacity="0.0"
     inkscape:pagecheckerboard="0"
     showgrid="false"
     inkscape:zoom="32"
     inkscape:cx="11.671875"
     inkscape:cy="19.390625"
     inkscape:current-layer="svg375"
     showguides="true"
     inkscape:guide-bbox="true"
     inkscape:snap-bbox="true"
     inkscape:bbox-paths="true"
     inkscape:bbox-nodes="true"
     inkscape:snap-bbox-edge-midpoints="true"
     inkscape:snap-bbox-midpoints="true"
     inkscape:object-paths="true"
     inkscape:snap-intersection-paths="true"
     inkscape:snap-smooth-nodes="true"
     inkscape:snap-midpoints="true"
     inkscape:snap-object-midpoints="true"
     inkscape:snap-center="true"
     inkscape:snap-text-baseline="true"
     inkscape:snap-page="true"
     inkscape:snap-grids="false"
     fit-margin-top="0"
     fit-margin-left="0"
     fit-margin-right="0"
     fit-margin-bottom="0" />
  <defs
     id="defs9">
    <style
       id="style2">.cls-1,.cls-2{fill:#d6d8e5;}.cls-1{opacity:0.4;}.cls-3{fill:#b1b6c4;}.cls-4{fill:#c4c7d6;}.cls-5{fill:#38226d;}.cls-6{fill:#9c73ff;}.cls-7{fill:#8c50ff;}.cls-8{fill:#ffcea9;}.cls-9{fill:#ededed;}.cls-10{fill:#e5e5e5;}.cls-11{fill:#f4f4f4;}.cls-12{fill:#bfbfbf;}.cls-13{fill:#3a2c6d;}.cls-14{fill:#dceeff;}.cls-15{fill:#dbdbdb;}.cls-16{fill:#1e3779;}.cls-17{fill:#031f60;}.cls-18{fill:#b1b4c4;}.cls-19{fill:#9ea1af;}.cls-20{fill:#e4e7f2;}.cls-21{fill:#201d38;}.cls-22{opacity:0.3;fill:url(#Gradient_15);}.cls-23{fill:#a298e2;}.cls-24{fill:#f4ce2c;}.cls-25{fill:#4d3bff;}.cls-26{fill:#ff8657;}.cls-27{fill:#c33afc;}.cls-28{fill:#a6ce28;}.cls-29{fill:#bcd64d;}.cls-30{fill:#28221c;}.cls-31{fill:#fff;opacity:0.07;}.cls-32{fill:#8da01f;}.cls-33{fill:#99b524;}.cls-34{fill:#e4e6ef;}</style>
    <linearGradient
       id="Gradient_15"
       x1="101.94"
       y1="197.17999"
       x2="389.84"
       y2="197.17999"
       gradientUnits="userSpaceOnUse">
      <stop
         offset="0.21"
         stop-color="#fff"
         stop-opacity="0"
         id="stop4" />
      <stop
         offset="1"
         stop-color="#fff"
         stop-opacity="0.2"
         id="stop6" />
    </linearGradient>
  </defs>
  <title
     id="title11">Coding_SVG</title>
  <g
     id="monitor"
     transform="matrix(-0.09453215,0,0,0.09453215,37.493341,-1.551817e-4)">
    <g
       id="g3525"
       inkscape:label="Screen"
       style="display:inline">
      <path
         class="cls-1"
         d="m 222.1,375 -56.92,-32.86 c -4.11,-2.37 -3.59,-6.51 1.15,-9.25 l 36.88,-21.29 71.79,41.48 -36.87,21.29 c -4.75,2.74 -11.92,3.03 -16.03,0.63 z"
         id="path194" />
      <path
         class="cls-18"
         d="m 226.26,372.59 -56.93,-32.87 c -4.1,-2.37 -3.58,-6.5 1.15,-9.24 l 36.88,-21.29 71.79,41.44 -36.88,21.3 c -4.74,2.73 -11.91,3.07 -16.01,0.66 z"
         id="path196" />
      <polygon
         class="cls-18"
         points="169.97,335.01 166.56,335.81 166.56,333.6 "
         id="polygon200" />
      <path
         class="cls-2"
         d="m 226.26,370.42 -56.93,-32.87 c -4.1,-2.37 -3.58,-6.51 1.15,-9.24 l 36.88,-21.31 71.79,41.45 -36.88,21.29 c -4.74,2.75 -11.91,3.04 -16.01,0.68 z"
         id="path202"
         style="display:inline" />
      <polygon
         class="cls-19"
         points="279.15,348.46 207.56,307.11 198.67,277.63 271.24,319.26 "
         id="polygon204" />
      <polygon
         class="cls-18"
         points="205.27,308.22 196.38,278.74 268.95,320.37 277.05,349.67 "
         id="polygon208"
         style="display:inline" />
      <path
         class="cls-4"
         d="M 389.49,399.35 108.58,237.17 c -3.94,-2.28 -7.13,-8.38 -7.13,-13.63 V 6.25 c 0,-5.25 3.19,-7.67 7.13,-5.39 L 389.49,163 c 3.94,2.27 7.13,8.37 7.13,13.63 V 394 c 0,5.21 -3.19,7.63 -7.13,5.35 z"
         id="path210"
         style="display:inline" />
      <path
         class="cls-20"
         d="M 386.91,400.84 106,238.66 c -3.94,-2.28 -7.14,-8.38 -7.14,-13.63 V 7.74 c 0,-5.26 3.2,-7.67 7.14,-5.4 l 280.9,162.18 c 3.94,2.28 7.14,8.38 7.14,13.64 v 217.28 c 0.01,5.26 -3.19,7.67 -7.13,5.4 z"
         id="path216"
         style="display:inline" />
      <path
         class="cls-21"
         d="M 386.42,401.12 105.51,238.94 c -3.94,-2.28 -7.13,-8.38 -7.13,-13.63 V 8 c 0,-5.25 3.19,-7.67 7.13,-5.39 l 280.91,162.2 c 3.94,2.27 7.13,8.37 7.13,13.63 v 217.29 c 0,5.27 -3.19,7.67 -7.13,5.39 z"
         id="path218"
         style="display:inline;fill:#101010;fill-opacity:1" />
      <path
         class="cls-22"
         d="M 389.69,387.91 101.94,221.78 102.09,8.89 c 0,-2.18 1.53,-3.06 3.42,-2 L 386.42,169.1 a 7.55,7.55 0 0 1 3.42,5.92 z"
         id="path220"
         style="display:inline;fill:url(#%D0%91%D0%B5%D0%B7%D1%8B%D0%BC%D1%8F%D0%BD%D0%BD%D1%8B%D0%B9_%D0%B3%D1%80%D0%B0%D0%B4%D0%B8%D0%B5%D0%BD%D1%82_15)" />
      <path
         class="cls-18"
         d="m 100.94,2.19 3.06,-1.76 4.4,2.51 c 0,0 -4.69,0.71 -4.8,0.68 -0.11,-0.03 -2.66,-1.43 -2.66,-1.43 z"
         id="path214"
         style="display:inline" />
      <polygon
         class="cls-4"
         points="394.05,399.8 392.7,390.57 390.93,401.59 "
         id="polygon212"
         style="display:inline" />
      <path
         class="cls-21"
         d="M 386.42,401.12 105.51,238.94 c -3.94,-2.28 -7.13,-8.38 -7.13,-13.63 V 8 c 0,-5.25 3.19,-7.67 7.13,-5.39 l 280.91,162.2 c 3.94,2.27 7.13,8.37 7.13,13.63 v 217.29 c 0,5.27 -3.19,7.67 -7.13,5.39 z"
         id="path3887"
         style="display:none" />
    </g>
    <g
       id="g3748"
       transform="translate(11.970036,8.303208)">
      <g
         id="g3435"
         style="display:inline"
         transform="rotate(180,297.215,229.63183)">
        <polygon
           class="cls-18"
           points="279.15,348.46 275.84,350.37 279.15,350.63 "
           id="polygon198" />
        <path
           class="cls-19"
           d="m 277.05,349.67 2.1,-1.21 L 276,346 Z"
           id="path206" />
        <polygon
           class="cls-23"
           points="276.62,142.08 257.55,131.07 257.55,124.19 276.62,135.2 "
           id="polygon222" />
        <polygon
           class="cls-24"
           points="320.7,167.55 280.19,144.14 280.19,137.26 320.7,160.67 "
           id="polygon224" />
        <polygon
           class="cls-23"
           points="276.62,164.09 257.55,153.09 257.55,146.21 276.62,157.21 "
           id="polygon226" />
        <polygon
           class="cls-25"
           points="293.61,174.07 280.19,166.16 280.19,159.28 293.61,167.19 "
           id="polygon228" />
        <polygon
           class="cls-23"
           points="276.62,175.1 257.55,164.09 257.55,157.21 276.62,168.22 "
           id="polygon230" />
        <polygon
           class="cls-25"
           points="302.83,190.23 280.19,177.16 280.19,170.28 302.83,183.35 "
           id="polygon232" />
        <polygon
           class="cls-23"
           points="276.62,186.1 257.55,175.1 257.55,168.22 276.62,179.23 "
           id="polygon234" />
        <polygon
           class="cls-26"
           points="339.9,222.56 280.19,188.17 280.19,181.29 339.9,215.69 "
           id="polygon236" />
        <polygon
           class="cls-23"
           points="276.62,153.09 257.55,142.08 257.55,135.2 276.62,146.21 "
           id="polygon238" />
        <polygon
           class="cls-23"
           points="354.57,198.14 280.19,155.15 280.19,148.27 354.57,191.26 "
           id="polygon240" />
        <polygon
           class="cls-23"
           points="276.62,197.11 257.55,186.1 257.55,179.22 276.62,190.23 "
           id="polygon242" />
        <polygon
           class="cls-27"
           points="344.53,237.01 280.19,199.18 280.19,192.3 344.53,230.13 "
           id="polygon244" />
        <polygon
           class="cls-23"
           points="276.62,219.13 257.55,208.12 257.55,201.24 276.62,212.25 "
           id="polygon246" />
        <polygon
           class="cls-23"
           points="355.26,264.53 280.19,221.19 280.19,214.31 355.26,257.65 "
           id="polygon248" />
        <polygon
           class="cls-23"
           points="276.62,230.13 257.55,219.13 257.55,212.25 276.62,223.25 "
           id="polygon250" />
        <polygon
           class="cls-27"
           points="302.83,245.27 280.19,232.19 280.19,225.32 302.83,238.39 "
           id="polygon252" />
        <polygon
           class="cls-23"
           points="276.62,241.14 257.55,230.13 257.55,223.25 276.62,234.26 "
           id="polygon254" />
        <polygon
           class="cls-25"
           points="326.45,270.03 280.19,243.2 280.19,236.32 326.45,263.15 "
           id="polygon256" />
        <polygon
           class="cls-23"
           points="276.62,208.12 257.55,197.11 257.55,190.23 276.62,201.24 "
           id="polygon258" />
        <polygon
           class="cls-25"
           points="288.53,215 280.19,210.18 280.19,203.3 288.53,208.12 "
           id="polygon260" />
        <polygon
           class="cls-23"
           points="276.62,252.15 257.55,241.14 257.55,234.26 276.62,245.27 "
           id="polygon262" />
        <polygon
           class="cls-27"
           points="310.05,271.41 280.19,254.21 280.19,247.33 310.05,264.53 "
           id="polygon264" />
        <polygon
           class="cls-23"
           points="276.62,274.16 257.55,263.15 257.55,256.27 276.62,267.28 "
           id="polygon266" />
        <polygon
           class="cls-26"
           points="323.76,301.06 280.19,276.22 280.19,269.34 323.76,294.18 "
           id="polygon268" />
        <polygon
           class="cls-23"
           points="276.62,285.17 257.55,274.16 257.55,267.28 276.62,278.29 "
           id="polygon270" />
        <polygon
           class="cls-23"
           points="285.63,290.67 280.19,287.23 280.19,280.35 285.63,283.79 "
           id="polygon272" />
        <polygon
           class="cls-23"
           points="276.62,296.17 257.55,285.17 257.55,278.29 276.62,289.29 "
           id="polygon274" />
        <polygon
           class="cls-24"
           points="305.18,312.63 280.19,298.24 280.19,291.36 305.18,305.75 "
           id="polygon276" />
        <polygon
           class="cls-23"
           points="276.62,263.15 257.55,252.15 257.55,245.26 276.62,256.27 "
           id="polygon278" />
        <polygon
           class="cls-25"
           points="314.96,285.17 280.19,265.21 280.19,258.34 314.96,278.29 "
           id="polygon280" />
      </g>
      <g
         id="g3401"
         style="display:inline"
         transform="rotate(-179.59791,177.69449,161.80123)">
        <polygon
           class="cls-23"
           points="134.21,62.28 134.21,55.4 153.28,66.41 153.28,73.29 "
           id="polygon282" />
        <polygon
           class="cls-27"
           points="156.85,75.35 156.85,68.47 237.88,115.25 237.88,122.13 "
           id="polygon284" />
        <polygon
           class="cls-23"
           points="134.21,84.29 134.21,77.41 153.28,88.42 153.28,95.3 "
           id="polygon286" />
        <polygon
           class="cls-24"
           points="156.85,97.36 156.85,90.48 210.47,121.44 210.47,128.32 "
           id="polygon288" />
        <polygon
           class="cls-23"
           points="134.21,95.3 134.21,88.42 153.28,99.43 153.28,106.31 "
           id="polygon290" />
        <polygon
           class="cls-26"
           points="156.85,108.37 156.85,101.49 223.58,140.01 223.58,146.89 "
           id="polygon292" />
        <polygon
           class="cls-23"
           points="134.21,106.31 134.21,99.43 153.28,110.43 153.28,117.31 "
           id="polygon294" />
        <polygon
           class="cls-23"
           points="156.85,119.38 156.85,112.5 203.32,139.33 203.32,146.21 "
           id="polygon296" />
        <polygon
           class="cls-23"
           points="134.21,73.28 134.21,66.41 153.28,77.41 153.28,84.29 "
           id="polygon298" />
        <polygon
           class="cls-25"
           points="156.85,86.36 156.85,79.48 197.36,102.87 197.36,109.75 "
           id="polygon300" />
        <polygon
           class="cls-23"
           points="134.21,117.31 134.21,110.43 153.28,121.44 153.28,128.32 "
           id="polygon302" />
        <polygon
           class="cls-27"
           points="156.85,130.38 156.85,123.5 180.68,137.26 180.68,144.14 "
           id="polygon304" />
        <polygon
           class="cls-23"
           points="134.21,139.32 134.21,132.45 153.28,143.45 153.28,150.33 "
           id="polygon306" />
        <polygon
           class="cls-24"
           points="156.85,152.4 156.85,145.52 231.92,188.86 231.92,195.74 "
           id="polygon308" />
        <polygon
           class="cls-23"
           points="134.21,150.33 134.21,143.45 153.28,154.46 153.28,161.34 "
           id="polygon310" />
        <polygon
           class="cls-26"
           points="156.85,163.4 156.85,156.52 179.49,169.59 179.49,176.47 "
           id="polygon312" />
        <polygon
           class="cls-23"
           points="134.21,161.34 134.21,154.46 153.28,165.47 153.28,172.35 "
           id="polygon314" />
        <polygon
           class="cls-23"
           points="156.85,174.41 156.85,167.53 223.58,206.06 223.58,212.93 "
           id="polygon316" />
        <polygon
           class="cls-23"
           points="134.21,128.32 134.21,121.44 153.28,132.45 153.28,139.33 "
           id="polygon318" />
        <polygon
           class="cls-25"
           points="156.85,141.39 156.85,134.51 220,170.97 220,177.85 "
           id="polygon320" />
        <polygon
           class="cls-23"
           points="134.21,172.34 134.21,165.47 153.28,176.47 153.28,183.35 "
           id="polygon322" />
        <polygon
           class="cls-27"
           points="156.85,185.42 156.85,178.54 165.19,183.35 165.19,190.23 "
           id="polygon324" />
        <polygon
           class="cls-23"
           points="134.21,194.36 134.21,187.48 153.28,198.49 153.28,205.37 "
           id="polygon326" />
        <polygon
           class="cls-24"
           points="156.85,207.43 156.85,200.55 172.34,209.49 172.34,216.37 "
           id="polygon328" />
        <polygon
           class="cls-23"
           points="134.21,205.37 134.21,198.49 153.28,209.49 153.28,216.37 "
           id="polygon330" />
        <polygon
           class="cls-26"
           points="156.85,218.44 156.85,211.56 197.36,234.95 197.36,241.83 "
           id="polygon332" />
        <polygon
           class="cls-23"
           points="134.21,216.37 134.21,209.49 153.28,220.5 153.28,227.38 "
           id="polygon334" />
        <polygon
           class="cls-23"
           points="156.85,229.44 156.85,222.56 221.19,259.71 221.19,266.59 "
           id="polygon336" />
        <polygon
           class="cls-23"
           points="134.21,183.35 134.21,176.47 153.28,187.48 153.28,194.36 "
           id="polygon338" />
        <polygon
           class="cls-25"
           points="156.85,196.42 156.85,189.54 237.88,236.32 237.88,243.2 "
           id="polygon340" />
      </g>
    </g>
  </g>
  <metadata
     id="metadata1194">
    <rdf:RDF>
      <cc:Work
         rdf:about="">
        <dc:title>Coding_SVG</dc:title>
      </cc:Work>
    </rdf:RDF>
  </metadata>
</svg>
