<?xml version="1.0" encoding="UTF-8" standalone="no"?>
<!-- Created with Inkscape (http://www.inkscape.org/) -->

<svg
   width="95.056999mm"
   height="97.326942mm"
   viewBox="0 0 95.056999 97.326942"
   version="1.1"
   id="svg5"
   inkscape:version="1.1 (c68e22c387, 2021-05-23)"
   sodipodi:docname="Laborbuch.svg"
   xmlns:inkscape="http://www.inkscape.org/namespaces/inkscape"
   xmlns:sodipodi="http://sodipodi.sourceforge.net/DTD/sodipodi-0.dtd"
   xmlns:xlink="http://www.w3.org/1999/xlink"
   xmlns="http://www.w3.org/2000/svg"
   xmlns:svg="http://www.w3.org/2000/svg">
  <sodipodi:namedview
     id="namedview7"
     pagecolor="#ffffff"
     bordercolor="#666666"
     borderopacity="1.0"
     inkscape:pageshadow="2"
     inkscape:pageopacity="0.0"
     inkscape:pagecheckerboard="0"
     inkscape:document-units="mm"
     showgrid="false"
     inkscape:zoom="1.2598564"
     inkscape:cx="333.76821"
     inkscape:cy="238.51926"
     inkscape:current-layer="g993"
     inkscape:snap-global="false"
     fit-margin-top="0"
     fit-margin-left="0"
     fit-margin-right="0"
     fit-margin-bottom="0" />
  <defs
     id="defs2">
    <linearGradient
       inkscape:collect="always"
       id="linearGradient5005">
      <stop
         style="stop-color:#f0a80a;stop-opacity:1"
         offset="0"
         id="stop5001" />
      <stop
         style="stop-color:#f5bf29;stop-opacity:1"
         offset="0.23008457"
         id="stop6613" />
      <stop
         style="stop-color:#cd9b07;stop-opacity:1"
         offset="0.4316929"
         id="stop8161" />
      <stop
         style="stop-color:#926e05;stop-opacity:1"
         offset="0.51807773"
         id="stop7451" />
      <stop
         style="stop-color:#b78a06;stop-opacity:1"
         offset="0.5676496"
         id="stop7903" />
      <stop
         style="stop-color:#efbe0b;stop-opacity:1"
         offset="0.77898669"
         id="stop5521" />
      <stop
         style="stop-color:#eca609;stop-opacity:1"
         offset="1"
         id="stop5003" />
    </linearGradient>
    <linearGradient
       inkscape:collect="always"
       id="linearGradient2714">
      <stop
         style="stop-color:#0b5804;stop-opacity:1"
         offset="0"
         id="stop2710" />
      <stop
         style="stop-color:#259023;stop-opacity:0.40540541"
         offset="1"
         id="stop2712" />
    </linearGradient>
    <linearGradient
       inkscape:collect="always"
       id="linearGradient2484">
      <stop
         style="stop-color:#791d5c;stop-opacity:0.96621622"
         offset="0"
         id="stop2480" />
      <stop
         style="stop-color:#c5baf7;stop-opacity:0.90315315"
         offset="1"
         id="stop2482" />
    </linearGradient>
    <linearGradient
       inkscape:collect="always"
       xlink:href="#linearGradient2484"
       id="linearGradient2486"
       x1="137.55307"
       y1="180.11578"
       x2="135.10916"
       y2="160.54123"
       gradientUnits="userSpaceOnUse"
       gradientTransform="matrix(1.1150725,0,0,1.1150725,-18.639606,-23.061379)" />
    <linearGradient
       inkscape:collect="always"
       xlink:href="#linearGradient2714"
       id="linearGradient2716"
       x1="138.41675"
       y1="203.29289"
       x2="136.88629"
       y2="130.7381"
       gradientUnits="userSpaceOnUse"
       gradientTransform="matrix(1.1150725,0,0,1.1150725,-18.639606,-23.061379)" />
    <linearGradient
       inkscape:collect="always"
       xlink:href="#linearGradient5005"
       id="linearGradient5007"
       x1="172.61864"
       y1="173.93622"
       x2="98.367989"
       y2="177.12608"
       gradientUnits="userSpaceOnUse" />
    <filter
       inkscape:collect="always"
       style="color-interpolation-filters:sRGB"
       id="filter6773"
       x="-0.0017745146"
       y="-0.0037359638"
       width="1.003549"
       height="1.0074602">
      <feGaussianBlur
         inkscape:collect="always"
         stdDeviation="0.013784793"
         id="feGaussianBlur6775" />
    </filter>
  </defs>
  <g
     inkscape:label="Ebene 1"
     inkscape:groupmode="layer"
     id="layer1"
     transform="translate(12.551874,-164.27298)">
    <g
       id="g993"
       transform="translate(-101.64337,57.693947)"
       inkscape:groupmode="layer">
      <path
         d="m 163.40906,160.65122 c 1.09582,0.16431 5.56519,1.86929 7.34219,2.80089 0.2223,0.11655 1.28999,2.87651 2.42738,6.27483 4.22239,12.61563 10.80179,32.66881 10.80179,32.92248 0,0.78492 -8.21382,0.0129 -20.37292,-1.91484 -8.14103,-1.2907 -8.87372,-1.3641 -13.75833,-1.37813 -4.22618,-0.0122 -5.44652,0.071 -6.74688,0.45976 -2.68605,0.80299 -2.91033,1.09266 -3.58229,2.05934 -3.29322,4.39755 -5.56303,-0.14978 -8.71405,-1.83659 -1.30036,-0.38875 -3.18894,-0.69466 -7.41512,-0.68251 -4.88461,0.014 -5.6173,0.0874 -13.75833,1.37813 -12.1591,1.92775 -20.37292,2.69976 -20.37292,1.91484 0,-0.14524 1.97434,-6.24719 4.38743,-13.55989 2.41309,-7.3127 5.21083,-15.79908 6.2172,-18.85862 1.00638,-3.05954 2.01991,-5.83427 2.25231,-6.16606 0.65274,-0.93191 6.56002,-3.48469 8.06377,-3.48469 0,0 10.07249,-2.2257 15.07161,-1.85355 3.1457,0.23417 9.65037,4.68126 11.28372,4.65206 1.63335,-0.0292 7.24097,-3.71395 12.10001,-4.30264 4.85904,-0.58869 14.77343,1.57519 14.77343,1.57519 z"
         style="mix-blend-mode:normal;fill:url(#linearGradient5007);fill-opacity:1;stroke:#010002;stroke-width:0.27;stroke-miterlimit:4;stroke-dasharray:none;stroke-opacity:0.901961;filter:url(#filter6773)"
         id="path3936"
         sodipodi:nodetypes="csssscsccsssssscszzc" />
      <path
         style="fill:url(#linearGradient2486);fill-opacity:1;stroke:#010002;stroke-width:0.295;stroke-miterlimit:4;stroke-dasharray:none;stroke-opacity:0.901961"
         d="m 128.38101,178.20371 c -4.20243,-1.26579 -7.43278,-3.32925 -9.90603,-6.32767 -3.31958,-4.02449 -4.84545,-8.27007 -4.84545,-13.48195 0,-5.38708 0.57466,-5.81837 4.53648,-3.40462 6.1676,3.75765 11.19755,3.93116 21.34786,0.73641 9.90196,-3.11657 12.8402,-3.16988 14.24957,-0.25851 1.28658,2.65774 0.53918,8.3466 -1.64187,12.49716 -2.78239,5.29489 -7.32397,8.90271 -13.05059,10.36733 -3.1825,0.81394 -7.74377,0.75927 -10.68997,-0.12815 z"
         id="path1003"
         sodipodi:nodetypes="sssssssss" />
      <path
         style="display:none;fill:#394e96;fill-opacity:0.801609;stroke-width:0.295029"
         d="m 130.2257,184.87818 c -2.64589,-0.30759 -6.97764,-1.72857 -9.41155,-3.08736 -6.11434,-3.41349 -11.02714,-9.59783 -12.7566,-16.05832 -1.98086,-7.39961 -1.07537,-14.55509 2.65075,-20.9471 2.66337,-4.56889 6.33357,-7.88717 11.70842,-10.58573 l 2.43399,-1.22204 v -2.91198 -2.91198 l -1.34556,-0.33881 c -1.08517,-0.27325 -1.4216,-0.51969 -1.73854,-1.27346 -0.44286,-1.05324 -0.3379,-1.55666 0.52423,-2.51443 l 0.59752,-0.66383 10.79091,0.009 c 11.53939,0.01 11.50748,0.006 12.07644,1.50256 0.41201,1.08364 -0.29418,2.54956 -1.34072,2.78314 -1.98684,0.44342 -1.8625,0.21693 -1.8625,3.39228 v 2.92712 l 2.43399,1.22319 c 3.14281,1.57941 5.28034,3.04486 7.31695,5.01639 9.83049,9.51633 10.80259,25.11303 2.23279,35.82395 -4.37402,5.46685 -10.75644,9.00912 -17.7368,9.84405 -2.95005,0.35284 -3.48286,0.35227 -6.57372,-0.007 z m 6.27868,-0.27676 c 9.38346,-1.07134 17.11022,-6.60744 21.09746,-15.11599 1.9164,-4.08949 2.45312,-6.93153 2.26878,-12.01376 -0.1758,-4.847 -0.72923,-7.2573 -2.46043,-10.71577 -1.45227,-2.90124 -3.22797,-5.32408 -5.45683,-7.44546 -2.39163,-2.27632 -4.10574,-3.43994 -7.21078,-4.89501 l -2.48512,-1.16457 v -3.07324 c 0,-2.73647 0.0626,-3.10671 0.57066,-3.37865 0.31386,-0.16798 0.80127,-0.30541 1.08313,-0.30541 1.39178,0 2.11925,-2.17321 1.10326,-3.29585 -0.45604,-0.50392 -1.19926,-0.53953 -11.26165,-0.53953 -9.61072,0 -10.8316,0.0527 -11.31291,0.48827 -1.08228,0.97945 -0.37439,3.34711 1.00073,3.34711 0.31006,0 0.82054,0.13743 1.1344,0.30541 0.50813,0.27194 0.57066,0.64218 0.57066,3.37865 v 3.07324 l -2.48512,1.16457 c -5.75012,2.69459 -9.83866,6.6897 -12.70493,12.41457 -2.84565,5.68367 -3.37187,13.73114 -1.30007,19.88122 3.27674,9.72685 11.87742,16.70314 22.05843,17.89231 2.82619,0.33011 2.88075,0.33009 5.79033,-0.002 z m -7.54868,-4.24447 c -6.83497,-1.49959 -13.06142,-6.59298 -15.87134,-12.98315 -1.87095,-4.25477 -2.34188,-9.9138 -1.19789,-14.39438 1.9529,-7.64877 7.59896,-13.61357 15.17696,-16.03377 l 2.06521,-0.65957 0.14752,-4.67498 0.14751,-4.67499 h 4.27793 4.27793 l 0.0996,0.7042 c 0.12655,0.89499 -0.36908,1.2033 -1.94351,1.20898 -0.68962,0.002 -1.25387,0.13727 -1.25387,0.29954 0,0.16226 0.56425,0.29706 1.25387,0.29955 1.57443,0.006 2.07006,0.31398 1.94351,1.20896 -0.0952,0.67353 -0.22169,0.71064 -2.90235,0.85173 -1.57349,0.0828 -2.80279,0.27692 -2.80279,0.44254 0,0.16563 1.2293,0.35973 2.80279,0.44255 2.75361,0.14492 2.80278,0.16045 2.80278,0.88509 0,0.67945 -0.12784,0.74919 -1.62266,0.88509 -2.06733,0.18793 -2.10545,0.70986 -0.0604,0.8272 1.30054,0.0746 1.60414,0.19983 1.81235,0.74747 0.17818,0.46865 0.67259,0.7661 1.71929,1.03436 3.32741,0.85279 7.41295,3.3051 9.98528,5.99359 7.26295,7.59092 8.42291,18.90703 2.83707,27.67732 -2.28274,3.58412 -6.55703,7.17643 -10.39384,8.73547 -3.77812,1.53518 -9.40102,2.03284 -13.3009,1.1772 z m 11.08904,-0.75906 c 7.35751,-2.33987 12.63825,-7.65588 14.94565,-15.04551 0.59191,-1.89564 0.68825,-2.8046 0.6723,-6.34313 -0.0165,-3.65604 -0.10883,-4.4015 -0.80435,-6.49065 -0.91595,-2.75142 -2.64951,-5.82959 -4.50868,-8.00578 -2.48083,-2.90383 -6.95139,-5.72942 -10.50655,-6.64056 -0.93983,-0.24088 -1.65574,-0.63162 -1.93326,-1.05518 -0.35698,-0.54481 -0.70861,-0.67263 -1.85038,-0.67263 -0.92547,0 -1.46325,-0.13965 -1.56568,-0.40659 -0.2616,-0.68173 0.43421,-1.06856 1.92209,-1.06856 1.21945,0 1.41614,-0.082 1.41614,-0.59005 0,-0.54575 -0.19669,-0.59007 -2.61915,-0.59007 -1.93318,0 -2.71253,-0.11252 -2.97569,-0.42962 -0.65977,-0.79497 -0.0196,-1.04553 2.67121,-1.04553 2.11371,0 2.68232,-0.0918 2.82181,-0.45526 0.25501,-0.6645 -0.0526,-0.84161 -1.76022,-1.0134 -1.09559,-0.11017 -1.5308,-0.27982 -1.5308,-0.59654 0,-0.29391 0.34681,-0.46929 1.0326,-0.52219 1.86195,-0.1436 2.36024,-0.34597 2.36024,-0.95858 0,-0.55473 -0.20994,-0.58444 -4.13042,-0.58444 h -4.13042 v 4.53683 c 0,3.28637 -0.10158,4.61251 -0.36879,4.81139 -0.20283,0.151 -1.16536,0.51315 -2.13896,0.80478 -9.07591,2.71858 -15.48905,11.46322 -15.48905,21.12014 0,10.15867 6.80121,18.87102 16.81669,21.54217 3.02763,0.8075 8.62243,0.66296 11.65367,-0.30104 z"
         id="path1001"
         sodipodi:nodetypes="csssscccssscccsscsssscccssssscssssscssscssssccsssscccccscscssssssssssssssssssssssssssssscsssscsscsss" />
      <path
         style="fill:#7ecd03;stroke:#010002;stroke-width:0.295;stroke-miterlimit:4;stroke-dasharray:none;stroke-opacity:0.901961"
         d="m 133.11154,152.92035 c 0,-0.27369 0.25225,-0.46419 0.61465,-0.46419 0.719,0 0.61737,0.68942 -0.12279,0.83297 -0.29113,0.0564 -0.49186,-0.094 -0.49186,-0.36878 z m -7.01655,-1.42303 c -0.43391,-0.52792 -0.51262,-1.13621 -0.26723,-2.06521 0.27119,-1.02664 1.43372,-1.11263 2.10403,-0.15562 0.65119,0.92969 0.57082,1.56359 -0.26792,2.11314 -0.87457,0.57305 -1.16974,0.59331 -1.56888,0.10772 z m 5.92048,-5.08224 c -1.8776,-0.81637 -1.54084,-3.28402 0.56303,-4.12582 1.10797,-0.44332 1.24206,-0.439 2.11034,0.0681 1.18082,0.68964 1.58987,1.78224 1.10526,2.9522 -0.59655,1.44019 -2.03856,1.86209 -3.77863,1.10551 z m 0.80104,-1.77719 c 0,-0.24341 -0.19914,-0.44255 -0.44255,-0.44255 -0.2434,0 -0.44254,0.19914 -0.44254,0.44255 0,0.2434 0.19914,0.44254 0.44254,0.44254 0.24341,0 0.44255,-0.19914 0.44255,-0.44254 z m 2.47088,-0.0879 c 0.23326,-0.37743 -0.30785,-1.04004 -0.66772,-0.81764 -0.47363,0.29273 -0.40352,1.053 0.0971,1.053 0.23382,0 0.49058,-0.10593 0.57059,-0.23536 z m 1.17617,-28.235 c -0.25824,-0.67296 0.10325,-1.32763 0.73301,-1.32763 0.85157,0 1.39216,0.77132 0.93048,1.32763 -0.20201,0.2434 -0.62072,0.44254 -0.93048,0.44254 -0.30975,0 -0.63961,-0.19914 -0.73301,-0.44254 z m -7.99687,-1.33613 c -0.74488,-0.29948 -1.84302,-1.92772 -1.8447,-2.73517 -0.006,-2.62534 3.88801,-4.2174 5.69678,-2.32945 1.20572,1.25851 1.12014,3.03457 -0.21033,4.36504 -1.04981,1.04981 -2.21423,1.27349 -3.64175,0.69958 z m -0.29007,-3.00593 c -0.27937,-0.6007 -0.33592,-0.61768 -0.52348,-0.15714 -0.30189,0.7412 0.0678,1.59946 0.50196,1.16532 0.24104,-0.24105 0.24706,-0.52323 0.0215,-1.00818 z m 3.10923,0.73134 c -0.1481,-0.76907 -1.1246,-0.85484 -1.1246,-0.0988 0,0.42221 0.18947,0.61169 0.61169,0.61169 0.42221,0 0.58109,-0.15888 0.51291,-0.51292 z m -1.49344,-1.72444 c -0.28114,-0.28116 -0.84481,0.17424 -0.63528,0.51327 0.12454,0.2015 0.28955,0.19641 0.50144,-0.0155 0.17371,-0.1737 0.23393,-0.3977 0.13384,-0.49779 z m 7.85126,-2.92567 c -0.25824,-0.67297 0.10326,-1.32763 0.73302,-1.32763 0.73154,0 1.2857,0.67997 1.05151,1.29024 -0.23138,0.60295 -1.55684,0.63073 -1.78453,0.0373 z"
         id="path997"
         sodipodi:nodetypes="ssssssssssssssssssssssssssssssscssssssssssssssssscsscc" />
      <path
         style="fill:url(#linearGradient2716);fill-opacity:1;stroke:#010002;stroke-width:0.295;stroke-miterlimit:4;stroke-dasharray:none;stroke-opacity:0.901961"
         d="m 130.71405,184.60353 c -8.79782,-1.02761 -16.63348,-6.48757 -20.56209,-14.32786 -1.98056,-3.95259 -2.74525,-7.45371 -2.7315,-12.50614 0.0188,-6.92855 2.91844,-13.59459 8.02938,-18.45909 2.39163,-2.27632 4.10574,-3.43994 7.21078,-4.89501 l 2.48512,-1.16457 v -3.07324 c 0,-2.73647 -0.0626,-3.10671 -0.57066,-3.37865 -0.31386,-0.16798 -0.82434,-0.30541 -1.1344,-0.30541 -1.37512,0 -2.08301,-2.36766 -1.00073,-3.34711 0.48131,-0.43557 1.70219,-0.48827 11.31291,-0.48827 10.06239,0 10.80561,0.0356 11.26165,0.53953 1.01599,1.12264 0.28852,3.29585 -1.10326,3.29585 -0.28186,0 -0.76927,0.13743 -1.08313,0.30541 -0.50812,0.27194 -0.57066,0.64218 -0.57066,3.37865 v 3.07324 l 2.48512,1.16457 c 5.72196,2.6814 9.84141,6.69447 12.66761,12.34047 1.7312,3.45847 2.28463,5.86877 2.46043,10.71577 0.13405,3.69574 0.0699,4.63435 -0.47154,6.8969 -2.63111,10.99545 -11.62824,18.94652 -22.8947,20.23285 -2.90958,0.3322 -2.96414,0.33222 -5.79033,0.002 z m 7.68019,-4.26121 c 6.89086,-1.44954 13.05851,-6.47589 15.93607,-12.98716 1.84582,-4.1767 2.33462,-10.25743 1.16773,-14.52691 -2.11993,-7.75649 -8.40106,-14.19192 -15.66995,-16.05488 -1.0467,-0.26826 -1.54111,-0.56571 -1.71929,-1.03436 -0.2082,-0.54764 -0.5118,-0.67284 -1.81235,-0.74747 -2.04503,-0.11734 -2.00692,-0.63927 0.0604,-0.8272 1.49482,-0.1359 1.62266,-0.20564 1.62266,-0.88509 0,-0.72464 -0.0492,-0.74017 -2.80277,-0.88509 -1.57349,-0.0829 -2.8028,-0.27692 -2.8028,-0.44255 0,-0.16562 1.22931,-0.35972 2.8028,-0.44254 2.68065,-0.14109 2.80711,-0.1782 2.90234,-0.85173 0.12655,-0.89498 -0.36908,-1.20329 -1.94351,-1.20896 -0.68962,-0.002 -1.25387,-0.13729 -1.25387,-0.29955 0,-0.16227 0.56425,-0.29707 1.25387,-0.29954 1.57443,-0.006 2.07006,-0.31399 1.94351,-1.20898 l -0.0996,-0.7042 h -4.27794 -4.27793 l -0.14751,4.67499 -0.14752,4.67498 -2.06521,0.65957 c -14.19075,4.53212 -20.25306,21.02832 -12.31067,33.49863 3.07759,4.83211 8.59378,8.68202 14.20294,9.91267 2.3191,0.50882 6.98454,0.50158 9.43854,-0.0146 z"
         id="path995"
         sodipodi:nodetypes="csssscssssscssscssscsccsssssssssssscscscccccsssss" />
    </g>
  </g>
</svg>
