<?xml version="1.0" encoding="UTF-8" standalone="no"?><!DOCTYPE svg PUBLIC "-//W3C//DTD SVG 1.1//EN" "http://www.w3.org/Graphics/SVG/1.1/DTD/svg11.dtd"><svg width="100%" height="100%" viewBox="0 0 77 96" version="1.1" xmlns="http://www.w3.org/2000/svg" xmlns:xlink="http://www.w3.org/1999/xlink" xml:space="preserve" xmlns:serif="http://www.serif.com/" style="fill-rule:evenodd;clip-rule:evenodd;stroke-linejoin:round;stroke-miterlimit:2;"><g id="g24"><path id="path22" d="M73.142,86.984C73.142,92.145 68.593,92.463 67.675,92.474L8.988,92.474C3.846,92.474 3.536,87.894 3.526,86.984L3.526,9.017C3.526,3.851 8.083,3.538 8.988,3.527L48.633,3.527L48.654,3.548L48.654,19.019C48.654,22.124 50.531,28.002 57.64,28.002L73.01,28.002L73.142,28.134L73.142,86.984ZM69.498,24.475L57.641,24.475C52.5,24.475 52.189,19.92 52.182,19.019L52.182,7.088L69.498,24.475Z" style="fill:#fff;fill-rule:nonzero;"/><path id="path221" serif:id="path22" d="M61.604,62.633C60.434,62.978 58.717,63.017 56.875,62.75C54.899,62.463 52.883,61.859 50.902,60.969C54.435,60.455 57.176,60.613 59.52,61.444C60.076,61.641 60.988,62.167 61.604,62.633M41.892,59.392C41.748,59.431 41.607,59.468 41.466,59.507C40.515,59.766 39.59,60.018 38.699,60.243L37.497,60.548C35.079,61.16 32.607,61.785 30.166,62.529C31.094,60.291 31.956,58.029 32.8,55.817C33.425,54.18 34.063,52.507 34.723,50.856C35.058,51.409 35.407,51.962 35.771,52.517C37.427,55.04 39.509,57.373 41.892,59.392M35.742,34.159C35.899,36.92 35.303,39.576 34.429,42.124C33.353,38.973 32.851,35.494 34.197,32.685C34.542,31.965 34.825,31.58 35.008,31.379C35.291,31.817 35.664,32.795 35.742,34.159M23.12,69.135C22.515,70.217 21.898,71.23 21.265,72.186C19.738,74.487 17.241,76.951 15.958,76.951C15.832,76.951 15.679,76.931 15.456,76.695C15.312,76.544 15.289,76.436 15.296,76.289C15.339,75.443 16.46,73.936 18.084,72.539C19.558,71.271 21.224,70.145 23.12,69.135M65.69,62.752C65.494,59.934 60.75,58.126 60.703,58.109C58.869,57.459 56.877,57.143 54.613,57.143C52.189,57.143 49.576,57.494 46.22,58.278C43.234,56.161 40.654,53.511 38.727,50.577C37.876,49.281 37.111,47.987 36.444,46.723C38.072,42.83 39.538,38.644 39.272,33.956C39.057,30.197 37.362,27.672 35.057,27.672C33.476,27.672 32.114,28.843 31.007,31.156C29.032,35.278 29.551,40.552 32.549,46.845C31.469,49.381 30.466,52.01 29.495,54.556C28.287,57.721 27.042,60.986 25.639,64.092C21.704,65.649 18.472,67.537 15.778,69.855C14.013,71.371 11.886,73.688 11.764,76.107C11.705,77.246 12.095,78.291 12.889,79.128C13.732,80.017 14.792,80.485 15.957,80.486C19.805,80.486 23.508,75.199 24.21,74.139C25.624,72.008 26.947,69.631 28.244,66.889C31.51,65.709 34.991,64.828 38.364,63.976L39.572,63.669C40.48,63.438 41.424,63.183 42.392,62.918C43.417,62.641 44.471,62.354 45.542,62.081C49.006,64.284 52.731,65.721 56.364,66.248C59.424,66.693 62.142,66.435 63.981,65.476C65.637,64.614 65.729,63.284 65.69,62.752" style="fill:#c42424;fill-rule:nonzero;"/><path id="path222" serif:id="path22" d="M73.142,86.984C73.142,92.145 68.593,92.463 67.675,92.474L8.988,92.474C3.846,92.474 3.536,87.894 3.526,86.984L3.526,9.017C3.526,3.851 8.083,3.538 8.988,3.527L48.633,3.527L48.654,3.548L48.654,19.019C48.654,22.124 50.531,28.002 57.64,28.002L73.01,28.002L73.142,28.134L73.142,86.984ZM69.498,24.475L57.641,24.475C52.5,24.475 52.189,19.92 52.182,19.019L52.182,7.088L69.498,24.475ZM76.668,86.984L76.668,26.678L52.182,2.09L52.182,1.976L52.065,1.976L50.099,0L8.988,0C5.879,0 0,1.885 0,9.017L0,86.985C0,90.103 1.879,96.001 8.988,96.001L67.681,96.001C70.789,96 76.668,94.116 76.668,86.984" style="fill-rule:nonzero;"/></g></svg>