<?xml version="1.0" encoding="UTF-8" standalone="no"?>
<svg
   width="23.527773"
   height="30"
   viewBox="0 0 23.527773 30"
   version="1.1"
   xml:space="preserve"
   style="clip-rule:evenodd;fill-rule:evenodd;stroke-linejoin:round;stroke-miterlimit:2"
   id="svg6791"
   sodipodi:docname="Rezepthelferlein.svg"
   inkscape:version="1.1 (c68e22c387, 2021-05-23)"
   xmlns:inkscape="http://www.inkscape.org/namespaces/inkscape"
   xmlns:sodipodi="http://sodipodi.sourceforge.net/DTD/sodipodi-0.dtd"
   xmlns="http://www.w3.org/2000/svg"
   xmlns:svg="http://www.w3.org/2000/svg"
   xmlns:serif="http://www.serif.com/"><defs
     id="defs6795" /><sodipodi:namedview
     id="namedview6793"
     pagecolor="#ffffff"
     bordercolor="#666666"
     borderopacity="1.0"
     inkscape:pageshadow="2"
     inkscape:pageopacity="0.0"
     inkscape:pagecheckerboard="0"
     showgrid="false"
     fit-margin-top="0"
     fit-margin-left="0"
     fit-margin-right="0"
     fit-margin-bottom="0"
     inkscape:zoom="2.9239766"
     inkscape:cx="66.861"
     inkscape:cy="30.609"
     inkscape:current-layer="svg6791" /><g
     id="Formularhelfer"
     transform="matrix(0.17577722,0,0,0.17577722,3.5156115e-4,1.0657515e-4)"><g
       id="g6778"><g
         id="g6772"><path
           d="m 108.145,113.697 c 1.245,0.332 2.315,0.954 3.21,1.866 0.895,0.913 1.498,1.999 1.81,3.26 0.299,1.206 0.265,2.421 -0.1,3.646 -0.366,1.224 -1.029,2.246 -1.99,3.066 l -26.552,6.574 c -1.26,0.312 -2.482,0.367 -3.666,0.166 -1.184,-0.201 -2.272,-0.601 -3.264,-1.199 -0.991,-0.598 -1.852,-1.373 -2.582,-2.327 -0.731,-0.953 -1.252,-2.06 -1.564,-3.321 l -3.663,-14.796 -24.43,12.329 -4.252,27.575 c -0.564,0.78 -1.236,1.47 -2.018,2.07 -0.782,0.601 -1.639,1.017 -2.57,1.247 -1.699,0.421 -3.236,0.205 -4.61,-0.647 -1.374,-0.852 -2.272,-2.127 -2.692,-3.826 -0.041,-0.165 0.043,-1.116 0.253,-2.855 0.209,-1.738 0.495,-3.874 0.856,-6.406 0.362,-2.533 0.759,-5.277 1.19,-8.234 0.431,-2.957 0.855,-5.766 1.272,-8.428 0.417,-2.663 0.785,-4.993 1.105,-6.992 0.319,-1.998 0.555,-3.278 0.707,-3.839 0.193,-0.862 0.472,-1.615 0.837,-2.257 0.364,-0.643 0.889,-1.224 1.575,-1.743 L 53.57,95.888 c 0.291,-1.177 0.957,-2.243 2,-3.199 1.043,-0.956 2.226,-1.816 3.549,-2.58 1.323,-0.764 2.69,-1.408 4.102,-1.932 1.412,-0.524 2.638,-0.915 3.679,-1.173 1.096,-0.271 2.401,-0.521 3.915,-0.751 1.513,-0.229 3.033,-0.315 4.56,-0.256 1.527,0.058 2.991,0.277 4.394,0.657 1.403,0.379 2.534,1.015 3.395,1.907 l 7.307,29.512 z"
           style="fill:#0078d7;fill-rule:nonzero;stroke:#000000;stroke-width:4.17px"
           id="path6768" /><path
           d="m 125.901,109.301 5.862,23.675 c -1.645,0.407 -3.257,0.472 -4.838,0.194 -1.581,-0.277 -3.038,-0.818 -4.371,-1.622 -1.334,-0.804 -2.492,-1.84 -3.475,-3.109 -0.983,-1.269 -1.678,-2.726 -2.085,-4.37 l -5.919,1.466 -2.93,-11.838 z m -96.852,39.421 12.053,1.814 -2.773,18.049 -24.023,-3.65 c 0.361,-2.532 1.356,-4.683 2.982,-6.453 1.627,-1.769 3.673,-2.959 6.14,-3.57 1.479,-0.366 3.061,-0.438 4.745,-0.215 z"
           style="fill:#d48c00;fill-rule:nonzero;stroke:#000000;stroke-width:4.17px"
           id="path6770" /></g><path
         d="m 62.973,44.817 c 2.484,0 4.813,0.734 6.987,2.202 2.174,1.468 3.656,3.415 4.446,5.843 l 12.957,40.65 H 50.778 L 41.293,66.581 h -2.54 c -0.113,-0.508 -0.325,-1.129 -0.635,-1.863 -0.311,-0.734 -0.621,-1.482 -0.932,-2.244 -0.31,-0.762 -0.579,-1.482 -0.804,-2.16 -0.226,-0.677 -0.339,-1.213 -0.339,-1.609 0,-0.734 0.113,-1.312 0.339,-1.736 0.225,-0.423 0.494,-0.804 0.804,-1.143 0.311,-0.339 0.649,-0.692 1.016,-1.059 0.367,-0.367 0.692,-0.832 0.974,-1.397 0.621,-1.298 1.285,-2.484 1.99,-3.557 0.706,-1.072 1.511,-1.976 2.414,-2.71 0.903,-0.734 1.934,-1.298 3.091,-1.693 1.157,-0.396 2.527,-0.593 4.107,-0.593 z"
         style="fill:#f03a17;fill-rule:nonzero;stroke:#000000;stroke-width:4.17px"
         id="path6774" /><path
         d="m 38.668,57.012 c 0,1.693 0.297,3.317 0.889,4.869 0.593,1.553 1.172,3.119 1.736,4.7 l -11.432,7.622 c -1.017,0.678 -2.146,1.016 -3.388,1.016 -1.242,0 -2.371,-0.338 -3.387,-1.016 L 4.793,62.008 c -1.806,-1.185 -2.71,-2.851 -2.71,-4.996 0,-1.638 0.607,-3.063 1.821,-4.277 1.214,-1.214 2.64,-1.821 4.277,-1.821 1.242,0 2.371,0.339 3.387,1.016 l 14.905,9.909 12.703,-8.469 c -0.339,1.186 -0.508,2.4 -0.508,3.642 z"
         style="fill:#ffc83d;fill-rule:nonzero;stroke:#000000;stroke-width:4.17px"
         id="path6776" /></g><g
       id="g6782"><path
         id="green-back"
         serif:id="green back"
         d="M 65.672,107.089 11.894,40.826 58.886,2.689 112.664,68.952 Z"
         style="fill:#f9c4c7;fill-rule:nonzero;stroke:#000000;stroke-width:2.08px" /><path
         id="path5953"
         d="m 108.263,74.62 -41.736,33.872 c -0.666,0.54 -1.659,0.436 -2.2,-0.23 L 10.063,41.4 C 9.524,40.734 9.627,39.742 10.292,39.201 L 57.148,1.174 c 0.666,-0.54 1.658,-0.437 2.199,0.229 l 54.264,66.862 c 0.54,0.666 0.438,1.659 -0.228,2.2 l -3.021,2.452 c -0.145,0.18 -0.303,0.354 -0.472,0.524 -0.498,0.498 -1.04,0.891 -1.627,1.179 z M 78.7,63.024 92.537,80.075 89.799,82.297 74.158,63.024 H 71.782 L 88.367,83.46 85.628,85.682 67.24,63.024 H 62.719 V 55.659 L 61.855,56.36 37.63,26.511 57.399,10.467 81.624,40.316 68.565,50.914 h 4.133 l 2.099,-1.703 1.382,1.703 h 9.497 l -5.154,-6.35 2.739,-2.222 8.13,10.017 11.565,7.746 L 57.901,4.59 13.477,40.644 65.768,105.075 103.155,74.733 c -0.335,-0.144 -0.658,-0.321 -0.972,-0.53 l -1.32,-0.885 -2.433,1.975 -6.412,-7.901 -5.406,-3.622 10.331,12.729 -2.738,2.223 -12.74,-15.698 z"
         style="fill:#ffffff;fill-rule:nonzero;stroke:#000000;stroke-width:1.66px" /></g><g
       id="g6788"><path
         d="m 87.65,46.316 c 1.665,0 3.179,0.573 4.541,1.482 l 15.769,12.203 6.406,7.977 c 2.422,1.668 -12.668,13.045 -12.668,13.045 L 83.625,67.147 c 0,0 -18.496,-0.403 -22.668,-0.335 -0.938,0.015 -2.131,-1.742 -2.172,-2.403 -0.193,-3.091 -0.234,-12.849 0.389,-15.5 0.171,-0.727 2.469,-2.059 3.212,-2.126 4.642,-0.42 25.264,-0.467 25.264,-0.467 z"
         style="fill:#ffffff;fill-rule:nonzero"
         id="path6784" /><path
         d="m 87.363,50.914 c 1.242,0 2.371,0.339 3.388,1.016 l 26.541,20.529 c 1.806,1.242 2.71,2.907 2.71,4.996 0,1.694 -0.593,3.134 -1.779,4.319 -1.185,1.186 -2.625,1.779 -4.319,1.779 -1.242,0 -2.371,-0.339 -3.387,-1.017 L 85.5,63.024 H 62.719 v -12.11 z"
         style="fill:#ffc83d;fill-rule:nonzero;stroke:#000000;stroke-width:4.17px"
         id="path6786" /></g></g></svg>
