<?xml version="1.0" encoding="UTF-8" standalone="no"?>
<!-- Created with enve https://maurycyliebner.github.io -->

<svg xmlns="http://www.w3.org/2000/svg" xmlns:xlink="http://www.w3.org/1999/xlink" viewBox="0 0 48 48">
 <g transform="translate(140.233 188.648)">
  <g transform="translate(-109.802 -160.482)">
   <g transform="rotate(0)">
    <g transform="scale(5.2 5.25)">
     <g transform="skewX(0) skewY(0)">
      <g transform="translate(-140.233 -188.648)" opacity="1">
       <g>
        <g transform="translate(140.233 188.648)">
         <g transform="translate(0 0)">
          <g transform="rotate(0)">
           <g transform="scale(1 1)">
            <g transform="skewX(0) skewY(0)">
             <g transform="translate(-140.233 -188.648)" opacity="1">
              <path stroke-width="0.229718" fill="#a29f9f" stroke="none">
               <animate attributeName="d" keyTimes="0;0.15;0.295;0.35;0.65;0.725;1" keySplines="0 0 1 1;0 0 1 1;0 0 1 1;0 0 1 1;0 0 1 1;0 0 1 1" calcMode="spline" dur="8.33333s" values="M140.944 185.562C140.944 185.562 140.974 185.996 140.974 185.996C141.513 187.487 142.107 188.937 142.616 190.18C142.769 190.554 142.752 190.933 142.562 191.28C142.382 191.581 142.102 191.681 141.779 191.732C141.779 191.732 141.654 191.734 141.654 191.734C141.654 191.734 138.767 191.734 138.767 191.734C138.767 191.734 138.642 191.732 138.642 191.732C137.867 191.658 137.567 190.911 137.814 190.187C138.446 188.732 139.096 187.207 139.698 185.959C139.698 185.959 139.713 185.562 139.713 185.562C140.162 185.618 140.499 185.562 140.944 185.562Z;M140.944 185.562C140.944 185.562 140.974 185.996 140.974 185.996C141.513 187.487 142.107 188.937 142.616 190.18C142.769 190.554 142.752 190.933 142.562 191.28C142.382 191.581 142.102 191.681 141.779 191.732C141.779 191.732 141.654 191.734 141.654 191.734C141.654 191.734 138.767 191.734 138.767 191.734C138.767 191.734 138.642 191.732 138.642 191.732C137.867 191.658 137.567 190.911 137.814 190.187C138.446 188.732 139.096 187.207 139.698 185.959C139.698 185.959 139.713 185.562 139.713 185.562C140.162 185.618 140.499 185.562 140.944 185.562Z;M142.251 189.057C142.251 189.057 142.417 189.29 142.417 189.29C142.651 189.778 142.789 190.216 142.964 190.681C143.041 190.887 143.09 191.066 142.9 191.413C142.72 191.714 142.102 191.681 141.779 191.732C141.779 191.732 141.654 191.734 141.654 191.734C141.654 191.734 138.767 191.734 138.767 191.734C138.767 191.734 138.642 191.732 138.642 191.732C137.867 191.658 137.407 191.625 137.31 191.273C137.24 190.997 137.587 190.267 137.713 190.064C137.713 190.064 138.242 189.11 138.242 189.11C139.452 189.379 141.254 189.375 142.251 189.057Z;M142.772 190.382C142.772 190.382 143.001 190.545 143.001 190.545C143.119 190.652 143.085 190.699 143.134 190.868C143.177 191.013 143.218 191.116 143.028 191.463C142.848 191.764 142.102 191.681 141.779 191.732C141.779 191.732 141.654 191.734 141.654 191.734C141.654 191.734 138.767 191.734 138.767 191.734C138.767 191.734 138.642 191.732 138.642 191.732C137.867 191.658 137.884 191.724 137.657 191.513C137.627 191.422 137.461 191.268 137.427 190.955C137.427 190.955 137.656 190.456 137.656 190.456C139.155 190.805 141.565 190.822 142.772 190.382Z;M142.772 190.382C142.772 190.382 143.001 190.545 143.001 190.545C143.119 190.652 143.085 190.699 143.134 190.868C143.177 191.013 143.218 191.116 143.028 191.463C142.848 191.764 142.102 191.681 141.779 191.732C141.779 191.732 141.654 191.734 141.654 191.734C141.654 191.734 138.767 191.734 138.767 191.734C138.767 191.734 138.642 191.732 138.642 191.732C137.867 191.658 137.884 191.724 137.657 191.513C137.627 191.422 137.461 191.268 137.427 190.955C137.427 190.955 137.656 190.456 137.656 190.456C139.155 190.805 141.565 190.822 142.772 190.382Z;M140.944 185.562C140.944 185.562 140.974 185.996 140.974 185.996C141.513 187.487 142.107 188.937 142.616 190.18C142.769 190.554 142.752 190.933 142.562 191.28C142.382 191.581 142.102 191.681 141.779 191.732C141.779 191.732 141.654 191.734 141.654 191.734C141.654 191.734 138.767 191.734 138.767 191.734C138.767 191.734 138.642 191.732 138.642 191.732C137.867 191.658 137.567 190.911 137.814 190.187C138.446 188.732 139.096 187.207 139.698 185.959C139.698 185.959 139.713 185.562 139.713 185.562C140.162 185.618 140.499 185.562 140.944 185.562Z;M140.944 185.562C140.944 185.562 140.974 185.996 140.974 185.996C141.513 187.487 142.107 188.937 142.616 190.18C142.769 190.554 142.752 190.933 142.562 191.28C142.382 191.581 142.102 191.681 141.779 191.732C141.779 191.732 141.654 191.734 141.654 191.734C141.654 191.734 138.767 191.734 138.767 191.734C138.767 191.734 138.642 191.732 138.642 191.732C137.867 191.658 137.567 190.911 137.814 190.187C138.446 188.732 139.096 187.207 139.698 185.959C139.698 185.959 139.713 185.562 139.713 185.562C140.162 185.618 140.499 185.562 140.944 185.562Z" repeatCount="indefinite"/>
              </path>
             </g>
            </g>
           </g>
          </g>
         </g>
        </g>
       </g>
      </g>
     </g>
    </g>
   </g>
  </g>
 </g>
 <g transform="translate(138.992 187.889)">
  <g transform="translate(-115.018 -163.912)">
   <g transform="rotate(0)">
    <g transform="scale(5.2 5.25)">
     <g transform="skewX(0) skewY(0)">
      <g transform="translate(-138.992 -187.889)" opacity="1">
       <g>
        <g transform="translate(138.992 187.889)">
         <g transform="translate(0 0)">
          <g transform="rotate(0)">
           <g transform="scale(1 1)">
            <g transform="skewX(0) skewY(0)">
             <g transform="translate(-138.992 -187.889)" opacity="1">
              <path stroke-width="0.229718" d="M134.684 183.47C134.62 183.47 134.569 183.522 134.569 183.585L134.531 192.192C134.53 192.255 134.582 192.307 134.645 192.306L137.089 192.307C136.799 192.192 136.749 192.101 136.631 191.937C134.861 191.937 136.523 191.937 134.9 191.937L134.939 183.876L138.669 183.876C138.688 183.712 138.49 183.586 138.466 183.47L134.684 183.47ZM138.669 184.479L135.32 184.48L135.32 184.874L138.669 184.874L138.669 184.479ZM138.669 185.808L135.321 185.809L135.321 186.203L138.556 186.203L138.669 185.994L138.669 185.808ZM137.901 187.415L135.321 187.414L135.321 187.814L137.698 187.815L137.901 187.415ZM136.988 189.251L135.32 189.251L135.321 189.663L136.784 189.663L136.988 189.251ZM136.308 190.986L135.32 190.985L135.32 191.38C135.32 191.38 136.224 191.381 136.35 191.381C136.284 191.187 136.308 190.986 136.308 190.986L136.308 190.986ZM138.982 183.47L139.315 183.813L139.315 185.994C138.618 187.254 137.962 188.599 137.379 189.776L137.097 190.354L137.058 190.441C136.909 190.814 136.949 191.262 137.053 191.578C137.26 192.057 137.642 192.262 138.132 192.304L138.205 192.306L142.197 192.306L142.27 192.304C142.783 192.301 143.114 192.022 143.349 191.578C143.504 191.201 143.476 190.818 143.344 190.441L143.304 190.354L143.067 189.81C142.402 188.35 141.885 187.303 141.31 185.994L141.31 183.813L141.631 183.48L141.643 183.47L138.982 183.47ZM140.878 184.006L140.878 185.981C141.418 187.473 142.003 188.945 142.513 190.187C142.666 190.561 142.752 190.933 142.562 191.28C142.382 191.581 142.102 191.681 141.779 191.732L141.654 191.734L138.767 191.734L138.642 191.732C137.867 191.658 137.655 190.911 137.902 190.187C138.534 188.732 139.184 187.229 139.786 185.981L139.786 184.006C140.235 184.063 140.439 184.076 140.878 184.006L140.878 184.006Z" fill="#d9d9d9" stroke="none"/>
             </g>
            </g>
           </g>
          </g>
         </g>
        </g>
       </g>
      </g>
     </g>
    </g>
   </g>
  </g>
 </g>
 <defs/>
</svg>
