<?xml version="1.0" encoding="UTF-8" standalone="no"?>

<svg
   width="8.9237919mm"
   height="8.8369722mm"
   viewBox="0 0 8.9237919 8.8369722"
   version="1.1"
   id="svg1741">
 
  <g
     id="layer1"
     transform="translate(-134.53048,-183.47023)">
	
	<g
       id="Laborjournal-HTML"
       style="enable-background:new"
       transform="translate(108.02536,97.852664)">
	   
      <path
         id="Laborjournal-HTML-Icon2-8"
         style="color:#000000;shape-padding:0;shape-margin:0;inline-size:0;clip-rule:nonzero;display:inline;overflow:visible;visibility:visible;isolation:auto;mix-blend-mode:normal;color-interpolation:sRGB;color-interpolation-filters:linearRGB;solid-color:#000000;solid-opacity:1;vector-effect:none;fill:#a29f9f;fill-opacity:1;fill-rule:nonzero;stroke:none;stroke-width:0.229718;stroke-linecap:round;stroke-linejoin:round;stroke-miterlimit:4;stroke-dasharray:none;stroke-dashoffset:0;stroke-opacity:1;color-rendering:auto;image-rendering:auto;shape-rendering:auto;text-rendering:auto;nable-background:accumulate;stop-color:#000000"
         d="m 32.853131,87.70916 -1.6e-5,0.419285 c 0.53921,1.491489 1.12428,2.963744 1.63469,4.205981 0.15327,0.374017 0.23896,0.745722 0.0488,1.09281 -0.17954,0.301265 -0.46032,0.400784 -0.78285,0.451811 l -0.12473,0.0022 h -2.88743 l -0.12473,-0.0022 c -0.77549,-0.07403 -0.98755,-0.820612 -0.74071,-1.544621 0.6327,-1.455364 1.28287,-2.95804 1.88453,-4.205981 l -4e-6,-0.419285 c 0.44882,0.05664 0.647355,0 1.09243,0 z"/>
		 
      <path
         id="Laborjournal-HTML-Icon2"
         style="color:#000000;shape-padding:0;shape-margin:0;inline-size:0;clip-rule:nonzero;display:inline;overflow:visible;visibility:visible;isolation:auto;mix-blend-mode:normal;color-interpolation:sRGB;color-interpolation-filters:linearRGB;solid-color:#000000;solid-opacity:1;vector-effect:none;fill:#d9d9d9;fill-opacity:0.909804;fill-rule:nonzero;stroke:none;stroke-width:0.229718;stroke-linecap:round;stroke-linejoin:round;stroke-miterlimit:4;stroke-dasharray:none;stroke-dashoffset:0;stroke-opacity:1;color-rendering:auto;image-rendering:auto;shape-rendering:auto;text-rendering:auto;enable-background:accumulate;stop-color:#000000"
         d="m 26.658255,85.617685 c -0.0633,-3.6e-5 -0.11471,0.05116 -0.11493,0.114471 l -0.0382,8.606703 c -4e-5,0.06349 0.0514,0.114967 0.11493,0.114934 l 2.44378,7.49e-4 c -0.29013,-0.114876 -0.34059,-0.206622 -0.45776,-0.370478 -1.77069,5.99e-4 -0.10871,4.49e-4 -1.73174,2.99e-4 l 0.0397,-8.060644 h 3.72977 c 0.0192,-0.164015 -0.17916,-0.29073 -0.2036,-0.406149 z m 3.98503,1.008803 -3.34886,4.5e-4 5.8e-4,0.394646 3.34886,-4.5e-4 z m 5.8e-4,1.329071 -3.34845,5.99e-4 5.8e-4,0.394647 3.23514,-5.99e-4 0.11279,-0.208937 z m -0.76832,1.606347 -2.58013,-0.0012 v 0.400182 l 2.37706,0.0012 z m -0.91332,1.836533 -1.66727,-2.99e-4 5.7e-4,0.411722 1.46301,5.99e-4 z m -0.67958,1.734417 -0.98815,-0.0013 5.7e-4,0.395107 c 0,0 0.9034,8.98e-4 1.02994,0.001 -0.0661,-0.193848 -0.0423,-0.394841 -0.0423,-0.394841 z m 2.67405,-7.515174 0.3332,0.342437 v 2.181154 c -0.69748,1.260121 -1.35332,2.604839 -1.93616,3.781703 l -0.28164,0.578055 -0.0399,0.08747 c -0.1484,0.372589 -0.10897,0.821288 -0.005,1.136687 0.20768,0.479581 0.58975,0.684535 1.07955,0.726201 l 0.0728,0.0024 h 3.99198 l 0.0727,-0.0024 c 0.51337,-0.0026 0.8448,-0.281796 1.07955,-0.726201 0.15461,-0.377036 0.12648,-0.759729 -0.005,-1.136687 l -0.0399,-0.08747 -0.23698,-0.54403 c -0.66533,-1.459607 -1.18182,-2.506984 -1.75767,-3.815728 v -2.181154 l 0.32149,-0.332727 0.0117,-0.0097 z m 1.89642,0.53609 v 1.974673 c 0.53921,1.491489 1.12428,2.963744 1.63469,4.205981 0.15327,0.374017 0.23896,0.745722 0.0488,1.09281 -0.17954,0.301265 -0.46032,0.400784 -0.78285,0.451811 l -0.12473,0.0022 h -2.88743 l -0.12473,-0.0022 c -0.77549,-0.07403 -0.98755,-0.820612 -0.74071,-1.544621 0.6327,-1.455364 1.28287,-2.95804 1.88453,-4.205981 l -2e-5,-1.974673 c 0.44882,0.05664 0.65281,0.06947 1.09243,0 z"/>
    </g>
  </g>
</svg>
