<?xml version="1.0" encoding="UTF-8" standalone="no"?>
<svg
   width="349.85434"
   height="92.857399"
   viewBox="0 0 349.85434 92.8574"
   version="1.1"
   xml:space="preserve"
   style="clip-rule:evenodd;fill-rule:evenodd;stroke-linejoin:round;stroke-miterlimit:2"
   id="svg18858"
   sodipodi:docname="Header_Laborjournal.svg"
   inkscape:version="1.1 (c68e22c387, 2021-05-23)"
   xmlns:inkscape="http://www.inkscape.org/namespaces/inkscape"
   xmlns:sodipodi="http://sodipodi.sourceforge.net/DTD/sodipodi-0.dtd"
   xmlns="http://www.w3.org/2000/svg"
   xmlns:svg="http://www.w3.org/2000/svg"
   xmlns:serif="http://www.serif.com/"><sodipodi:namedview
   id="namedview18860"
   pagecolor="#ffffff"
   bordercolor="#666666"
   borderopacity="1.0"
   inkscape:pageshadow="2"
   inkscape:pageopacity="0.0"
   inkscape:pagecheckerboard="0"
   showgrid="false"
   inkscape:zoom="1"
   inkscape:cx="144.5"
   inkscape:cy="316.5"
   inkscape:current-layer="Header-Laborjournal"
   fit-margin-top="0"
   fit-margin-left="0"
   fit-margin-right="0"
   fit-margin-bottom="0"
   showguides="true"
   inkscape:guide-bbox="true"
   inkscape:snap-bbox="true"
   inkscape:bbox-paths="true"
   inkscape:bbox-nodes="true"
   inkscape:snap-bbox-edge-midpoints="true"
   inkscape:snap-bbox-midpoints="true"
   inkscape:object-paths="true"
   inkscape:snap-intersection-paths="true"
   inkscape:snap-smooth-nodes="true"
   inkscape:snap-midpoints="true"
   inkscape:snap-others="false"
   inkscape:snap-object-midpoints="false"
   inkscape:snap-center="false"
   inkscape:snap-text-baseline="false"
   inkscape:snap-global="true"
   inkscape:snap-nodes="true"
   inkscape:snap-grids="false"
   inkscape:snap-to-guides="true"
   inkscape:snap-page="true" />
    <g
   id="Header-Laborjournal"
   serif:id="Header Laborjournal"
   transform="translate(-297.86649,-831.82515)">
                <g
   id="Laborjournal"
   transform="matrix(0.36483,0,0,1.00377,193.096,-360.542)"
   style="display:inline">
                    
                    <rect
   x="861.74524"
   y="1106.0416"
   width="518.35797"
   height="80.299004"
   style="clip-rule:evenodd;display:inline;mix-blend-mode:normal;fill:#000000;fill-opacity:0.732164;fill-rule:nonzero;stroke-linejoin:round;stroke-miterlimit:2;filter:url(#filter22002)"
   id="rect18797-7"
   transform="matrix(1.7896866,0,0,0.94626303,-1239.451,149.54484)" /><rect
   style="fill:#1ac2e6;fill-opacity:1;fill-rule:evenodd;stroke:none;stroke-width:0.330497;stroke-linejoin:bevel;stroke-miterlimit:0;paint-order:stroke fill markers"
   id="rect30638"
   width="929.24054"
   height="77.362358"
   x="297.07394"
   y="1189.4113"
   rx="10.96401"
   ry="3.3872302" /><rect
   x="309.68472"
   y="1193.5894"
   width="904.71802"
   height="57.542477"
   style="fill:#0a4a58;stroke-width:1.29261"
   id="rect18799" /><text
   x="296.12827"
   y="2053.6133"
   style="font-size:71.073px;font-family:FuturaBT-Medium, 'Futura Md BT', sans-serif;fill:#008f3f;fill-opacity:1;stroke-width:1.31211"
   id="text18805"
   transform="scale(1.6587204,0.60287436)">Laborjournal</text><text
   x="557.1275"
   y="2014.8315"
   style="font-size:27.3352px;font-family:FuturaBT-Book, 'Futura Bk BT', sans-serif;fill:#1ac2e6;fill-opacity:1;stroke-width:1.31211"
   id="text18803"
   transform="scale(1.6587204,0.60287436)">Addendum</text>
                </g>
                <g
   id="LaborAbruf"
   transform="matrix(0.17648099,0,0,0.17648099,267.54809,846.09481)"
   inkscape:label="Icon">
                    <path
   d="m 353.44604,227.72571 c -17.54394,0 -34.60579,-17.12906 -34.68963,-33.73397 0.25153,-54.0079 0.0419,-101.788962 0,-157.033845 0,-17.150025 17.14569,-34.300049 34.68963,-34.300049 54.97939,0.1257948 101.00865,0.1467606 157.62296,0 17.14569,-0.041932 33.34816,17.150024 33.34816,34.300049 0,16.898435 0.021,140.030575 -0.16769,157.033845 -0.2096,16.60491 -16.03478,33.73397 -33.18047,33.73397 -54.45538,0.0629 -102.32916,0.021 -157.62296,0 z"
   style="fill:#0a4a58;fill-opacity:1;fill-rule:nonzero;stroke:#1ac2e6;stroke-width:18.4097;stroke-miterlimit:2;stroke-dasharray:none;stroke-opacity:1;paint-order:stroke fill markers"
   id="path18815"
   sodipodi:nodetypes="cccccsccc" />
                    
                    <g
   id="g46173"
   transform="translate(-5.8026902,1.2621644)"><g
     id="Reagenzkolben"
     transform="matrix(0.197182,0,0,0.208759,155.506,23.0964)"
     style="stroke:#1ac2e6;stroke-width:6.80976;stroke-miterlimit:2;stroke-dasharray:none;stroke-opacity:1">
                        <path
   d="m 1533.92,90.559 26.93,26.747 v 170.361 c -56.38,98.423 -109.39,203.453 -156.5,295.373 l -22.77,45.15 -3.22,6.832 c -12,29.101 -8.81,64.147 -0.38,88.782 16.78,37.458 47.67,53.466 87.26,56.72 l 5.89,0.188 h 322.69 l 5.87,-0.188 c 41.5,-0.205 68.29,-22.01 87.27,-56.72 12.5,-29.449 10.22,-59.34 -0.38,-88.782 l -3.22,-6.832 -19.16,-42.492 C 1810.41,471.694 1768.66,389.887 1722.11,287.667 V 117.306 l 25.99,-25.988 0.94,-0.759 z m 163.13,39.779 v 156.327 c 44.31,120.336 84.56,216.815 129.9,322.948 l 2.78,5.564 c 12.39,29.213 8.94,58.245 -6.43,85.355 -14.51,23.53 -37.21,31.303 -63.28,35.289 l -10.08,0.171 h -233.4 l -10.09,-0.171 c -62.68,-5.782 -89.66,-64.095 -69.71,-120.644 l 2.78,-5.564 c 46.15,-106.689 98.05,-219.034 149.56,-321.946 V 131.34 c 36.28,4.425 72.43,4.425 107.97,-1.002 z"
   style="fill:#0a4a58;stroke:#1ac2e6;stroke-width:6.80976;stroke-miterlimit:2;stroke-dasharray:none;stroke-opacity:1"
   id="path18818" />
                        <path
   d="m 1533.92,90.559 26.93,26.747 v 170.361 c -66.9995,120.90231 -129.8598,242.57894 -182.49,347.355 -12,29.101 -8.81,64.147 -0.38,88.782 16.78,37.458 42.8438,56.81401 87.26,56.72 116.1899,0.0564 209.3104,10e-6 334.45,0 41.5,-0.205 68.29,-22.01 87.27,-56.72 12.5,-29.449 10.22,-59.34 -0.38,-88.782 C 1837.6627,529.95239 1783.024,407.7755 1722.11,287.667 V 117.306 l 25.99,-25.988 0.94,-0.759 z m 163.13,39.779 v 156.327 c 37.2355,98.17728 84.764,213.71198 132.68,328.512 19.1272,55.45806 -9.2287,114.26372 -69.71,120.644 -87.8086,0.15598 -178.21,0.35006 -253.57,0 -62.68,-5.782 -89.66,-64.095 -69.71,-120.644 51.1337,-113.63909 103.6795,-229.98235 152.34,-327.51 V 131.34 c 36.28,4.425 72.43,4.425 107.97,-1.002 z"
   style="fill:#1ac2e6;fill-opacity:1;stroke:#1ac2e6;stroke-width:6.80976;stroke-miterlimit:2;stroke-dasharray:none;stroke-opacity:1"
   id="path18820"
   sodipodi:nodetypes="ccccccccccccccccccccccc" />
                    </g><g
     id="path6050"
     transform="matrix(1.80678,0,0,1.80678,-156.688,-495.506)"
     style="stroke:#1ac2e6;stroke-width:0.282172;stroke-miterlimit:2;stroke-dasharray:none;stroke-opacity:1">
                        
                        
                    <path
   d="m 283.74291,284.03645 c -0.717,0 -1.308,0.589 -1.31,1.306 v 104.57015 10e-4 c 0,0.718 1.31,1.31 1.31,1.31 v 0 h 67.683 0.001 c 0.718,0 1.312,-1.314 1.312,-2.424 0,-1.103 -0.595,-2.414 -1.313,-2.414 h -63.023 l -0.001,-97.44715 c 21.76688,0.046 40.06517,0.0815 63.023,0.132 0.717,0 1.313,-1.414 1.313,-2.588 0,-1.174 -0.595,-2.446 -1.312,-2.446 z m 45.70309,13.45755 -30.813,0.055 0.006,6.116 30.813,-0.055 z m -0.005,17.503 -30.798,0.087 0.006,5.792 30.797,-0.086 z m -9.037,18.56774 h -21.775 l 0.01,5.68264 h 21.781 z m -7.417,17.62626 -14.348,0.055 0.005,6.377 14.343,-0.05 z m -3.026,20.08 -11.301,0.083 -0.011,5.882 11.301,-0.087 z"
   style="fill:#1ac2e6;fill-opacity:1;fill-rule:nonzero;stroke:#1ac2e6;stroke-width:0.282172;stroke-miterlimit:2;stroke-dasharray:none;stroke-opacity:1"
   id="path44185"
   sodipodi:nodetypes="sccssccssscccsssccccccccccccccccccccccccc" /></g></g>
                </g>
            </g>
    <defs
   id="defs18856">
        <radialGradient
   id="_Radial1"
   cx="0"
   cy="0"
   r="1"
   gradientUnits="userSpaceOnUse"
   gradientTransform="matrix(518.358,0,0,114.694,858.376,1155.22)"><stop
     offset="0"
     style="stop-color:rgb(0,193,234);stop-opacity:1"
     id="stop18834" /><stop
     offset="0.23"
     style="stop-color:rgb(41,204,238);stop-opacity:1"
     id="stop18836" /><stop
     offset="0.49"
     style="stop-color:rgb(146,232,250);stop-opacity:1"
     id="stop18838" /><stop
     offset="0.76"
     style="stop-color:rgb(58,204,235);stop-opacity:1"
     id="stop18840" /><stop
     offset="1"
     style="stop-color:rgb(26,194,230);stop-opacity:1"
     id="stop18842" /></radialGradient>
        <radialGradient
   id="_Radial2"
   cx="0"
   cy="0"
   r="1"
   gradientUnits="userSpaceOnUse"
   gradientTransform="matrix(513.77812,0,0,105.43854,862.95588,1155.2889)"><stop
     offset="0"
     style="stop-color:rgb(0,193,234);stop-opacity:1"
     id="stop18845" /><stop
     offset="0.23"
     style="stop-color:rgb(41,204,238);stop-opacity:1"
     id="stop18847" /><stop
     offset="0.49"
     style="stop-color:rgb(146,232,250);stop-opacity:1"
     id="stop18849" /><stop
     offset="0.76"
     style="stop-color:rgb(58,204,235);stop-opacity:1"
     id="stop18851" /><stop
     offset="1"
     style="stop-color:rgb(26,194,230);stop-opacity:1"
     id="stop18853" /></radialGradient>
    
                        
                    <radialGradient
   id="_Radial2-7"
   cx="0"
   cy="0"
   r="1"
   gradientUnits="userSpaceOnUse"
   gradientTransform="matrix(518.358,0,0,114.694,861.74525,1163.3816)"><stop
     offset="0"
     style="stop-color:rgb(0,193,234);stop-opacity:1"
     id="stop18845-4" /><stop
     offset="0.23"
     style="stop-color:rgb(41,204,238);stop-opacity:1"
     id="stop18847-0" /><stop
     offset="0.49"
     style="stop-color:rgb(146,232,250);stop-opacity:1"
     id="stop18849-8" /><stop
     offset="0.76"
     style="stop-color:rgb(58,204,235);stop-opacity:1"
     id="stop18851-1" /><stop
     offset="1"
     style="stop-color:rgb(26,194,230);stop-opacity:1"
     id="stop18853-8" /></radialGradient><filter
   inkscape:collect="always"
   style="color-interpolation-filters:sRGB"
   id="filter22002"
   x="-0.016844619"
   y="-0.10873787"
   width="1.0336892"
   height="1.2174757"><feGaussianBlur
     inkscape:collect="always"
     stdDeviation="3.6381428"
     id="feGaussianBlur22004" /></filter>
        
    
            
        
                                    
                                    
                                
                            
                        
                        
                    
                                
                                
                                
                            
                                    
                                </defs>
</svg>
