<?xml version="1.0" encoding="UTF-8" standalone="no"?>
<!DOCTYPE svg PUBLIC "-//W3C//DTD SVG 1.1//EN" "http://www.w3.org/Graphics/SVG/1.1/DTD/svg11.dtd">
<svg width="100%" height="100%" viewBox="0 0 896 226" version="1.1" xmlns="http://www.w3.org/2000/svg" xmlns:xlink="http://www.w3.org/1999/xlink" xml:space="preserve" xmlns:serif="http://www.serif.com/" style="fill-rule:evenodd;clip-rule:evenodd;stroke-linejoin:round;stroke-miterlimit:2;">
    <g transform="matrix(0.48,0,0,0.48,-175.985,-2671.67)">
        <g transform="matrix(1,0,0,1,54.382,-286.205)">
            <g id="Brief-und-dia" serif:id="Brief und dia" transform="matrix(1,0,0,1,15.1331,466.163)">
                <g id="dia-Spastische" serif:id="dia Spastische" transform="matrix(1.03886,0,0,0.647805,-83.8351,2250.03)">
                    <rect x="476.648" y="5487.9" width="1684.67" height="75.574" style="fill:white;fill-rule:nonzero;stroke:black;stroke-width:1.93px;"/>
                    <rect x="368.528" y="5487.9" width="108.119" height="75.574" style="fill:white;fill-rule:nonzero;stroke:black;stroke-width:1.93px;"/>
                    <g transform="matrix(1,0,0,1,0,-12.864)">
                        <path d="M397.46,5552.65L393.371,5552.65L393.371,5548.73C392.692,5550.25 391.891,5551.39 390.966,5552.13C390.042,5552.88 389.11,5553.25 388.17,5553.25C386.258,5553.25 384.621,5552.01 383.258,5549.54C381.895,5547.07 381.213,5543.63 381.213,5539.2C381.213,5534.68 381.877,5531.24 383.203,5528.89C384.53,5526.54 386.206,5525.36 388.232,5525.36C390.092,5525.36 391.7,5526.6 393.058,5529.08L393.058,5515.81L397.46,5515.81L397.46,5552.65ZM385.71,5538.73C385.71,5541.57 385.955,5543.64 386.446,5544.91C387.157,5546.75 388.149,5547.67 389.423,5547.67C390.436,5547.67 391.298,5546.98 392.008,5545.6C392.718,5544.22 393.074,5542.15 393.074,5539.41C393.074,5536.34 392.729,5534.13 392.04,5532.78C391.35,5531.44 390.468,5530.76 389.392,5530.76C388.347,5530.76 387.473,5531.43 386.768,5532.76C386.062,5534.09 385.71,5536.08 385.71,5538.73Z" style="fill:rgb(55,32,132);fill-rule:nonzero;"/>
                        <path d="M401.8,5522.35L401.8,5515.81L406.203,5515.81L406.203,5522.35L401.8,5522.35ZM401.8,5552.65L401.8,5525.96L406.203,5525.96L406.203,5552.65L401.8,5552.65Z" style="fill:rgb(55,32,132);fill-rule:nonzero;"/>
                        <path d="M414.005,5534.1L410.01,5532.95C410.459,5530.37 411.232,5528.46 412.329,5527.22C413.425,5525.98 415.055,5525.36 417.217,5525.36C419.18,5525.36 420.643,5525.73 421.604,5526.48C422.565,5527.22 423.241,5528.17 423.633,5529.32C424.024,5530.47 424.22,5532.57 424.22,5535.64L424.173,5543.88C424.173,5546.22 424.244,5547.95 424.385,5549.07C424.526,5550.18 424.789,5551.37 425.176,5552.65L420.82,5552.65C420.705,5552.18 420.564,5551.48 420.397,5550.56C420.324,5550.14 420.272,5549.87 420.241,5549.73C419.489,5550.9 418.684,5551.78 417.828,5552.37C416.971,5552.96 416.057,5553.25 415.086,5553.25C413.373,5553.25 412.023,5552.5 411.036,5551.01C410.049,5549.52 409.556,5547.64 409.556,5545.36C409.556,5543.85 409.78,5542.51 410.229,5541.33C410.678,5540.15 411.308,5539.24 412.117,5538.61C412.927,5537.99 414.094,5537.44 415.619,5536.97C417.676,5536.35 419.102,5535.77 419.896,5535.23L419.896,5534.53C419.896,5533.18 419.687,5532.21 419.269,5531.63C418.851,5531.05 418.063,5530.76 416.903,5530.76C416.12,5530.76 415.509,5531.01 415.07,5531.5C414.632,5532 414.277,5532.86 414.005,5534.1ZM419.896,5539.83C419.332,5540.13 418.439,5540.49 417.217,5540.91C415.995,5541.33 415.196,5541.74 414.82,5542.14C414.245,5542.8 413.958,5543.63 413.958,5544.63C413.958,5545.62 414.188,5546.47 414.647,5547.19C415.107,5547.91 415.692,5548.28 416.402,5548.28C417.196,5548.28 417.953,5547.86 418.674,5547.02C419.207,5546.38 419.556,5545.6 419.724,5544.68C419.838,5544.08 419.896,5542.93 419.896,5541.24L419.896,5539.83Z" style="fill:rgb(55,32,132);fill-rule:nonzero;"/>
                    </g>
                    <g transform="matrix(1,0,0,1,45.7233,-12.864)">
                        <g id="spast.Parese">
                            <path d="M447.474,5540.66L451.986,5539.96C452.258,5542.39 452.809,5544.17 453.639,5545.31C454.47,5546.45 455.59,5547.02 457,5547.02C458.493,5547.02 459.619,5546.51 460.376,5545.5C461.133,5544.48 461.512,5543.3 461.512,5541.94C461.512,5541.07 461.353,5540.33 461.034,5539.72C460.716,5539.11 460.159,5538.58 459.366,5538.12C458.823,5537.82 457.585,5537.29 455.653,5536.52C453.167,5535.53 451.422,5534.31 450.42,5532.87C449.01,5530.85 448.305,5528.38 448.305,5525.46C448.305,5523.59 448.636,5521.83 449.299,5520.2C449.963,5518.56 450.918,5517.32 452.167,5516.47C453.415,5515.61 454.921,5515.19 456.687,5515.19C459.569,5515.19 461.739,5516.2 463.196,5518.23C464.653,5520.25 465.418,5522.96 465.492,5526.34L460.854,5526.67C460.656,5524.77 460.23,5523.41 459.577,5522.58C458.924,5521.76 457.945,5521.34 456.64,5521.34C455.292,5521.34 454.237,5521.78 453.475,5522.67C452.984,5523.24 452.738,5524 452.738,5524.96C452.738,5525.83 452.968,5526.57 453.428,5527.19C454.013,5527.98 455.433,5528.8 457.689,5529.66C459.945,5530.51 461.614,5531.4 462.695,5532.31C463.776,5533.22 464.622,5534.47 465.233,5536.05C465.844,5537.63 466.15,5539.59 466.15,5541.92C466.15,5544.03 465.784,5546.01 465.053,5547.85C464.322,5549.69 463.288,5551.06 461.951,5551.95C460.614,5552.85 458.948,5553.3 456.953,5553.3C454.049,5553.3 451.819,5552.22 450.263,5550.07C448.707,5547.92 447.777,5544.78 447.474,5540.66Z" style="fill:rgb(55,32,132);fill-rule:nonzero;"/>
                            <path d="M469.894,5525.96L473.999,5525.96L473.999,5529.88C474.532,5528.54 475.252,5527.45 476.161,5526.62C477.07,5525.78 478.078,5525.36 479.185,5525.36C481.117,5525.36 482.757,5526.57 484.104,5529C485.452,5531.43 486.125,5534.82 486.125,5539.15C486.125,5543.61 485.446,5547.07 484.089,5549.54C482.731,5552.01 481.086,5553.25 479.153,5553.25C478.234,5553.25 477.401,5552.96 476.654,5552.37C475.908,5551.78 475.122,5550.78 474.297,5549.36L474.297,5562.8L469.894,5562.8L469.894,5525.96ZM474.25,5538.85C474.25,5541.85 474.62,5544.07 475.362,5545.5C476.103,5546.93 477.007,5547.65 478.072,5547.65C479.096,5547.65 479.947,5546.99 480.626,5545.67C481.305,5544.36 481.644,5542.2 481.644,5539.2C481.644,5536.41 481.295,5534.33 480.595,5532.97C479.895,5531.62 479.028,5530.94 477.994,5530.94C476.918,5530.94 476.025,5531.6 475.315,5532.94C474.605,5534.27 474.25,5536.24 474.25,5538.85Z" style="fill:rgb(55,32,132);fill-rule:nonzero;"/>
                            <path d="M492.909,5534.1L488.914,5532.95C489.363,5530.37 490.136,5528.46 491.233,5527.22C492.33,5525.98 493.959,5525.36 496.121,5525.36C498.085,5525.36 499.547,5525.73 500.508,5526.48C501.469,5527.22 502.145,5528.17 502.537,5529.32C502.928,5530.47 503.124,5532.57 503.124,5535.64L503.077,5543.88C503.077,5546.22 503.148,5547.95 503.289,5549.07C503.43,5550.18 503.694,5551.37 504.08,5552.65L499.724,5552.65C499.61,5552.18 499.469,5551.48 499.301,5550.56C499.228,5550.14 499.176,5549.87 499.145,5549.73C498.393,5550.9 497.589,5551.78 496.732,5552.37C495.876,5552.96 494.962,5553.25 493.99,5553.25C492.277,5553.25 490.927,5552.5 489.94,5551.01C488.953,5549.52 488.46,5547.64 488.46,5545.36C488.46,5543.85 488.684,5542.51 489.133,5541.33C489.583,5540.15 490.212,5539.24 491.021,5538.61C491.831,5537.99 492.998,5537.44 494.523,5536.97C496.581,5536.35 498.006,5535.77 498.8,5535.23L498.8,5534.53C498.8,5533.18 498.591,5532.21 498.173,5531.63C497.756,5531.05 496.967,5530.76 495.808,5530.76C495.024,5530.76 494.413,5531.01 493.975,5531.5C493.536,5532 493.181,5532.86 492.909,5534.1ZM498.8,5539.83C498.236,5540.13 497.343,5540.49 496.121,5540.91C494.899,5541.33 494.1,5541.74 493.724,5542.14C493.149,5542.8 492.862,5543.63 492.862,5544.63C492.862,5545.62 493.092,5546.47 493.552,5547.19C494.011,5547.91 494.596,5548.28 495.306,5548.28C496.1,5548.28 496.857,5547.86 497.578,5547.02C498.111,5546.38 498.461,5545.6 498.628,5544.68C498.743,5544.08 498.8,5542.93 498.8,5541.24L498.8,5539.83Z" style="fill:rgb(55,32,132);fill-rule:nonzero;"/>
                            <path d="M505.913,5545.03L510.331,5543.95C510.519,5545.33 510.9,5546.37 511.475,5547.08C512.049,5547.79 512.854,5548.15 513.888,5548.15C515.026,5548.15 515.883,5547.81 516.457,5547.14C516.844,5546.68 517.037,5546.05 517.037,5545.26C517.037,5544.72 516.932,5544.28 516.723,5543.93C516.504,5543.59 516.013,5543.28 515.251,5543C511.699,5541.74 509.449,5540.6 508.498,5539.56C507.182,5538.12 506.524,5536.11 506.524,5533.55C506.524,5531.24 507.093,5529.3 508.232,5527.72C509.37,5526.15 511.135,5525.36 513.527,5525.36C515.804,5525.36 517.496,5525.95 518.604,5527.15C519.711,5528.33 520.473,5530.09 520.891,5532.42L516.739,5533.65C516.562,5532.61 516.225,5531.82 515.729,5531.27C515.232,5530.71 514.525,5530.44 513.606,5530.44C512.446,5530.44 511.616,5530.7 511.115,5531.22C510.78,5531.58 510.613,5532.06 510.613,5532.65C510.613,5533.15 510.759,5533.58 511.052,5533.93C511.449,5534.4 512.82,5535.06 515.165,5535.91C517.509,5536.77 519.147,5537.81 520.076,5539.05C520.995,5540.31 521.455,5542.06 521.455,5544.31C521.455,5546.75 520.818,5548.85 519.544,5550.61C518.269,5552.37 516.384,5553.25 513.888,5553.25C511.621,5553.25 509.827,5552.51 508.506,5551.04C507.185,5549.56 506.32,5547.56 505.913,5545.03Z" style="fill:rgb(55,32,132);fill-rule:nonzero;"/>
                            <path d="M532.939,5525.96L532.939,5531.59L529.931,5531.59L529.931,5542.35C529.931,5544.52 529.96,5545.79 530.017,5546.15C530.075,5546.51 530.205,5546.81 530.409,5547.04C530.612,5547.28 530.861,5547.4 531.153,5547.4C531.56,5547.4 532.15,5547.17 532.923,5546.72L533.299,5552.19C532.276,5552.9 531.116,5553.25 529.821,5553.25C529.027,5553.25 528.312,5553.04 527.675,5552.61C527.038,5552.18 526.57,5551.63 526.273,5550.95C525.975,5550.27 525.769,5549.36 525.654,5548.2C525.56,5547.38 525.513,5545.72 525.513,5543.23L525.513,5531.59L523.492,5531.59L523.492,5525.96L525.513,5525.96L525.513,5520.66L529.931,5516.54L529.931,5525.96L532.939,5525.96Z" style="fill:rgb(55,32,132);fill-rule:nonzero;"/>
                            <path d="M535.994,5522.35L535.994,5515.81L540.397,5515.81L540.397,5522.35L535.994,5522.35ZM535.994,5552.65L535.994,5525.96L540.397,5525.96L540.397,5552.65L535.994,5552.65Z" style="fill:rgb(55,32,132);fill-rule:nonzero;"/>
                            <path d="M543.358,5545.03L547.776,5543.95C547.964,5545.33 548.345,5546.37 548.92,5547.08C549.494,5547.79 550.298,5548.15 551.332,5548.15C552.471,5548.15 553.327,5547.81 553.902,5547.14C554.288,5546.68 554.482,5546.05 554.482,5545.26C554.482,5544.72 554.377,5544.28 554.168,5543.93C553.949,5543.59 553.458,5543.28 552.695,5543C549.144,5541.74 546.893,5540.6 545.943,5539.56C544.627,5538.12 543.969,5536.11 543.969,5533.55C543.969,5531.24 544.538,5529.3 545.677,5527.72C546.815,5526.15 548.58,5525.36 550.972,5525.36C553.249,5525.36 554.941,5525.95 556.048,5527.15C557.155,5528.33 557.918,5530.09 558.336,5532.42L554.184,5533.65C554.006,5532.61 553.669,5531.82 553.173,5531.27C552.677,5530.71 551.97,5530.44 551.05,5530.44C549.891,5530.44 549.061,5530.7 548.559,5531.22C548.225,5531.58 548.058,5532.06 548.058,5532.65C548.058,5533.15 548.204,5533.58 548.497,5533.93C548.894,5534.4 550.264,5535.06 552.609,5535.91C554.954,5536.77 556.591,5537.81 557.521,5539.05C558.44,5540.31 558.9,5542.06 558.9,5544.31C558.9,5546.75 558.263,5548.85 556.988,5550.61C555.714,5552.37 553.829,5553.25 551.332,5553.25C549.066,5553.25 547.272,5552.51 545.951,5551.04C544.629,5549.56 543.765,5547.56 543.358,5545.03Z" style="fill:rgb(55,32,132);fill-rule:nonzero;"/>
                            <path d="M577.262,5533.85L572.922,5535.11C572.776,5533.72 572.444,5532.67 571.927,5531.97C571.41,5531.27 570.739,5530.91 569.914,5530.91C568.817,5530.91 567.942,5531.52 567.29,5532.73C566.637,5533.95 566.31,5535.98 566.31,5538.83C566.31,5541.99 566.642,5544.23 567.305,5545.54C567.968,5546.84 568.859,5547.5 569.976,5547.5C570.812,5547.5 571.496,5547.11 572.029,5546.35C572.562,5545.59 572.938,5544.28 573.157,5542.42L577.481,5543.6C577.032,5546.78 576.17,5549.19 574.896,5550.81C573.622,5552.44 571.914,5553.25 569.773,5553.25C567.339,5553.25 565.399,5552.02 563.952,5549.56C562.506,5547.09 561.782,5543.69 561.782,5539.33C561.782,5534.93 562.508,5531.49 563.96,5529.04C565.412,5526.59 567.376,5525.36 569.851,5525.36C571.877,5525.36 573.489,5526.06 574.684,5527.46C575.88,5528.86 576.739,5530.99 577.262,5533.85Z" style="fill:rgb(55,32,132);fill-rule:nonzero;"/>
                            <path d="M584.986,5515.81L584.986,5529.36C586.406,5526.69 588.103,5525.36 590.078,5525.36C591.091,5525.36 592.005,5525.66 592.819,5526.27C593.634,5526.87 594.248,5527.64 594.66,5528.58C595.073,5529.52 595.355,5530.55 595.506,5531.69C595.658,5532.83 595.733,5534.6 595.733,5536.99L595.733,5552.65L591.331,5552.65L591.331,5538.55C591.331,5535.75 591.247,5533.98 591.08,5533.23C590.913,5532.47 590.618,5531.87 590.195,5531.43C589.772,5530.98 589.242,5530.76 588.605,5530.76C587.874,5530.76 587.221,5531.05 586.646,5531.62C586.072,5532.19 585.652,5533.05 585.385,5534.19C585.119,5535.34 584.986,5537.03 584.986,5539.28L584.986,5552.65L580.583,5552.65L580.583,5515.81L584.986,5515.81Z" style="fill:rgb(55,32,132);fill-rule:nonzero;"/>
                            <path d="M609.834,5544.15L614.221,5545.34C613.657,5547.91 612.766,5549.88 611.55,5551.23C610.333,5552.57 608.81,5553.25 606.983,5553.25C604.089,5553.25 601.948,5551.73 600.559,5548.7C599.462,5546.27 598.914,5543.21 598.914,5539.51C598.914,5535.08 599.635,5531.62 601.076,5529.12C602.517,5526.61 604.34,5525.36 606.544,5525.36C609.019,5525.36 610.972,5526.67 612.403,5529.29C613.834,5531.91 614.518,5535.93 614.456,5541.34L603.426,5541.34C603.457,5543.43 603.813,5545.06 604.491,5546.23C605.17,5547.39 606.016,5547.97 607.03,5547.97C607.719,5547.97 608.299,5547.67 608.769,5547.07C609.239,5546.47 609.594,5545.49 609.834,5544.15ZM610.085,5537.02C610.053,5534.98 609.724,5533.42 609.098,5532.36C608.471,5531.29 607.708,5530.76 606.81,5530.76C605.849,5530.76 605.055,5531.32 604.429,5532.45C603.802,5533.57 603.494,5535.09 603.504,5537.02L610.085,5537.02Z" style="fill:rgb(55,32,132);fill-rule:nonzero;"/>
                            <path d="M626.99,5552.65L626.99,5515.81L634.432,5515.81C637.252,5515.81 639.09,5516 639.946,5516.37C641.262,5516.92 642.364,5518.12 643.252,5519.97C644.14,5521.82 644.584,5524.21 644.584,5527.15C644.584,5529.41 644.328,5531.31 643.816,5532.85C643.304,5534.39 642.654,5535.6 641.866,5536.48C641.077,5537.36 640.275,5537.94 639.461,5538.23C638.354,5538.58 636.75,5538.75 634.651,5538.75L631.627,5538.75L631.627,5552.65L626.99,5552.65ZM631.627,5522.04L631.627,5532.5L634.165,5532.5C635.993,5532.5 637.215,5532.3 637.831,5531.92C638.448,5531.53 638.931,5530.93 639.281,5530.11C639.63,5529.29 639.805,5528.33 639.805,5527.24C639.805,5525.9 639.56,5524.8 639.069,5523.93C638.578,5523.06 637.957,5522.51 637.205,5522.3C636.651,5522.13 635.539,5522.04 633.868,5522.04L631.627,5522.04Z" style="fill:rgb(55,32,132);fill-rule:nonzero;"/>
                            <path d="M651.65,5534.1L647.655,5532.95C648.104,5530.37 648.877,5528.46 649.973,5527.22C651.07,5525.98 652.7,5525.36 654.862,5525.36C656.825,5525.36 658.288,5525.73 659.248,5526.48C660.209,5527.22 660.886,5528.17 661.277,5529.32C661.669,5530.47 661.865,5532.57 661.865,5535.64L661.818,5543.88C661.818,5546.22 661.888,5547.95 662.029,5549.07C662.17,5550.18 662.434,5551.37 662.821,5552.65L658.465,5552.65C658.35,5552.18 658.209,5551.48 658.042,5550.56C657.969,5550.14 657.917,5549.87 657.885,5549.73C657.133,5550.9 656.329,5551.78 655.473,5552.37C654.616,5552.96 653.702,5553.25 652.731,5553.25C651.018,5553.25 649.668,5552.5 648.681,5551.01C647.694,5549.52 647.2,5547.64 647.2,5545.36C647.2,5543.85 647.425,5542.51 647.874,5541.33C648.323,5540.15 648.952,5539.24 649.762,5538.61C650.571,5537.99 651.739,5537.44 653.264,5536.97C655.321,5536.35 656.747,5535.77 657.541,5535.23L657.541,5534.53C657.541,5533.18 657.332,5532.21 656.914,5531.63C656.496,5531.05 655.708,5530.76 654.548,5530.76C653.765,5530.76 653.154,5531.01 652.715,5531.5C652.277,5532 651.921,5532.86 651.65,5534.1ZM657.541,5539.83C656.977,5540.13 656.084,5540.49 654.862,5540.91C653.64,5541.33 652.841,5541.74 652.465,5542.14C651.89,5542.8 651.603,5543.63 651.603,5544.63C651.603,5545.62 651.833,5546.47 652.292,5547.19C652.752,5547.91 653.337,5548.28 654.047,5548.28C654.841,5548.28 655.598,5547.86 656.319,5547.02C656.851,5546.38 657.201,5545.6 657.368,5544.68C657.483,5544.08 657.541,5542.93 657.541,5541.24L657.541,5539.83Z" style="fill:rgb(55,32,132);fill-rule:nonzero;"/>
                            <path d="M670.419,5552.65L666.017,5552.65L666.017,5525.96L670.106,5525.96L670.106,5529.76C670.806,5527.97 671.435,5526.78 671.994,5526.22C672.553,5525.65 673.187,5525.36 673.897,5525.36C674.9,5525.36 675.866,5525.81 676.796,5526.69L675.433,5532.85C674.691,5532.08 674.002,5531.69 673.365,5531.69C672.748,5531.69 672.226,5531.96 671.798,5532.51C671.37,5533.05 671.033,5534.04 670.787,5535.46C670.542,5536.89 670.419,5539.87 670.419,5544.4L670.419,5552.65Z" style="fill:rgb(55,32,132);fill-rule:nonzero;"/>
                            <path d="M681.982,5534.1L677.987,5532.95C678.436,5530.37 679.209,5528.46 680.305,5527.22C681.402,5525.98 683.031,5525.36 685.193,5525.36C687.157,5525.36 688.619,5525.73 689.58,5526.48C690.541,5527.22 691.217,5528.17 691.609,5529.32C692.001,5530.47 692.197,5532.57 692.197,5535.64L692.15,5543.88C692.15,5546.22 692.22,5547.95 692.361,5549.07C692.502,5550.18 692.766,5551.37 693.152,5552.65L688.797,5552.65C688.682,5552.18 688.541,5551.48 688.374,5550.56C688.301,5550.14 688.249,5549.87 688.217,5549.73C687.465,5550.9 686.661,5551.78 685.804,5552.37C684.948,5552.96 684.034,5553.25 683.063,5553.25C681.35,5553.25 680,5552.5 679.013,5551.01C678.026,5549.52 677.532,5547.64 677.532,5545.36C677.532,5543.85 677.757,5542.51 678.206,5541.33C678.655,5540.15 679.284,5539.24 680.094,5538.61C680.903,5537.99 682.07,5537.44 683.595,5536.97C685.653,5536.35 687.079,5535.77 687.873,5535.23L687.873,5534.53C687.873,5533.18 687.664,5532.21 687.246,5531.63C686.828,5531.05 686.039,5530.76 684.88,5530.76C684.097,5530.76 683.486,5531.01 683.047,5531.5C682.608,5532 682.253,5532.86 681.982,5534.1ZM687.873,5539.83C687.309,5540.13 686.415,5540.49 685.193,5540.91C683.971,5541.33 683.172,5541.74 682.796,5542.14C682.222,5542.8 681.935,5543.63 681.935,5544.63C681.935,5545.62 682.164,5546.47 682.624,5547.19C683.084,5547.91 683.668,5548.28 684.379,5548.28C685.173,5548.28 685.93,5547.86 686.65,5547.02C687.183,5546.38 687.533,5545.6 687.7,5544.68C687.815,5544.08 687.873,5542.93 687.873,5541.24L687.873,5539.83Z" style="fill:rgb(55,32,132);fill-rule:nonzero;"/>
                            <path d="M696.411,5525.96L700.516,5525.96L700.516,5529.88C701.049,5528.54 701.769,5527.45 702.678,5526.62C703.587,5525.78 704.595,5525.36 705.702,5525.36C707.634,5525.36 709.274,5526.57 710.621,5529C711.969,5531.43 712.642,5534.82 712.642,5539.15C712.642,5543.61 711.964,5547.07 710.606,5549.54C709.248,5552.01 707.603,5553.25 705.671,5553.25C704.751,5553.25 703.918,5552.96 703.172,5552.37C702.425,5551.78 701.639,5550.78 700.814,5549.36L700.814,5562.8L696.411,5562.8L696.411,5525.96ZM700.767,5538.85C700.767,5541.85 701.137,5544.07 701.879,5545.5C702.621,5546.93 703.524,5547.65 704.59,5547.65C705.613,5547.65 706.464,5546.99 707.143,5545.67C707.822,5544.36 708.162,5542.2 708.162,5539.2C708.162,5536.41 707.812,5534.33 707.112,5532.97C706.412,5531.62 705.545,5530.94 704.511,5530.94C703.435,5530.94 702.542,5531.6 701.832,5532.94C701.122,5534.27 700.767,5536.24 700.767,5538.85Z" style="fill:rgb(55,32,132);fill-rule:nonzero;"/>
                            <path d="M719.426,5534.1L715.431,5532.95C715.88,5530.37 716.653,5528.46 717.75,5527.22C718.847,5525.98 720.476,5525.36 722.638,5525.36C724.602,5525.36 726.064,5525.73 727.025,5526.48C727.986,5527.22 728.662,5528.17 729.054,5529.32C729.446,5530.47 729.641,5532.57 729.641,5535.64L729.594,5543.88C729.594,5546.22 729.665,5547.95 729.806,5549.07C729.947,5550.18 730.211,5551.37 730.597,5552.65L726.242,5552.65C726.127,5552.18 725.986,5551.48 725.819,5550.56C725.746,5550.14 725.693,5549.87 725.662,5549.73C724.91,5550.9 724.106,5551.78 723.249,5552.37C722.393,5552.96 721.479,5553.25 720.507,5553.25C718.794,5553.25 717.444,5552.5 716.457,5551.01C715.47,5549.52 714.977,5547.64 714.977,5545.36C714.977,5543.85 715.201,5542.51 715.651,5541.33C716.1,5540.15 716.729,5539.24 717.538,5538.61C718.348,5537.99 719.515,5537.44 721.04,5536.97C723.098,5536.35 724.523,5535.77 725.317,5535.23L725.317,5534.53C725.317,5533.18 725.108,5532.21 724.691,5531.63C724.273,5531.05 723.484,5530.76 722.325,5530.76C721.541,5530.76 720.93,5531.01 720.492,5531.5C720.053,5532 719.698,5532.86 719.426,5534.1ZM725.317,5539.83C724.753,5540.13 723.86,5540.49 722.638,5540.91C721.416,5541.33 720.617,5541.74 720.241,5542.14C719.667,5542.8 719.379,5543.63 719.379,5544.63C719.379,5545.62 719.609,5546.47 720.069,5547.19C720.528,5547.91 721.113,5548.28 721.823,5548.28C722.617,5548.28 723.375,5547.86 724.095,5547.02C724.628,5546.38 724.978,5545.6 725.145,5544.68C725.26,5544.08 725.317,5542.93 725.317,5541.24L725.317,5539.83Z" style="fill:rgb(55,32,132);fill-rule:nonzero;"/>
                            <path d="M738.196,5552.65L733.793,5552.65L733.793,5525.96L737.882,5525.96L737.882,5529.76C738.582,5527.97 739.212,5526.78 739.77,5526.22C740.329,5525.65 740.964,5525.36 741.674,5525.36C742.677,5525.36 743.643,5525.81 744.572,5526.69L743.209,5532.85C742.468,5532.08 741.778,5531.69 741.141,5531.69C740.525,5531.69 740.003,5531.96 739.574,5532.51C739.146,5533.05 738.809,5534.04 738.564,5535.46C738.318,5536.89 738.196,5539.87 738.196,5544.4L738.196,5552.65Z" style="fill:rgb(55,32,132);fill-rule:nonzero;"/>
                            <path d="M756.103,5544.15L760.49,5545.34C759.926,5547.91 759.036,5549.88 757.819,5551.23C756.602,5552.57 755.08,5553.25 753.252,5553.25C750.359,5553.25 748.218,5551.73 746.828,5548.7C745.732,5546.27 745.183,5543.21 745.183,5539.51C745.183,5535.08 745.904,5531.62 747.345,5529.12C748.787,5526.61 750.609,5525.36 752.813,5525.36C755.289,5525.36 757.242,5526.67 758.673,5529.29C760.104,5531.91 760.788,5535.93 760.725,5541.34L749.696,5541.34C749.727,5543.43 750.082,5545.06 750.761,5546.23C751.44,5547.39 752.286,5547.97 753.299,5547.97C753.988,5547.97 754.568,5547.67 755.038,5547.07C755.508,5546.47 755.863,5545.49 756.103,5544.15ZM756.354,5537.02C756.323,5534.98 755.994,5533.42 755.367,5532.36C754.74,5531.29 753.978,5530.76 753.08,5530.76C752.119,5530.76 751.325,5531.32 750.698,5532.45C750.072,5533.57 749.763,5535.09 749.774,5537.02L756.354,5537.02Z" style="fill:rgb(55,32,132);fill-rule:nonzero;"/>
                            <path d="M762.762,5545.03L767.18,5543.95C767.368,5545.33 767.749,5546.37 768.324,5547.08C768.898,5547.79 769.703,5548.15 770.737,5548.15C771.875,5548.15 772.732,5547.81 773.306,5547.14C773.693,5546.68 773.886,5546.05 773.886,5545.26C773.886,5544.72 773.781,5544.28 773.572,5543.93C773.353,5543.59 772.862,5543.28 772.1,5543C768.548,5541.74 766.298,5540.6 765.347,5539.56C764.031,5538.12 763.373,5536.11 763.373,5533.55C763.373,5531.24 763.942,5529.3 765.081,5527.72C766.219,5526.15 767.984,5525.36 770.376,5525.36C772.653,5525.36 774.345,5525.95 775.452,5527.15C776.56,5528.33 777.322,5530.09 777.74,5532.42L773.588,5533.65C773.411,5532.61 773.074,5531.82 772.578,5531.27C772.081,5530.71 771.374,5530.44 770.455,5530.44C769.295,5530.44 768.465,5530.7 767.964,5531.22C767.629,5531.58 767.462,5532.06 767.462,5532.65C767.462,5533.15 767.608,5533.58 767.901,5533.93C768.298,5534.4 769.669,5535.06 772.014,5535.91C774.358,5536.77 775.996,5537.81 776.925,5539.05C777.844,5540.31 778.304,5542.06 778.304,5544.31C778.304,5546.75 777.667,5548.85 776.393,5550.61C775.118,5552.37 773.233,5553.25 770.737,5553.25C768.47,5553.25 766.676,5552.51 765.355,5551.04C764.034,5549.56 763.169,5547.56 762.762,5545.03Z" style="fill:rgb(55,32,132);fill-rule:nonzero;"/>
                            <path d="M878.136,5546.09L878.136,5552.65L862.703,5552.65C862.871,5550.17 863.372,5547.82 864.207,5545.6C865.043,5543.38 866.693,5540.44 869.158,5536.77C871.143,5533.8 872.36,5531.79 872.809,5530.74C873.415,5529.28 873.718,5527.84 873.718,5526.42C873.718,5524.84 873.454,5523.63 872.926,5522.78C872.399,5521.94 871.67,5521.52 870.741,5521.52C869.822,5521.52 869.09,5521.96 868.547,5522.85C868.004,5523.74 867.691,5525.21 867.607,5527.27L863.22,5526.57C863.482,5522.68 864.301,5519.89 865.68,5518.2C867.059,5516.51 868.782,5515.66 870.85,5515.66C873.117,5515.66 874.898,5516.64 876.193,5518.6C877.488,5520.56 878.136,5523 878.136,5525.91C878.136,5527.57 877.95,5529.15 877.579,5530.65C877.209,5532.15 876.621,5533.72 875.817,5535.36C875.284,5536.45 874.323,5538.02 872.934,5540.06C871.545,5542.1 870.665,5543.46 870.294,5544.13C869.923,5544.8 869.623,5545.45 869.393,5546.09L878.136,5546.09Z" style="fill:rgb(55,32,132);fill-rule:nonzero;"/>
                            <rect x="882.052" y="5545.59" width="4.402" height="7.06" style="fill:rgb(55,32,132);fill-rule:nonzero;"/>
                            <path d="M901.292,5552.65L896.889,5552.65L896.889,5526.04C895.281,5528.45 893.385,5530.23 891.202,5531.39L891.202,5524.98C892.351,5524.38 893.599,5523.24 894.947,5521.55C896.294,5519.87 897.218,5517.91 897.72,5515.66L901.292,5515.66L901.292,5552.65Z" style="fill:rgb(55,32,132);fill-rule:nonzero;"/>
                            <path d="M907.715,5542.87L911.977,5542.04C912.113,5543.79 912.478,5545.12 913.074,5546.04C913.669,5546.96 914.39,5547.42 915.236,5547.42C916.144,5547.42 916.91,5546.87 917.531,5545.76C918.152,5544.66 918.463,5543.17 918.463,5541.29C918.463,5539.51 918.166,5538.11 917.57,5537.07C916.975,5536.03 916.249,5535.51 915.392,5535.51C914.828,5535.51 914.155,5535.69 913.371,5536.04L913.857,5530.28C915.048,5530.34 915.956,5529.92 916.583,5529.04C917.21,5528.16 917.523,5526.99 917.523,5525.54C917.523,5524.3 917.293,5523.31 916.834,5522.57C916.374,5521.84 915.763,5521.47 915.001,5521.47C914.249,5521.47 913.606,5521.89 913.074,5522.72C912.541,5523.56 912.217,5524.78 912.102,5526.39L908.044,5525.28C908.326,5523.06 908.752,5521.28 909.321,5519.95C909.891,5518.61 910.684,5517.57 911.703,5516.81C912.721,5516.04 913.862,5515.66 915.126,5515.66C917.288,5515.66 919.022,5516.77 920.328,5518.98C921.403,5520.79 921.941,5522.83 921.941,5525.11C921.941,5528.34 920.839,5530.92 918.636,5532.85C919.952,5533.3 921.004,5534.31 921.792,5535.89C922.581,5537.46 922.975,5539.36 922.975,5541.59C922.975,5544.82 922.239,5547.58 920.766,5549.86C919.294,5552.14 917.46,5553.27 915.267,5553.27C913.189,5553.27 911.465,5552.32 910.097,5550.4C908.729,5548.48 907.935,5545.97 907.715,5542.87Z" style="fill:rgb(55,32,132);fill-rule:nonzero;"/>
                            <path d="M937.374,5539.1L937.374,5532.9L947.369,5532.9L947.369,5547.57C946.398,5549.08 944.99,5550.41 943.147,5551.55C941.303,5552.7 939.436,5553.27 937.546,5553.27C935.144,5553.27 933.049,5552.47 931.263,5550.85C929.477,5549.23 928.135,5546.92 927.237,5543.91C926.339,5540.91 925.889,5537.64 925.889,5534.1C925.889,5530.27 926.391,5526.86 927.394,5523.88C928.396,5520.9 929.864,5518.61 931.796,5517.02C933.269,5515.8 935.102,5515.19 937.295,5515.19C940.147,5515.19 942.374,5516.14 943.977,5518.06C945.581,5519.98 946.612,5522.63 947.072,5526.01L942.465,5527.4C942.142,5525.59 941.533,5524.16 940.64,5523.11C939.747,5522.07 938.632,5521.54 937.295,5521.54C935.269,5521.54 933.658,5522.57 932.462,5524.63C931.266,5526.69 930.668,5529.75 930.668,5533.8C930.668,5538.17 931.274,5541.45 932.485,5543.64C933.697,5545.82 935.285,5546.92 937.248,5546.92C938.22,5546.92 939.194,5546.61 940.17,5546C941.147,5545.39 941.985,5544.65 942.685,5543.78L942.685,5539.1L937.374,5539.1Z" style="fill:rgb(55,32,132);fill-rule:nonzero;"/>
                            <path d="M960.733,5542.35C959.971,5542.41 959.396,5542.6 959.01,5542.9C958.624,5543.2 958.292,5543.71 958.015,5544.42C957.738,5545.13 957.543,5546.02 957.428,5547.09C957.344,5547.9 957.302,5549.29 957.302,5551.26C957.302,5554.51 957.211,5556.78 957.028,5558.07C956.845,5559.36 956.509,5560.4 956.018,5561.18C955.527,5561.95 954.806,5562.57 953.856,5563.02C953.218,5563.32 952.216,5563.48 950.847,5563.48L950.017,5563.48L950.017,5557.44C951.135,5557.44 951.866,5557.33 952.21,5557.11C952.555,5556.88 952.808,5556.55 952.97,5556.13C953.132,5555.7 953.216,5554.98 953.221,5553.95C953.226,5552.93 953.271,5550.98 953.354,5548.1C953.406,5546.36 953.547,5544.96 953.777,5543.91C954.007,5542.87 954.312,5541.98 954.694,5541.25C955.075,5540.52 955.563,5539.88 956.159,5539.33C955.386,5538.53 954.822,5537.74 954.467,5536.97C953.976,5535.86 953.641,5534.46 953.464,5532.75C953.349,5531.57 953.265,5528.99 953.213,5525.01C953.203,5523.75 953.132,5522.91 953.002,5522.5C952.871,5522.08 952.636,5521.76 952.297,5521.53C951.957,5521.3 951.197,5521.19 950.017,5521.19L950.017,5515.19L950.847,5515.19C952.257,5515.19 953.338,5515.36 954.091,5515.71C954.843,5516.07 955.474,5516.66 955.986,5517.51C956.498,5518.36 956.845,5519.39 957.028,5520.62C957.211,5521.86 957.302,5523.8 957.302,5526.44C957.302,5529.51 957.381,5531.51 957.537,5532.45C957.767,5533.79 958.117,5534.74 958.587,5535.32C959.057,5535.9 959.773,5536.23 960.733,5536.32L960.733,5542.35Z" style="fill:rgb(55,32,132);fill-rule:nonzero;"/>
                            <path d="M964.823,5533.02L964.823,5525.96L969.225,5525.96L969.225,5533.02L964.823,5533.02ZM964.823,5545.59L969.225,5545.59L969.225,5550.64C969.225,5552.68 969.115,5554.29 968.896,5555.47C968.677,5556.65 968.262,5557.71 967.651,5558.65C967.04,5559.59 966.264,5560.33 965.324,5560.86L964.462,5557.95C965.35,5557.48 965.982,5556.82 966.358,5555.99C966.734,5555.15 966.932,5554.04 966.953,5552.65L964.823,5552.65L964.823,5545.59Z" style="fill:rgb(55,32,132);fill-rule:nonzero;"/>
                            <path d="M791.793,5544.15L796.18,5545.34C795.616,5547.91 794.726,5549.88 793.509,5551.23C792.292,5552.57 790.77,5553.25 788.942,5553.25C786.049,5553.25 783.908,5551.73 782.518,5548.7C781.422,5546.27 780.873,5543.21 780.873,5539.51C780.873,5535.08 781.594,5531.62 783.035,5529.12C784.477,5526.61 786.299,5525.36 788.503,5525.36C790.979,5525.36 792.932,5526.67 794.363,5529.29C795.794,5531.91 796.478,5535.93 796.415,5541.34L785.386,5541.34C785.417,5543.43 785.772,5545.06 786.451,5546.23C787.13,5547.39 787.976,5547.97 788.989,5547.97C789.678,5547.97 790.258,5547.67 790.728,5547.07C791.198,5546.47 791.553,5545.49 791.793,5544.15ZM792.044,5537.02C792.013,5534.98 791.684,5533.42 791.057,5532.36C790.43,5531.29 789.668,5530.76 788.77,5530.76C787.809,5530.76 787.015,5531.32 786.388,5532.45C785.762,5533.57 785.453,5535.09 785.464,5537.02L792.044,5537.02Z" style="fill:rgb(55,32,132);fill-rule:nonzero;"/>
                            <path d="M807.555,5542.35L807.555,5536.32C808.317,5536.25 808.892,5536.06 809.278,5535.76C809.665,5535.46 809.999,5534.95 810.281,5534.24C810.563,5533.53 810.756,5532.64 810.86,5531.57C810.944,5530.76 810.986,5529.36 810.986,5527.37C810.986,5524.12 811.08,5521.86 811.268,5520.57C811.456,5519.29 811.795,5518.26 812.286,5517.48C812.777,5516.7 813.493,5516.09 814.433,5515.64C815.07,5515.34 816.072,5515.19 817.441,5515.19L818.271,5515.19L818.271,5521.19C817.112,5521.19 816.368,5521.3 816.039,5521.5C815.71,5521.71 815.467,5522.03 815.31,5522.46C815.153,5522.89 815.075,5523.62 815.075,5524.66C815.075,5525.71 815.028,5527.71 814.934,5530.66C814.882,5532.32 814.746,5533.66 814.527,5534.69C814.307,5535.73 814.028,5536.57 813.688,5537.24C813.349,5537.91 812.829,5538.61 812.13,5539.33C812.746,5539.9 813.25,5540.57 813.641,5541.33C814.033,5542.09 814.333,5543.02 814.542,5544.1C814.751,5545.19 814.887,5546.65 814.95,5548.48C815.023,5551.26 815.059,5553.03 815.059,5553.8C815.059,5554.91 815.143,5555.68 815.31,5556.11C815.477,5556.55 815.73,5556.88 816.07,5557.11C816.409,5557.33 817.143,5557.44 818.271,5557.44L818.271,5563.48L817.441,5563.48C816.031,5563.48 814.95,5563.3 814.198,5562.94C813.446,5562.57 812.811,5561.98 812.294,5561.14C811.777,5560.3 811.43,5559.27 811.252,5558.04C811.075,5556.81 810.986,5554.87 810.986,5552.22C810.986,5549.14 810.902,5547.14 810.735,5546.21C810.505,5544.87 810.158,5543.91 809.693,5543.34C809.228,5542.76 808.516,5542.43 807.555,5542.35Z" style="fill:rgb(55,32,132);fill-rule:nonzero;"/>
                            <path d="M832.121,5539.1L832.121,5532.9L842.117,5532.9L842.117,5547.57C841.145,5549.08 839.738,5550.41 837.894,5551.55C836.051,5552.7 834.184,5553.27 832.293,5553.27C829.891,5553.27 827.797,5552.47 826.011,5550.85C824.225,5549.23 822.882,5546.92 821.984,5543.91C821.086,5540.91 820.637,5537.64 820.637,5534.1C820.637,5530.27 821.138,5526.86 822.141,5523.88C823.144,5520.9 824.611,5518.61 826.543,5517.02C828.016,5515.8 829.849,5515.19 832.043,5515.19C834.894,5515.19 837.121,5516.14 838.725,5518.06C840.328,5519.98 841.359,5522.63 841.819,5526.01L837.213,5527.4C836.889,5525.59 836.281,5524.16 835.388,5523.11C834.495,5522.07 833.38,5521.54 832.043,5521.54C830.016,5521.54 828.405,5522.57 827.209,5524.63C826.013,5526.69 825.415,5529.75 825.415,5533.8C825.415,5538.17 826.021,5541.45 827.233,5543.64C828.444,5545.82 830.032,5546.92 831.996,5546.92C832.967,5546.92 833.941,5546.61 834.918,5546C835.894,5545.39 836.732,5544.65 837.432,5543.78L837.432,5539.1L832.121,5539.1Z" style="fill:rgb(55,32,132);fill-rule:nonzero;"/>
                            <path d="M849.198,5532.77C848.06,5532 847.232,5530.94 846.715,5529.59C846.198,5528.25 845.939,5526.77 845.939,5525.16C845.939,5522.41 846.537,5520.14 847.733,5518.35C848.929,5516.56 850.629,5515.66 852.833,5515.66C855.016,5515.66 856.711,5516.56 857.917,5518.35C859.123,5520.14 859.727,5522.41 859.727,5525.16C859.727,5526.87 859.45,5528.39 858.896,5529.72C858.343,5531.05 857.565,5532.07 856.562,5532.77C857.836,5533.59 858.805,5534.79 859.468,5536.36C860.131,5537.94 860.463,5539.76 860.463,5541.82C860.463,5545.22 859.787,5547.98 858.434,5550.11C857.081,5552.24 855.282,5553.3 853.037,5553.3C850.948,5553.3 849.209,5552.42 847.82,5550.66C846.18,5548.59 845.36,5545.74 845.36,5542.12C845.36,5540.13 845.668,5538.3 846.284,5536.63C846.9,5534.96 847.872,5533.68 849.198,5532.77ZM850.107,5525.66C850.107,5527.07 850.355,5528.17 850.851,5528.95C851.347,5529.74 852.008,5530.13 852.833,5530.13C853.669,5530.13 854.337,5529.74 854.838,5528.94C855.34,5528.15 855.59,5527.04 855.59,5525.64C855.59,5524.31 855.342,5523.25 854.846,5522.46C854.35,5521.66 853.695,5521.27 852.88,5521.27C852.034,5521.27 851.36,5521.67 850.859,5522.47C850.358,5523.28 850.107,5524.34 850.107,5525.66ZM849.7,5541.44C849.7,5543.38 850.01,5544.9 850.632,5545.99C851.253,5547.08 852.029,5547.62 852.958,5547.62C853.867,5547.62 854.619,5547.1 855.214,5546.05C855.81,5545 856.108,5543.49 856.108,5541.52C856.108,5539.79 855.805,5538.4 855.199,5537.36C854.593,5536.31 853.825,5535.79 852.896,5535.79C851.82,5535.79 851.018,5536.38 850.491,5537.57C849.963,5538.76 849.7,5540.05 849.7,5541.44Z" style="fill:rgb(55,32,132);fill-rule:nonzero;"/>
                        </g>
                        <path d="M1003.25,5552.65L998.21,5552.65L996.204,5544.28L987.023,5544.28L985.127,5552.65L980.208,5552.65L989.154,5515.81L994.058,5515.81L1003.25,5552.65ZM994.716,5538.07L991.551,5524.41L988.449,5538.07L994.716,5538.07Z" style="fill:rgb(55,32,132);fill-rule:nonzero;"/>
                        <path d="M1020.19,5533.85L1015.85,5535.11C1015.71,5533.72 1015.37,5532.67 1014.86,5531.97C1014.34,5531.27 1013.67,5530.91 1012.84,5530.91C1011.75,5530.91 1010.87,5531.52 1010.22,5532.73C1009.57,5533.95 1009.24,5535.98 1009.24,5538.83C1009.24,5541.99 1009.57,5544.23 1010.23,5545.54C1010.9,5546.84 1011.79,5547.5 1012.9,5547.5C1013.74,5547.5 1014.43,5547.11 1014.96,5546.35C1015.49,5545.59 1015.87,5544.28 1016.09,5542.42L1020.41,5543.6C1019.96,5546.78 1019.1,5549.19 1017.83,5550.81C1016.55,5552.44 1014.84,5553.25 1012.7,5553.25C1010.27,5553.25 1008.33,5552.02 1006.88,5549.56C1005.44,5547.09 1004.71,5543.69 1004.71,5539.33C1004.71,5534.93 1005.44,5531.49 1006.89,5529.04C1008.34,5526.59 1010.31,5525.36 1012.78,5525.36C1014.81,5525.36 1016.42,5526.06 1017.61,5527.46C1018.81,5528.86 1019.67,5530.99 1020.19,5533.85Z" style="fill:rgb(55,32,132);fill-rule:nonzero;"/>
                        <path d="M1027.91,5515.81L1027.91,5529.36C1029.34,5526.69 1031.03,5525.36 1033.01,5525.36C1034.02,5525.36 1034.93,5525.66 1035.75,5526.27C1036.56,5526.87 1037.18,5527.64 1037.59,5528.58C1038,5529.52 1038.28,5530.55 1038.43,5531.69C1038.59,5532.83 1038.66,5534.6 1038.66,5536.99L1038.66,5552.65L1034.26,5552.65L1034.26,5538.55C1034.26,5535.75 1034.18,5533.98 1034.01,5533.23C1033.84,5532.47 1033.55,5531.87 1033.12,5531.43C1032.7,5530.98 1032.17,5530.76 1031.53,5530.76C1030.8,5530.76 1030.15,5531.05 1029.58,5531.62C1029,5532.19 1028.58,5533.05 1028.31,5534.19C1028.05,5535.34 1027.91,5537.03 1027.91,5539.28L1027.91,5552.65L1023.51,5552.65L1023.51,5515.81L1027.91,5515.81Z" style="fill:rgb(55,32,132);fill-rule:nonzero;"/>
                        <path d="M1043.13,5522.35L1043.13,5515.81L1047.53,5515.81L1047.53,5522.35L1043.13,5522.35ZM1043.13,5552.65L1043.13,5525.96L1047.53,5525.96L1047.53,5552.65L1043.13,5552.65Z" style="fill:rgb(55,32,132);fill-rule:nonzero;"/>
                        <rect x="1052.04" y="5515.81" width="4.402" height="36.833" style="fill:rgb(55,32,132);fill-rule:nonzero;"/>
                        <rect x="1060.96" y="5515.81" width="4.402" height="36.833" style="fill:rgb(55,32,132);fill-rule:nonzero;"/>
                        <path d="M1079.51,5544.15L1083.89,5545.34C1083.33,5547.91 1082.44,5549.88 1081.22,5551.23C1080.01,5552.57 1078.48,5553.25 1076.65,5553.25C1073.76,5553.25 1071.62,5551.73 1070.23,5548.7C1069.13,5546.27 1068.59,5543.21 1068.59,5539.51C1068.59,5535.08 1069.31,5531.62 1070.75,5529.12C1072.19,5526.61 1074.01,5525.36 1076.22,5525.36C1078.69,5525.36 1080.64,5526.67 1082.08,5529.29C1083.51,5531.91 1084.19,5535.93 1084.13,5541.34L1073.1,5541.34C1073.13,5543.43 1073.49,5545.06 1074.16,5546.23C1074.84,5547.39 1075.69,5547.97 1076.7,5547.97C1077.39,5547.97 1077.97,5547.67 1078.44,5547.07C1078.91,5546.47 1079.27,5545.49 1079.51,5544.15ZM1079.76,5537.02C1079.73,5534.98 1079.4,5533.42 1078.77,5532.36C1078.14,5531.29 1077.38,5530.76 1076.48,5530.76C1075.52,5530.76 1074.73,5531.32 1074.1,5532.45C1073.47,5533.57 1073.17,5535.09 1073.18,5537.02L1079.76,5537.02Z" style="fill:rgb(55,32,132);fill-rule:nonzero;"/>
                        <path d="M1086.16,5545.03L1090.58,5543.95C1090.77,5545.33 1091.15,5546.37 1091.73,5547.08C1092.3,5547.79 1093.11,5548.15 1094.14,5548.15C1095.28,5548.15 1096.13,5547.81 1096.71,5547.14C1097.1,5546.68 1097.29,5546.05 1097.29,5545.26C1097.29,5544.72 1097.18,5544.28 1096.98,5543.93C1096.76,5543.59 1096.27,5543.28 1095.5,5543C1091.95,5541.74 1089.7,5540.6 1088.75,5539.56C1087.43,5538.12 1086.78,5536.11 1086.78,5533.55C1086.78,5531.24 1087.35,5529.3 1088.48,5527.72C1089.62,5526.15 1091.39,5525.36 1093.78,5525.36C1096.06,5525.36 1097.75,5525.95 1098.86,5527.15C1099.96,5528.33 1100.73,5530.09 1101.14,5532.42L1096.99,5533.65C1096.81,5532.61 1096.48,5531.82 1095.98,5531.27C1095.49,5530.71 1094.78,5530.44 1093.86,5530.44C1092.7,5530.44 1091.87,5530.7 1091.37,5531.22C1091.03,5531.58 1090.87,5532.06 1090.87,5532.65C1090.87,5533.15 1091.01,5533.58 1091.3,5533.93C1091.7,5534.4 1093.07,5535.06 1095.42,5535.91C1097.76,5536.77 1099.4,5537.81 1100.33,5539.05C1101.25,5540.31 1101.71,5542.06 1101.71,5544.31C1101.71,5546.75 1101.07,5548.85 1099.8,5550.61C1098.52,5552.37 1096.64,5553.25 1094.14,5553.25C1091.87,5553.25 1090.08,5552.51 1088.76,5551.04C1087.44,5549.56 1086.57,5547.56 1086.16,5545.03Z" style="fill:rgb(55,32,132);fill-rule:nonzero;"/>
                        <path d="M1104.01,5545.03L1108.43,5543.95C1108.62,5545.33 1109,5546.37 1109.57,5547.08C1110.15,5547.79 1110.95,5548.15 1111.99,5548.15C1113.12,5548.15 1113.98,5547.81 1114.56,5547.14C1114.94,5546.68 1115.13,5546.05 1115.13,5545.26C1115.13,5544.72 1115.03,5544.28 1114.82,5543.93C1114.6,5543.59 1114.11,5543.28 1113.35,5543C1109.8,5541.74 1107.55,5540.6 1106.6,5539.56C1105.28,5538.12 1104.62,5536.11 1104.62,5533.55C1104.62,5531.24 1105.19,5529.3 1106.33,5527.72C1107.47,5526.15 1109.23,5525.36 1111.62,5525.36C1113.9,5525.36 1115.59,5525.95 1116.7,5527.15C1117.81,5528.33 1118.57,5530.09 1118.99,5532.42L1114.84,5533.65C1114.66,5532.61 1114.32,5531.82 1113.83,5531.27C1113.33,5530.71 1112.62,5530.44 1111.7,5530.44C1110.54,5530.44 1109.71,5530.7 1109.21,5531.22C1108.88,5531.58 1108.71,5532.06 1108.71,5532.65C1108.71,5533.15 1108.86,5533.58 1109.15,5533.93C1109.55,5534.4 1110.92,5535.06 1113.26,5535.91C1115.61,5536.77 1117.24,5537.81 1118.17,5539.05C1119.09,5540.31 1119.55,5542.06 1119.55,5544.31C1119.55,5546.75 1118.91,5548.85 1117.64,5550.61C1116.37,5552.37 1114.48,5553.25 1111.99,5553.25C1109.72,5553.25 1107.92,5552.51 1106.6,5551.04C1105.28,5549.56 1104.42,5547.56 1104.01,5545.03Z" style="fill:rgb(55,32,132);fill-rule:nonzero;"/>
                        <path d="M1123.28,5525.96L1127.39,5525.96L1127.39,5529.88C1127.92,5528.54 1128.64,5527.45 1129.55,5526.62C1130.46,5525.78 1131.46,5525.36 1132.57,5525.36C1134.5,5525.36 1136.14,5526.57 1137.49,5529C1138.84,5531.43 1139.51,5534.82 1139.51,5539.15C1139.51,5543.61 1138.83,5547.07 1137.48,5549.54C1136.12,5552.01 1134.47,5553.25 1132.54,5553.25C1131.62,5553.25 1130.79,5552.96 1130.04,5552.37C1129.3,5551.78 1128.51,5550.78 1127.68,5549.36L1127.68,5562.8L1123.28,5562.8L1123.28,5525.96ZM1127.64,5538.85C1127.64,5541.85 1128.01,5544.07 1128.75,5545.5C1129.49,5546.93 1130.39,5547.65 1131.46,5547.65C1132.48,5547.65 1133.33,5546.99 1134.01,5545.67C1134.69,5544.36 1135.03,5542.2 1135.03,5539.2C1135.03,5536.41 1134.68,5534.33 1133.98,5532.97C1133.28,5531.62 1132.41,5530.94 1131.38,5530.94C1130.31,5530.94 1129.41,5531.6 1128.7,5532.94C1127.99,5534.27 1127.64,5536.24 1127.64,5538.85Z" style="fill:rgb(55,32,132);fill-rule:nonzero;"/>
                        <path d="M1141.99,5538.93C1141.99,5536.58 1142.35,5534.31 1143.07,5532.12C1143.79,5529.93 1144.81,5528.25 1146.13,5527.09C1147.45,5525.94 1148.93,5525.36 1150.56,5525.36C1153.08,5525.36 1155.14,5526.67 1156.75,5529.29C1158.36,5531.91 1159.16,5535.23 1159.16,5539.23C1159.16,5543.27 1158.35,5546.61 1156.72,5549.27C1155.1,5551.92 1153.05,5553.25 1150.59,5553.25C1149.06,5553.25 1147.61,5552.7 1146.23,5551.59C1144.84,5550.49 1143.79,5548.86 1143.07,5546.73C1142.35,5544.59 1141.99,5541.99 1141.99,5538.93ZM1146.5,5539.31C1146.5,5541.95 1146.89,5543.98 1147.67,5545.39C1148.46,5546.79 1149.42,5547.5 1150.57,5547.5C1151.72,5547.5 1152.69,5546.79 1153.46,5545.39C1154.24,5543.98 1154.63,5541.94 1154.63,5539.26C1154.63,5536.64 1154.24,5534.63 1153.46,5533.23C1152.69,5531.82 1151.72,5531.11 1150.57,5531.11C1149.42,5531.11 1148.46,5531.82 1147.67,5533.23C1146.89,5534.63 1146.5,5536.66 1146.5,5539.31Z" style="fill:rgb(55,32,132);fill-rule:nonzero;"/>
                        <path d="M1166.82,5552.65L1162.42,5552.65L1162.42,5525.96L1166.51,5525.96L1166.51,5529.76C1167.21,5527.97 1167.84,5526.78 1168.39,5526.22C1168.95,5525.65 1169.59,5525.36 1170.3,5525.36C1171.3,5525.36 1172.27,5525.81 1173.2,5526.69L1171.83,5532.85C1171.09,5532.08 1170.4,5531.69 1169.77,5531.69C1169.15,5531.69 1168.63,5531.96 1168.2,5532.51C1167.77,5533.05 1167.43,5534.04 1167.19,5535.46C1166.94,5536.89 1166.82,5539.87 1166.82,5544.4L1166.82,5552.65Z" style="fill:rgb(55,32,132);fill-rule:nonzero;"/>
                        <path d="M1190.23,5552.65L1185.83,5552.65L1185.83,5539.03C1185.83,5536.15 1185.73,5534.28 1185.54,5533.44C1185.36,5532.59 1185.05,5531.94 1184.63,5531.47C1184.2,5531 1183.69,5530.76 1183.1,5530.76C1182.34,5530.76 1181.65,5531.1 1181.05,5531.77C1180.44,5532.44 1180.03,5533.32 1179.8,5534.43C1179.58,5535.54 1179.46,5537.58 1179.46,5540.56L1179.46,5552.65L1175.06,5552.65L1175.06,5525.96L1179.15,5525.96L1179.15,5529.88C1180.6,5526.87 1182.43,5525.36 1184.63,5525.36C1185.61,5525.36 1186.49,5525.64 1187.3,5526.2C1188.1,5526.76 1188.71,5527.48 1189.12,5528.35C1189.54,5529.22 1189.82,5530.21 1189.99,5531.32C1190.15,5532.42 1190.23,5534 1190.23,5536.06L1190.23,5552.65Z" style="fill:rgb(55,32,132);fill-rule:nonzero;"/>
                        <path d="M1194.58,5545.59L1198.99,5545.59L1198.99,5550.64C1198.99,5552.68 1198.88,5554.29 1198.66,5555.47C1198.44,5556.65 1198.02,5557.71 1197.41,5558.65C1196.8,5559.59 1196.02,5560.33 1195.08,5560.86L1194.22,5557.95C1195.11,5557.48 1195.74,5556.83 1196.12,5556.01C1196.49,5555.19 1196.69,5554.07 1196.71,5552.65L1194.58,5552.65L1194.58,5545.59Z" style="fill:rgb(55,32,132);fill-rule:nonzero;"/>
                        <path d="M1212.33,5552.65L1212.33,5515.81L1216.74,5515.81L1216.74,5529.08C1218.09,5526.6 1219.7,5525.36 1221.56,5525.36C1223.59,5525.36 1225.27,5526.54 1226.59,5528.89C1227.92,5531.24 1228.58,5534.62 1228.58,5539.03C1228.58,5543.59 1227.9,5547.09 1226.55,5549.56C1225.2,5552.02 1223.56,5553.25 1221.62,5553.25C1220.67,5553.25 1219.74,5552.87 1218.81,5552.11C1217.89,5551.34 1217.09,5550.22 1216.42,5548.73L1216.42,5552.65L1212.33,5552.65ZM1216.7,5538.73C1216.7,5541.49 1216.98,5543.53 1217.52,5544.86C1218.28,5546.73 1219.3,5547.67 1220.56,5547.67C1221.53,5547.67 1222.36,5547.01 1223.04,5545.67C1223.73,5544.34 1224.07,5542.24 1224.07,5539.38C1224.07,5536.33 1223.72,5534.13 1223.04,5532.78C1222.35,5531.44 1221.46,5530.76 1220.39,5530.76C1219.33,5530.76 1218.45,5531.42 1217.76,5532.73C1217.06,5534.05 1216.7,5536.05 1216.7,5538.73Z" style="fill:rgb(55,32,132);fill-rule:nonzero;"/>
                        <path d="M1247.38,5552.65L1243.29,5552.65L1243.29,5548.73C1242.61,5550.25 1241.81,5551.39 1240.89,5552.13C1239.96,5552.88 1239.03,5553.25 1238.09,5553.25C1236.18,5553.25 1234.54,5552.01 1233.18,5549.54C1231.82,5547.07 1231.13,5543.63 1231.13,5539.2C1231.13,5534.68 1231.8,5531.24 1233.12,5528.89C1234.45,5526.54 1236.13,5525.36 1238.15,5525.36C1240.01,5525.36 1241.62,5526.6 1242.98,5529.08L1242.98,5515.81L1247.38,5515.81L1247.38,5552.65ZM1235.63,5538.73C1235.63,5541.57 1235.88,5543.64 1236.37,5544.91C1237.08,5546.75 1238.07,5547.67 1239.34,5547.67C1240.36,5547.67 1241.22,5546.98 1241.93,5545.6C1242.64,5544.22 1243,5542.15 1243,5539.41C1243,5536.34 1242.65,5534.13 1241.96,5532.78C1241.27,5531.44 1240.39,5530.76 1239.31,5530.76C1238.27,5530.76 1237.39,5531.43 1236.69,5532.76C1235.98,5534.09 1235.63,5536.08 1235.63,5538.73Z" style="fill:rgb(55,32,132);fill-rule:nonzero;"/>
                        <path d="M1250.17,5545.03L1254.59,5543.95C1254.78,5545.33 1255.16,5546.37 1255.73,5547.08C1256.31,5547.79 1257.11,5548.15 1258.14,5548.15C1259.28,5548.15 1260.14,5547.81 1260.71,5547.14C1261.1,5546.68 1261.29,5546.05 1261.29,5545.26C1261.29,5544.72 1261.19,5544.28 1260.98,5543.93C1260.76,5543.59 1260.27,5543.28 1259.51,5543C1255.96,5541.74 1253.71,5540.6 1252.76,5539.56C1251.44,5538.12 1250.78,5536.11 1250.78,5533.55C1250.78,5531.24 1251.35,5529.3 1252.49,5527.72C1253.63,5526.15 1255.39,5525.36 1257.79,5525.36C1260.06,5525.36 1261.75,5525.95 1262.86,5527.15C1263.97,5528.33 1264.73,5530.09 1265.15,5532.42L1261,5533.65C1260.82,5532.61 1260.48,5531.82 1259.99,5531.27C1259.49,5530.71 1258.78,5530.44 1257.86,5530.44C1256.7,5530.44 1255.87,5530.7 1255.37,5531.22C1255.04,5531.58 1254.87,5532.06 1254.87,5532.65C1254.87,5533.15 1255.02,5533.58 1255.31,5533.93C1255.71,5534.4 1257.08,5535.06 1259.42,5535.91C1261.77,5536.77 1263.4,5537.81 1264.33,5539.05C1265.25,5540.31 1265.71,5542.06 1265.71,5544.31C1265.71,5546.75 1265.08,5548.85 1263.8,5550.61C1262.53,5552.37 1260.64,5553.25 1258.14,5553.25C1255.88,5553.25 1254.08,5552.51 1252.76,5551.04C1251.44,5549.56 1250.58,5547.56 1250.17,5545.03Z" style="fill:rgb(55,32,132);fill-rule:nonzero;"/>
                        <rect x="1269.57" y="5545.59" width="4.402" height="7.06" style="fill:rgb(55,32,132);fill-rule:nonzero;"/>
                        <path d="M1286.03,5542.35L1286.03,5536.32C1286.8,5536.25 1287.37,5536.06 1287.76,5535.76C1288.14,5535.46 1288.48,5534.95 1288.76,5534.24C1289.04,5533.53 1289.23,5532.64 1289.34,5531.57C1289.42,5530.76 1289.46,5529.36 1289.46,5527.37C1289.46,5524.12 1289.56,5521.86 1289.75,5520.57C1289.93,5519.29 1290.27,5518.26 1290.76,5517.48C1291.26,5516.7 1291.97,5516.09 1292.91,5515.64C1293.55,5515.34 1294.55,5515.19 1295.92,5515.19L1296.75,5515.19L1296.75,5521.19C1295.59,5521.19 1294.85,5521.3 1294.52,5521.5C1294.19,5521.71 1293.94,5522.03 1293.79,5522.46C1293.63,5522.89 1293.55,5523.62 1293.55,5524.66C1293.55,5525.71 1293.51,5527.71 1293.41,5530.66C1293.36,5532.32 1293.22,5533.66 1293.01,5534.69C1292.79,5535.73 1292.51,5536.57 1292.17,5537.24C1291.83,5537.91 1291.31,5538.61 1290.61,5539.33C1291.22,5539.9 1291.73,5540.57 1292.12,5541.33C1292.51,5542.09 1292.81,5543.02 1293.02,5544.1C1293.23,5545.19 1293.37,5546.65 1293.43,5548.48C1293.5,5551.26 1293.54,5553.03 1293.54,5553.8C1293.54,5554.91 1293.62,5555.68 1293.79,5556.11C1293.95,5556.55 1294.21,5556.88 1294.55,5557.11C1294.89,5557.33 1295.62,5557.44 1296.75,5557.44L1296.75,5563.48L1295.92,5563.48C1294.51,5563.48 1293.43,5563.3 1292.68,5562.94C1291.92,5562.57 1291.29,5561.98 1290.77,5561.14C1290.26,5560.3 1289.91,5559.27 1289.73,5558.04C1289.55,5556.81 1289.46,5554.87 1289.46,5552.22C1289.46,5549.14 1289.38,5547.14 1289.21,5546.21C1288.98,5544.87 1288.64,5543.91 1288.17,5543.34C1287.71,5542.76 1286.99,5542.43 1286.03,5542.35Z" style="fill:rgb(55,32,132);fill-rule:nonzero;"/>
                        <path d="M1299.85,5552.65L1299.85,5515.81L1306.79,5515.81L1310.96,5540.94L1315.08,5515.81L1322.04,5515.81L1322.04,5552.65L1317.73,5552.65L1317.73,5523.65L1313.17,5552.65L1308.7,5552.65L1304.16,5523.65L1304.16,5552.65L1299.85,5552.65Z" style="fill:rgb(55,32,132);fill-rule:nonzero;"/>
                        <path d="M1325.67,5522.87L1325.67,5516.32L1340.73,5516.32L1340.73,5521.44C1339.48,5523.4 1338.22,5526.22 1336.94,5529.88C1335.65,5533.55 1334.67,5537.45 1334,5541.58C1333.32,5545.71 1332.99,5549.4 1333,5552.65L1328.76,5552.65C1328.83,5547.55 1329.49,5542.36 1330.72,5537.07C1331.96,5531.78 1333.61,5527.04 1335.68,5522.87L1325.67,5522.87Z" style="fill:rgb(55,32,132);fill-rule:nonzero;"/>
                        <path d="M1343.52,5522.87L1343.52,5516.32L1358.57,5516.32L1358.57,5521.44C1357.33,5523.4 1356.07,5526.22 1354.78,5529.88C1353.5,5533.55 1352.52,5537.45 1351.84,5541.58C1351.17,5545.71 1350.84,5549.4 1350.85,5552.65L1346.6,5552.65C1346.67,5547.55 1347.33,5542.36 1348.57,5537.07C1349.81,5531.78 1351.46,5527.04 1353.53,5522.87L1343.52,5522.87Z" style="fill:rgb(55,32,132);fill-rule:nonzero;"/>
                        <rect x="1362.3" y="5545.59" width="4.402" height="7.06" style="fill:rgb(55,32,132);fill-rule:nonzero;"/>
                        <path d="M1370.12,5542.87L1374.38,5542.04C1374.52,5543.79 1374.88,5545.12 1375.48,5546.04C1376.07,5546.96 1376.79,5547.42 1377.64,5547.42C1378.55,5547.42 1379.31,5546.87 1379.93,5545.76C1380.56,5544.66 1380.87,5543.17 1380.87,5541.29C1380.87,5539.51 1380.57,5538.11 1379.97,5537.07C1379.38,5536.03 1378.65,5535.51 1377.8,5535.51C1377.23,5535.51 1376.56,5535.69 1375.78,5536.04L1376.26,5530.28C1377.45,5530.34 1378.36,5529.92 1378.99,5529.04C1379.61,5528.16 1379.93,5526.99 1379.93,5525.54C1379.93,5524.3 1379.7,5523.31 1379.24,5522.57C1378.78,5521.84 1378.17,5521.47 1377.4,5521.47C1376.65,5521.47 1376.01,5521.89 1375.48,5522.72C1374.94,5523.56 1374.62,5524.78 1374.51,5526.39L1370.45,5525.28C1370.73,5523.06 1371.15,5521.28 1371.73,5519.95C1372.29,5518.61 1373.09,5517.57 1374.11,5516.81C1375.12,5516.04 1376.27,5515.66 1377.53,5515.66C1379.69,5515.66 1381.42,5516.77 1382.73,5518.98C1383.81,5520.79 1384.35,5522.83 1384.35,5525.11C1384.35,5528.34 1383.24,5530.92 1381.04,5532.85C1382.36,5533.3 1383.41,5534.31 1384.2,5535.89C1384.98,5537.46 1385.38,5539.36 1385.38,5541.59C1385.38,5544.82 1384.64,5547.58 1383.17,5549.86C1381.7,5552.14 1379.86,5553.27 1377.67,5553.27C1375.59,5553.27 1373.87,5552.32 1372.5,5550.4C1371.13,5548.48 1370.34,5545.97 1370.12,5542.87Z" style="fill:rgb(55,32,132);fill-rule:nonzero;"/>
                        <path d="M1389.11,5515.81L1398.29,5515.81C1400.11,5515.81 1401.46,5515.94 1402.35,5516.18C1403.25,5516.42 1404.05,5516.93 1404.75,5517.7C1405.46,5518.47 1406.04,5519.49 1406.51,5520.78C1406.98,5522.06 1407.22,5523.49 1407.22,5525.08C1407.22,5526.81 1406.93,5528.39 1406.35,5529.83C1405.77,5531.27 1404.98,5532.35 1403.99,5533.07C1405.39,5533.73 1406.47,5534.84 1407.22,5536.42C1407.97,5537.99 1408.35,5539.84 1408.35,5541.97C1408.35,5543.64 1408.1,5545.27 1407.62,5546.86C1407.13,5548.44 1406.47,5549.7 1405.63,5550.65C1404.79,5551.6 1403.75,5552.18 1402.52,5552.4C1401.75,5552.53 1399.88,5552.61 1396.92,5552.65L1389.11,5552.65L1389.11,5515.81ZM1393.75,5521.94L1393.75,5530.46L1396.78,5530.46C1398.59,5530.46 1399.71,5530.42 1400.15,5530.34C1400.95,5530.19 1401.57,5529.74 1402.03,5529.02C1402.48,5528.29 1402.71,5527.33 1402.71,5526.14C1402.71,5525 1402.51,5524.07 1402.12,5523.36C1401.73,5522.65 1401.14,5522.22 1400.37,5522.07C1399.91,5521.99 1398.59,5521.94 1396.41,5521.94L1393.75,5521.94ZM1393.75,5536.59L1393.75,5546.44L1398.04,5546.44C1399.71,5546.44 1400.77,5546.36 1401.22,5546.21C1401.91,5546.01 1402.47,5545.52 1402.9,5544.74C1403.34,5543.97 1403.55,5542.92 1403.55,5541.62C1403.55,5540.51 1403.39,5539.57 1403.05,5538.8C1402.72,5538.03 1402.23,5537.47 1401.6,5537.12C1400.97,5536.77 1399.6,5536.59 1397.49,5536.59L1393.75,5536.59Z" style="fill:rgb(55,32,132);fill-rule:nonzero;"/>
                        <path d="M1422.95,5539.1L1422.95,5532.9L1432.94,5532.9L1432.94,5547.57C1431.97,5549.08 1430.57,5550.41 1428.72,5551.55C1426.88,5552.7 1425.01,5553.27 1423.12,5553.27C1420.72,5553.27 1418.62,5552.47 1416.84,5550.85C1415.05,5549.23 1413.71,5546.92 1412.81,5543.91C1411.91,5540.91 1411.46,5537.64 1411.46,5534.1C1411.46,5530.27 1411.97,5526.86 1412.97,5523.88C1413.97,5520.9 1415.44,5518.61 1417.37,5517.02C1418.84,5515.8 1420.68,5515.19 1422.87,5515.19C1425.72,5515.19 1427.95,5516.14 1429.55,5518.06C1431.16,5519.98 1432.19,5522.63 1432.65,5526.01L1428.04,5527.4C1427.72,5525.59 1427.11,5524.16 1426.21,5523.11C1425.32,5522.07 1424.21,5521.54 1422.87,5521.54C1420.84,5521.54 1419.23,5522.57 1418.04,5524.63C1416.84,5526.69 1416.24,5529.75 1416.24,5533.8C1416.24,5538.17 1416.85,5541.45 1418.06,5543.64C1419.27,5545.82 1420.86,5546.92 1422.82,5546.92C1423.8,5546.92 1424.77,5546.61 1425.75,5546C1426.72,5545.39 1427.56,5544.65 1428.26,5543.78L1428.26,5539.1L1422.95,5539.1Z" style="fill:rgb(55,32,132);fill-rule:nonzero;"/>
                        <path d="M1446.31,5542.35C1445.55,5542.41 1444.97,5542.6 1444.59,5542.9C1444.2,5543.2 1443.87,5543.71 1443.59,5544.42C1443.31,5545.13 1443.12,5546.02 1443,5547.09C1442.92,5547.9 1442.88,5549.29 1442.88,5551.26C1442.88,5554.51 1442.79,5556.78 1442.6,5558.07C1442.42,5559.36 1442.08,5560.4 1441.59,5561.18C1441.1,5561.95 1440.38,5562.57 1439.43,5563.02C1438.79,5563.32 1437.79,5563.48 1436.42,5563.48L1435.59,5563.48L1435.59,5557.44C1436.71,5557.44 1437.44,5557.33 1437.79,5557.11C1438.13,5556.88 1438.38,5556.55 1438.55,5556.13C1438.71,5555.7 1438.79,5554.98 1438.8,5553.95C1438.8,5552.93 1438.85,5550.98 1438.93,5548.1C1438.98,5546.36 1439.12,5544.96 1439.35,5543.91C1439.58,5542.87 1439.89,5541.98 1440.27,5541.25C1440.65,5540.52 1441.14,5539.88 1441.73,5539.33C1440.96,5538.53 1440.4,5537.74 1440.04,5536.97C1439.55,5535.86 1439.22,5534.46 1439.04,5532.75C1438.92,5531.57 1438.84,5528.99 1438.79,5525.01C1438.78,5523.75 1438.71,5522.91 1438.58,5522.5C1438.45,5522.08 1438.21,5521.76 1437.87,5521.53C1437.53,5521.3 1436.77,5521.19 1435.59,5521.19L1435.59,5515.19L1436.42,5515.19C1437.83,5515.19 1438.91,5515.36 1439.67,5515.71C1440.42,5516.07 1441.05,5516.66 1441.56,5517.51C1442.07,5518.36 1442.42,5519.39 1442.6,5520.62C1442.79,5521.86 1442.88,5523.8 1442.88,5526.44C1442.88,5529.51 1442.96,5531.51 1443.11,5532.45C1443.34,5533.79 1443.69,5534.74 1444.16,5535.32C1444.63,5535.9 1445.35,5536.23 1446.31,5536.32L1446.31,5542.35Z" style="fill:rgb(55,32,132);fill-rule:nonzero;"/>
                        <path d="M1450.4,5533.02L1450.4,5525.96L1454.8,5525.96L1454.8,5533.02L1450.4,5533.02ZM1450.4,5545.59L1454.8,5545.59L1454.8,5550.64C1454.8,5552.68 1454.69,5554.29 1454.47,5555.47C1454.25,5556.65 1453.84,5557.71 1453.23,5558.65C1452.62,5559.59 1451.84,5560.33 1450.9,5560.86L1450.04,5557.95C1450.92,5557.48 1451.56,5556.82 1451.93,5555.99C1452.31,5555.15 1452.51,5554.04 1452.53,5552.65L1450.4,5552.65L1450.4,5545.59Z" style="fill:rgb(55,32,132);fill-rule:nonzero;"/>
                    </g>
                    <g transform="matrix(1,0,0,1,45.7233,-12.864)">
                        <path d="M1469.37,5552.65L1469.37,5515.81L1474.01,5515.81L1474.01,5532.17L1483.38,5515.81L1489.61,5515.81L1480.96,5530.16L1490.08,5552.65L1484.08,5552.65L1477.77,5535.36L1474.01,5541.52L1474.01,5552.65L1469.37,5552.65Z" style="fill:rgb(55,32,132);fill-rule:nonzero;"/>
                        <path d="M1495.74,5534.1L1491.74,5532.95C1492.19,5530.37 1492.97,5528.46 1494.06,5527.22C1495.16,5525.98 1496.79,5525.36 1498.95,5525.36C1500.91,5525.36 1502.38,5525.73 1503.34,5526.48C1504.3,5527.22 1504.98,5528.17 1505.37,5529.32C1505.76,5530.47 1505.95,5532.57 1505.95,5535.64L1505.91,5543.88C1505.91,5546.22 1505.98,5547.95 1506.12,5549.07C1506.26,5550.18 1506.52,5551.37 1506.91,5552.65L1502.55,5552.65C1502.44,5552.18 1502.3,5551.48 1502.13,5550.56C1502.06,5550.14 1502.01,5549.87 1501.97,5549.73C1501.22,5550.9 1500.42,5551.78 1499.56,5552.37C1498.7,5552.96 1497.79,5553.25 1496.82,5553.25C1495.11,5553.25 1493.76,5552.5 1492.77,5551.01C1491.78,5549.52 1491.29,5547.64 1491.29,5545.36C1491.29,5543.85 1491.51,5542.51 1491.96,5541.33C1492.41,5540.15 1493.04,5539.24 1493.85,5538.61C1494.66,5537.99 1495.83,5537.44 1497.35,5536.97C1499.41,5536.35 1500.84,5535.77 1501.63,5535.23L1501.63,5534.53C1501.63,5533.18 1501.42,5532.21 1501,5531.63C1500.59,5531.05 1499.8,5530.76 1498.64,5530.76C1497.85,5530.76 1497.24,5531.01 1496.8,5531.5C1496.37,5532 1496.01,5532.86 1495.74,5534.1ZM1501.63,5539.83C1501.07,5540.13 1500.17,5540.49 1498.95,5540.91C1497.73,5541.33 1496.93,5541.74 1496.55,5542.14C1495.98,5542.8 1495.69,5543.63 1495.69,5544.63C1495.69,5545.62 1495.92,5546.47 1496.38,5547.19C1496.84,5547.91 1497.43,5548.28 1498.14,5548.28C1498.93,5548.28 1499.69,5547.86 1500.41,5547.02C1500.94,5546.38 1501.29,5545.6 1501.46,5544.68C1501.57,5544.08 1501.63,5542.93 1501.63,5541.24L1501.63,5539.83Z" style="fill:rgb(55,32,132);fill-rule:nonzero;"/>
                        <path d="M1514.51,5552.65L1510.11,5552.65L1510.11,5525.96L1514.19,5525.96L1514.19,5529.76C1514.89,5527.97 1515.52,5526.78 1516.08,5526.22C1516.64,5525.65 1517.28,5525.36 1517.99,5525.36C1518.99,5525.36 1519.95,5525.81 1520.88,5526.69L1519.52,5532.85C1518.78,5532.08 1518.09,5531.69 1517.45,5531.69C1516.84,5531.69 1516.32,5531.96 1515.89,5532.51C1515.46,5533.05 1515.12,5534.04 1514.88,5535.46C1514.63,5536.89 1514.51,5539.87 1514.51,5544.4L1514.51,5552.65Z" style="fill:rgb(55,32,132);fill-rule:nonzero;"/>
                        <path d="M1522.65,5525.96L1526.76,5525.96L1526.76,5529.88C1527.29,5528.54 1528.01,5527.45 1528.92,5526.62C1529.83,5525.78 1530.84,5525.36 1531.95,5525.36C1533.88,5525.36 1535.52,5526.57 1536.87,5529C1538.21,5531.43 1538.89,5534.82 1538.89,5539.15C1538.89,5543.61 1538.21,5547.07 1536.85,5549.54C1535.49,5552.01 1533.85,5553.25 1531.91,5553.25C1531,5553.25 1530.16,5552.96 1529.42,5552.37C1528.67,5551.78 1527.88,5550.78 1527.06,5549.36L1527.06,5562.8L1522.65,5562.8L1522.65,5525.96ZM1527.01,5538.85C1527.01,5541.85 1527.38,5544.07 1528.12,5545.5C1528.87,5546.93 1529.77,5547.65 1530.83,5547.65C1531.86,5547.65 1532.71,5546.99 1533.39,5545.67C1534.07,5544.36 1534.41,5542.2 1534.41,5539.2C1534.41,5536.41 1534.06,5534.33 1533.36,5532.97C1532.66,5531.62 1531.79,5530.94 1530.76,5530.94C1529.68,5530.94 1528.79,5531.6 1528.08,5532.94C1527.37,5534.27 1527.01,5536.24 1527.01,5538.85Z" style="fill:rgb(55,32,132);fill-rule:nonzero;"/>
                        <path d="M1545.67,5534.1L1541.67,5532.95C1542.12,5530.37 1542.9,5528.46 1543.99,5527.22C1545.09,5525.98 1546.72,5525.36 1548.88,5525.36C1550.85,5525.36 1552.31,5525.73 1553.27,5526.48C1554.23,5527.22 1554.91,5528.17 1555.3,5529.32C1555.69,5530.47 1555.88,5532.57 1555.88,5535.64L1555.84,5543.88C1555.84,5546.22 1555.91,5547.95 1556.05,5549.07C1556.19,5550.18 1556.45,5551.37 1556.84,5552.65L1552.49,5552.65C1552.37,5552.18 1552.23,5551.48 1552.06,5550.56C1551.99,5550.14 1551.94,5549.87 1551.91,5549.73C1551.15,5550.9 1550.35,5551.78 1549.49,5552.37C1548.64,5552.96 1547.72,5553.25 1546.75,5553.25C1545.04,5553.25 1543.69,5552.5 1542.7,5551.01C1541.71,5549.52 1541.22,5547.64 1541.22,5545.36C1541.22,5543.85 1541.44,5542.51 1541.89,5541.33C1542.34,5540.15 1542.97,5539.24 1543.78,5538.61C1544.59,5537.99 1545.76,5537.44 1547.28,5536.97C1549.34,5536.35 1550.77,5535.77 1551.56,5535.23L1551.56,5534.53C1551.56,5533.18 1551.35,5532.21 1550.93,5531.63C1550.52,5531.05 1549.73,5530.76 1548.57,5530.76C1547.79,5530.76 1547.17,5531.01 1546.74,5531.5C1546.3,5532 1545.94,5532.86 1545.67,5534.1ZM1551.56,5539.83C1551,5540.13 1550.1,5540.49 1548.88,5540.91C1547.66,5541.33 1546.86,5541.74 1546.49,5542.14C1545.91,5542.8 1545.62,5543.63 1545.62,5544.63C1545.62,5545.62 1545.85,5546.47 1546.31,5547.19C1546.77,5547.91 1547.36,5548.28 1548.07,5548.28C1548.86,5548.28 1549.62,5547.86 1550.34,5547.02C1550.87,5546.38 1551.22,5545.6 1551.39,5544.68C1551.5,5544.08 1551.56,5542.93 1551.56,5541.24L1551.56,5539.83Z" style="fill:rgb(55,32,132);fill-rule:nonzero;"/>
                        <rect x="1560.23" y="5515.81" width="4.402" height="36.833" style="fill:rgb(55,32,132);fill-rule:nonzero;"/>
                        <path d="M1576.77,5525.96L1576.77,5531.59L1573.76,5531.59L1573.76,5542.35C1573.76,5544.52 1573.79,5545.79 1573.85,5546.15C1573.9,5546.51 1574.04,5546.81 1574.24,5547.04C1574.44,5547.28 1574.69,5547.4 1574.98,5547.4C1575.39,5547.4 1575.98,5547.17 1576.75,5546.72L1577.13,5552.19C1576.11,5552.9 1574.95,5553.25 1573.65,5553.25C1572.86,5553.25 1572.14,5553.04 1571.51,5552.61C1570.87,5552.18 1570.4,5551.63 1570.1,5550.95C1569.81,5550.27 1569.6,5549.36 1569.49,5548.2C1569.39,5547.38 1569.34,5545.72 1569.34,5543.23L1569.34,5531.59L1567.32,5531.59L1567.32,5525.96L1569.34,5525.96L1569.34,5520.66L1573.76,5516.54L1573.76,5525.96L1576.77,5525.96Z" style="fill:rgb(55,32,132);fill-rule:nonzero;"/>
                        <path d="M1590.78,5552.65L1590.78,5548.65C1590.17,5550.07 1589.37,5551.2 1588.39,5552.02C1587.4,5552.84 1586.36,5553.25 1585.26,5553.25C1584.14,5553.25 1583.14,5552.86 1582.25,5552.07C1581.37,5551.28 1580.72,5550.18 1580.33,5548.75C1579.93,5547.33 1579.73,5545.36 1579.73,5542.85L1579.73,5525.96L1584.13,5525.96L1584.13,5538.23C1584.13,5541.98 1584.21,5544.28 1584.38,5545.12C1584.54,5545.97 1584.83,5546.64 1585.26,5547.13C1585.69,5547.63 1586.23,5547.87 1586.89,5547.87C1587.64,5547.87 1588.32,5547.54 1588.91,5546.88C1589.51,5546.22 1589.91,5545.4 1590.13,5544.42C1590.35,5543.44 1590.46,5541.04 1590.46,5537.22L1590.46,5525.96L1594.87,5525.96L1594.87,5552.65L1590.78,5552.65Z" style="fill:rgb(55,32,132);fill-rule:nonzero;"/>
                        <path d="M1614.56,5552.65L1610.16,5552.65L1610.16,5539.03C1610.16,5536.15 1610.06,5534.28 1609.88,5533.44C1609.69,5532.59 1609.38,5531.94 1608.96,5531.47C1608.54,5531 1608.03,5530.76 1607.43,5530.76C1606.67,5530.76 1605.98,5531.1 1605.38,5531.77C1604.77,5532.44 1604.36,5533.32 1604.13,5534.43C1603.91,5535.54 1603.8,5537.58 1603.8,5540.56L1603.8,5552.65L1599.39,5552.65L1599.39,5525.96L1603.48,5525.96L1603.48,5529.88C1604.93,5526.87 1606.76,5525.36 1608.97,5525.36C1609.94,5525.36 1610.83,5525.64 1611.63,5526.2C1612.43,5526.76 1613.04,5527.48 1613.45,5528.35C1613.87,5529.22 1614.15,5530.21 1614.32,5531.32C1614.48,5532.42 1614.56,5534 1614.56,5536.06L1614.56,5552.65Z" style="fill:rgb(55,32,132);fill-rule:nonzero;"/>
                        <path d="M1634.16,5552.65L1629.76,5552.65L1629.76,5539.03C1629.76,5536.15 1629.66,5534.28 1629.48,5533.44C1629.29,5532.59 1628.98,5531.94 1628.56,5531.47C1628.13,5531 1627.63,5530.76 1627.03,5530.76C1626.27,5530.76 1625.58,5531.1 1624.98,5531.77C1624.37,5532.44 1623.96,5533.32 1623.73,5534.43C1623.51,5535.54 1623.4,5537.58 1623.4,5540.56L1623.4,5552.65L1618.99,5552.65L1618.99,5525.96L1623.08,5525.96L1623.08,5529.88C1624.53,5526.87 1626.36,5525.36 1628.57,5525.36C1629.54,5525.36 1630.42,5525.64 1631.23,5526.2C1632.03,5526.76 1632.64,5527.48 1633.05,5528.35C1633.47,5529.22 1633.75,5530.21 1633.92,5531.32C1634.08,5532.42 1634.16,5534 1634.16,5536.06L1634.16,5552.65Z" style="fill:rgb(55,32,132);fill-rule:nonzero;"/>
                        <path d="M1648.26,5544.15L1652.65,5545.34C1652.08,5547.91 1651.19,5549.88 1649.98,5551.23C1648.76,5552.57 1647.24,5553.25 1645.41,5553.25C1642.52,5553.25 1640.37,5551.73 1638.99,5548.7C1637.89,5546.27 1637.34,5543.21 1637.34,5539.51C1637.34,5535.08 1638.06,5531.62 1639.5,5529.12C1640.94,5526.61 1642.77,5525.36 1644.97,5525.36C1647.44,5525.36 1649.4,5526.67 1650.83,5529.29C1652.26,5531.91 1652.94,5535.93 1652.88,5541.34L1641.85,5541.34C1641.88,5543.43 1642.24,5545.06 1642.92,5546.23C1643.6,5547.39 1644.44,5547.97 1645.45,5547.97C1646.14,5547.97 1646.72,5547.67 1647.19,5547.07C1647.66,5546.47 1648.02,5545.49 1648.26,5544.15ZM1648.51,5537.02C1648.48,5534.98 1648.15,5533.42 1647.52,5532.36C1646.9,5531.29 1646.13,5530.76 1645.24,5530.76C1644.28,5530.76 1643.48,5531.32 1642.85,5532.45C1642.23,5533.57 1641.92,5535.09 1641.93,5537.02L1648.51,5537.02Z" style="fill:rgb(55,32,132);fill-rule:nonzero;"/>
                        <rect x="1656.47" y="5515.81" width="4.402" height="36.833" style="fill:rgb(55,32,132);fill-rule:nonzero;"/>
                        <path d="M1663.83,5545.03L1668.25,5543.95C1668.44,5545.33 1668.82,5546.37 1669.39,5547.08C1669.97,5547.79 1670.77,5548.15 1671.81,5548.15C1672.95,5548.15 1673.8,5547.81 1674.38,5547.14C1674.76,5546.68 1674.96,5546.05 1674.96,5545.26C1674.96,5544.72 1674.85,5544.28 1674.64,5543.93C1674.42,5543.59 1673.93,5543.28 1673.17,5543C1669.62,5541.74 1667.37,5540.6 1666.42,5539.56C1665.1,5538.12 1664.44,5536.11 1664.44,5533.55C1664.44,5531.24 1665.01,5529.3 1666.15,5527.72C1667.29,5526.15 1669.06,5525.36 1671.45,5525.36C1673.72,5525.36 1675.42,5525.95 1676.52,5527.15C1677.63,5528.33 1678.39,5530.09 1678.81,5532.42L1674.66,5533.65C1674.48,5532.61 1674.14,5531.82 1673.65,5531.27C1673.15,5530.71 1672.44,5530.44 1671.53,5530.44C1670.37,5530.44 1669.54,5530.7 1669.03,5531.22C1668.7,5531.58 1668.53,5532.06 1668.53,5532.65C1668.53,5533.15 1668.68,5533.58 1668.97,5533.93C1669.37,5534.4 1670.74,5535.06 1673.08,5535.91C1675.43,5536.77 1677.07,5537.81 1678,5539.05C1678.91,5540.31 1679.38,5542.06 1679.38,5544.31C1679.38,5546.75 1678.74,5548.85 1677.46,5550.61C1676.19,5552.37 1674.3,5553.25 1671.81,5553.25C1669.54,5553.25 1667.75,5552.51 1666.43,5551.04C1665.1,5549.56 1664.24,5547.56 1663.83,5545.03Z" style="fill:rgb(55,32,132);fill-rule:nonzero;"/>
                        <path d="M1681.14,5525.96L1685.83,5525.96L1689.81,5544.91L1693.69,5525.96L1698.25,5525.96L1692.38,5551.64L1691.33,5556.29C1690.94,5557.85 1690.57,5559.04 1690.22,5559.86C1689.87,5560.68 1689.47,5561.34 1689.02,5561.86C1688.56,5562.37 1688.01,5562.76 1687.34,5563.05C1686.68,5563.33 1685.93,5563.48 1685.09,5563.48C1684.25,5563.48 1683.42,5563.33 1682.6,5563.05L1682.21,5557.52C1682.9,5557.74 1683.52,5557.85 1684.08,5557.85C1685.1,5557.85 1685.86,5557.37 1686.35,5556.4C1686.84,5555.44 1687.21,5554.21 1687.48,5552.72L1681.14,5525.96Z" style="fill:rgb(55,32,132);fill-rule:nonzero;"/>
                        <path d="M1716.21,5552.65L1711.81,5552.65L1711.81,5539.03C1711.81,5536.15 1711.71,5534.28 1711.52,5533.44C1711.34,5532.59 1711.03,5531.94 1710.61,5531.47C1710.18,5531 1709.67,5530.76 1709.08,5530.76C1708.32,5530.76 1707.63,5531.1 1707.03,5531.77C1706.42,5532.44 1706.01,5533.32 1705.78,5534.43C1705.56,5535.54 1705.44,5537.58 1705.44,5540.56L1705.44,5552.65L1701.04,5552.65L1701.04,5525.96L1705.13,5525.96L1705.13,5529.88C1706.58,5526.87 1708.41,5525.36 1710.62,5525.36C1711.59,5525.36 1712.47,5525.64 1713.28,5526.2C1714.08,5526.76 1714.69,5527.48 1715.1,5528.35C1715.52,5529.22 1715.8,5530.21 1715.97,5531.32C1716.13,5532.42 1716.21,5534 1716.21,5536.06L1716.21,5552.65Z" style="fill:rgb(55,32,132);fill-rule:nonzero;"/>
                        <path d="M1735.93,5552.65L1731.84,5552.65L1731.84,5548.73C1731.16,5550.25 1730.36,5551.39 1729.44,5552.13C1728.52,5552.88 1727.58,5553.25 1726.64,5553.25C1724.73,5553.25 1723.09,5552.01 1721.73,5549.54C1720.37,5547.07 1719.69,5543.63 1719.69,5539.2C1719.69,5534.68 1720.35,5531.24 1721.68,5528.89C1723,5526.54 1724.68,5525.36 1726.7,5525.36C1728.57,5525.36 1730.17,5526.6 1731.53,5529.08L1731.53,5515.81L1735.93,5515.81L1735.93,5552.65ZM1724.18,5538.73C1724.18,5541.57 1724.43,5543.64 1724.92,5544.91C1725.63,5546.75 1726.62,5547.67 1727.9,5547.67C1728.91,5547.67 1729.77,5546.98 1730.48,5545.6C1731.19,5544.22 1731.55,5542.15 1731.55,5539.41C1731.55,5536.34 1731.2,5534.13 1730.51,5532.78C1729.82,5531.44 1728.94,5530.76 1727.87,5530.76C1726.82,5530.76 1725.95,5531.43 1725.24,5532.76C1724.54,5534.09 1724.18,5536.08 1724.18,5538.73Z" style="fill:rgb(55,32,132);fill-rule:nonzero;"/>
                        <path d="M1744.49,5552.65L1740.09,5552.65L1740.09,5525.96L1744.17,5525.96L1744.17,5529.76C1744.87,5527.97 1745.5,5526.78 1746.06,5526.22C1746.62,5525.65 1747.26,5525.36 1747.97,5525.36C1748.97,5525.36 1749.93,5525.81 1750.86,5526.69L1749.5,5532.85C1748.76,5532.08 1748.07,5531.69 1747.43,5531.69C1746.82,5531.69 1746.3,5531.96 1745.87,5532.51C1745.44,5533.05 1745.1,5534.04 1744.86,5535.46C1744.61,5536.89 1744.49,5539.87 1744.49,5544.4L1744.49,5552.65Z" style="fill:rgb(55,32,132);fill-rule:nonzero;"/>
                        <path d="M1751.74,5538.93C1751.74,5536.58 1752.1,5534.31 1752.82,5532.12C1753.54,5529.93 1754.56,5528.25 1755.89,5527.09C1757.21,5525.94 1758.68,5525.36 1760.31,5525.36C1762.83,5525.36 1764.89,5526.67 1766.5,5529.29C1768.11,5531.91 1768.91,5535.23 1768.91,5539.23C1768.91,5543.27 1768.1,5546.61 1766.48,5549.27C1764.85,5551.92 1762.81,5553.25 1760.34,5553.25C1758.82,5553.25 1757.36,5552.7 1755.98,5551.59C1754.6,5550.49 1753.54,5548.86 1752.82,5546.73C1752.1,5544.59 1751.74,5541.99 1751.74,5538.93ZM1756.25,5539.31C1756.25,5541.95 1756.65,5543.98 1757.43,5545.39C1758.21,5546.79 1759.18,5547.5 1760.33,5547.5C1761.48,5547.5 1762.44,5546.79 1763.22,5545.39C1764,5543.98 1764.38,5541.94 1764.38,5539.26C1764.38,5536.64 1764,5534.63 1763.22,5533.23C1762.44,5531.82 1761.48,5531.11 1760.33,5531.11C1759.18,5531.11 1758.21,5531.82 1757.43,5533.23C1756.65,5534.63 1756.25,5536.66 1756.25,5539.31Z" style="fill:rgb(55,32,132);fill-rule:nonzero;"/>
                        <path d="M1772.03,5525.96L1776.09,5525.96L1776.09,5529.61C1777.54,5526.78 1779.27,5525.36 1781.28,5525.36C1782.34,5525.36 1783.26,5525.71 1784.05,5526.42C1784.83,5527.12 1785.47,5528.18 1785.98,5529.61C1786.71,5528.18 1787.49,5527.12 1788.34,5526.42C1789.19,5525.71 1790.09,5525.36 1791.05,5525.36C1792.27,5525.36 1793.31,5525.76 1794.15,5526.55C1795,5527.35 1795.63,5528.52 1796.05,5530.06C1796.35,5531.2 1796.5,5533.04 1796.5,5535.59L1796.5,5552.65L1792.1,5552.65L1792.1,5537.4C1792.1,5534.75 1791.95,5533.04 1791.65,5532.27C1791.24,5531.27 1790.61,5530.76 1789.77,5530.76C1789.15,5530.76 1788.57,5531.06 1788.03,5531.67C1787.48,5532.27 1787.09,5533.15 1786.85,5534.32C1786.61,5535.48 1786.49,5537.32 1786.49,5539.83L1786.49,5552.65L1782.09,5552.65L1782.09,5538.02C1782.09,5535.43 1782.01,5533.75 1781.85,5533C1781.7,5532.24 1781.45,5531.68 1781.13,5531.32C1780.8,5530.95 1780.35,5530.76 1779.79,5530.76C1779.11,5530.76 1778.5,5531.06 1777.95,5531.64C1777.41,5532.23 1777.02,5533.07 1776.79,5534.18C1776.55,5535.28 1776.43,5537.12 1776.43,5539.68L1776.43,5552.65L1772.03,5552.65L1772.03,5525.96Z" style="fill:rgb(55,32,132);fill-rule:nonzero;"/>
                        <path d="M1800.78,5545.59L1805.18,5545.59L1805.18,5550.64C1805.18,5552.68 1805.07,5554.29 1804.85,5555.47C1804.63,5556.65 1804.22,5557.71 1803.61,5558.65C1803,5559.59 1802.22,5560.33 1801.28,5560.86L1800.42,5557.95C1801.31,5557.48 1801.94,5556.83 1802.32,5556.01C1802.69,5555.19 1802.89,5554.07 1802.91,5552.65L1800.78,5552.65L1800.78,5545.59Z" style="fill:rgb(55,32,132);fill-rule:nonzero;"/>
                        <path d="M1818.53,5552.65L1818.53,5515.81L1822.93,5515.81L1822.93,5529.08C1824.29,5526.6 1825.9,5525.36 1827.76,5525.36C1829.79,5525.36 1831.46,5526.54 1832.79,5528.89C1834.12,5531.24 1834.78,5534.62 1834.78,5539.03C1834.78,5543.59 1834.1,5547.09 1832.75,5549.56C1831.4,5552.02 1829.75,5553.25 1827.82,5553.25C1826.87,5553.25 1825.93,5552.87 1825.01,5552.11C1824.09,5551.34 1823.29,5550.22 1822.62,5548.73L1822.62,5552.65L1818.53,5552.65ZM1822.9,5538.73C1822.9,5541.49 1823.17,5543.53 1823.72,5544.86C1824.48,5546.73 1825.49,5547.67 1826.76,5547.67C1827.73,5547.67 1828.56,5547.01 1829.24,5545.67C1829.92,5544.34 1830.27,5542.24 1830.27,5539.38C1830.27,5536.33 1829.92,5534.13 1829.23,5532.78C1828.54,5531.44 1827.66,5530.76 1826.58,5530.76C1825.53,5530.76 1824.65,5531.42 1823.95,5532.73C1823.25,5534.05 1822.9,5536.05 1822.9,5538.73Z" style="fill:rgb(55,32,132);fill-rule:nonzero;"/>
                        <path d="M1853.58,5552.65L1849.49,5552.65L1849.49,5548.73C1848.81,5550.25 1848.01,5551.39 1847.09,5552.13C1846.16,5552.88 1845.23,5553.25 1844.29,5553.25C1842.38,5553.25 1840.74,5552.01 1839.38,5549.54C1838.01,5547.07 1837.33,5543.63 1837.33,5539.2C1837.33,5534.68 1838,5531.24 1839.32,5528.89C1840.65,5526.54 1842.33,5525.36 1844.35,5525.36C1846.21,5525.36 1847.82,5526.6 1849.18,5529.08L1849.18,5515.81L1853.58,5515.81L1853.58,5552.65ZM1841.83,5538.73C1841.83,5541.57 1842.07,5543.64 1842.57,5544.91C1843.28,5546.75 1844.27,5547.67 1845.54,5547.67C1846.56,5547.67 1847.42,5546.98 1848.13,5545.6C1848.84,5544.22 1849.19,5542.15 1849.19,5539.41C1849.19,5536.34 1848.85,5534.13 1848.16,5532.78C1847.47,5531.44 1846.59,5530.76 1845.51,5530.76C1844.47,5530.76 1843.59,5531.43 1842.89,5532.76C1842.18,5534.09 1841.83,5536.08 1841.83,5538.73Z" style="fill:rgb(55,32,132);fill-rule:nonzero;"/>
                        <path d="M1856.37,5545.03L1860.79,5543.95C1860.97,5545.33 1861.36,5546.37 1861.93,5547.08C1862.5,5547.79 1863.31,5548.15 1864.34,5548.15C1865.48,5548.15 1866.34,5547.81 1866.91,5547.14C1867.3,5546.68 1867.49,5546.05 1867.49,5545.26C1867.49,5544.72 1867.39,5544.28 1867.18,5543.93C1866.96,5543.59 1866.47,5543.28 1865.7,5543C1862.15,5541.74 1859.9,5540.6 1858.95,5539.56C1857.64,5538.12 1856.98,5536.11 1856.98,5533.55C1856.98,5531.24 1857.55,5529.3 1858.69,5527.72C1859.83,5526.15 1861.59,5525.36 1863.98,5525.36C1866.26,5525.36 1867.95,5525.95 1869.06,5527.15C1870.16,5528.33 1870.93,5530.09 1871.35,5532.42L1867.19,5533.65C1867.02,5532.61 1866.68,5531.82 1866.18,5531.27C1865.69,5530.71 1864.98,5530.44 1864.06,5530.44C1862.9,5530.44 1862.07,5530.7 1861.57,5531.22C1861.24,5531.58 1861.07,5532.06 1861.07,5532.65C1861.07,5533.15 1861.21,5533.58 1861.51,5533.93C1861.9,5534.4 1863.27,5535.06 1865.62,5535.91C1867.96,5536.77 1869.6,5537.81 1870.53,5539.05C1871.45,5540.31 1871.91,5542.06 1871.91,5544.31C1871.91,5546.75 1871.27,5548.85 1870,5550.61C1868.72,5552.37 1866.84,5553.25 1864.34,5553.25C1862.08,5553.25 1860.28,5552.51 1858.96,5551.04C1857.64,5549.56 1856.78,5547.56 1856.37,5545.03Z" style="fill:rgb(55,32,132);fill-rule:nonzero;"/>
                        <rect x="1875.76" y="5545.59" width="4.402" height="7.06" style="fill:rgb(55,32,132);fill-rule:nonzero;"/>
                        <path d="M1884.57,5545.59L1888.97,5545.59L1888.97,5550.64C1888.97,5552.68 1888.86,5554.29 1888.64,5555.47C1888.42,5556.65 1888.01,5557.71 1887.4,5558.65C1886.79,5559.59 1886.01,5560.33 1885.07,5560.86L1884.21,5557.95C1885.1,5557.48 1885.73,5556.83 1886.1,5556.01C1886.48,5555.19 1886.68,5554.07 1886.7,5552.65L1884.57,5552.65L1884.57,5545.59Z" style="fill:rgb(55,32,132);fill-rule:nonzero;"/>
                        <path d="M1901.14,5542.35L1901.14,5536.32C1901.91,5536.25 1902.48,5536.06 1902.87,5535.76C1903.26,5535.46 1903.59,5534.95 1903.87,5534.24C1904.15,5533.53 1904.35,5532.64 1904.45,5531.57C1904.53,5530.76 1904.58,5529.36 1904.58,5527.37C1904.58,5524.12 1904.67,5521.86 1904.86,5520.57C1905.05,5519.29 1905.38,5518.26 1905.88,5517.48C1906.37,5516.7 1907.08,5516.09 1908.02,5515.64C1908.66,5515.34 1909.66,5515.19 1911.03,5515.19L1911.86,5515.19L1911.86,5521.19C1910.7,5521.19 1909.96,5521.3 1909.63,5521.5C1909.3,5521.71 1909.06,5522.03 1908.9,5522.46C1908.74,5522.89 1908.66,5523.62 1908.66,5524.66C1908.66,5525.71 1908.62,5527.71 1908.52,5530.66C1908.47,5532.32 1908.34,5533.66 1908.12,5534.69C1907.9,5535.73 1907.62,5536.57 1907.28,5537.24C1906.94,5537.91 1906.42,5538.61 1905.72,5539.33C1906.34,5539.9 1906.84,5540.57 1907.23,5541.33C1907.62,5542.09 1907.92,5543.02 1908.13,5544.1C1908.34,5545.19 1908.48,5546.65 1908.54,5548.48C1908.61,5551.26 1908.65,5553.03 1908.65,5553.8C1908.65,5554.91 1908.73,5555.68 1908.9,5556.11C1909.07,5556.55 1909.32,5556.88 1909.66,5557.11C1910,5557.33 1910.73,5557.44 1911.86,5557.44L1911.86,5563.48L1911.03,5563.48C1909.62,5563.48 1908.54,5563.3 1907.79,5562.94C1907.04,5562.57 1906.4,5561.98 1905.88,5561.14C1905.37,5560.3 1905.02,5559.27 1904.84,5558.04C1904.66,5556.81 1904.58,5554.87 1904.58,5552.22C1904.58,5549.14 1904.49,5547.14 1904.33,5546.21C1904.1,5544.87 1903.75,5543.91 1903.28,5543.34C1902.82,5542.76 1902.11,5542.43 1901.14,5542.35Z" style="fill:rgb(55,32,132);fill-rule:nonzero;"/>
                        <path d="M1925.71,5539.1L1925.71,5532.9L1935.71,5532.9L1935.71,5547.57C1934.74,5549.08 1933.33,5550.41 1931.48,5551.55C1929.64,5552.7 1927.77,5553.27 1925.88,5553.27C1923.48,5553.27 1921.39,5552.47 1919.6,5550.85C1917.82,5549.23 1916.47,5546.92 1915.57,5543.91C1914.68,5540.91 1914.23,5537.64 1914.23,5534.1C1914.23,5530.27 1914.73,5526.86 1915.73,5523.88C1916.73,5520.9 1918.2,5518.61 1920.13,5517.02C1921.61,5515.8 1923.44,5515.19 1925.63,5515.19C1928.48,5515.19 1930.71,5516.14 1932.32,5518.06C1933.92,5519.98 1934.95,5522.63 1935.41,5526.01L1930.8,5527.4C1930.48,5525.59 1929.87,5524.16 1928.98,5523.11C1928.09,5522.07 1926.97,5521.54 1925.63,5521.54C1923.61,5521.54 1922,5522.57 1920.8,5524.63C1919.6,5526.69 1919.01,5529.75 1919.01,5533.8C1919.01,5538.17 1919.61,5541.45 1920.82,5543.64C1922.03,5545.82 1923.62,5546.92 1925.59,5546.92C1926.56,5546.92 1927.53,5546.61 1928.51,5546C1929.48,5545.39 1930.32,5544.65 1931.02,5543.78L1931.02,5539.1L1925.71,5539.1Z" style="fill:rgb(55,32,132);fill-rule:nonzero;"/>
                        <path d="M1939.08,5543.17L1943.46,5542.45C1943.59,5544.04 1943.96,5545.3 1944.57,5546.23C1945.19,5547.16 1945.9,5547.62 1946.7,5547.62C1947.62,5547.62 1948.4,5547.02 1949.04,5545.82C1949.68,5544.63 1950,5542.82 1950,5540.41C1950,5538.15 1949.68,5536.45 1949.05,5535.32C1948.41,5534.19 1947.59,5533.63 1946.58,5533.63C1945.32,5533.63 1944.18,5534.52 1943.18,5536.32L1939.61,5535.49L1941.86,5516.32L1953.51,5516.32L1953.51,5522.92L1945.2,5522.92L1944.51,5529.18C1945.49,5528.39 1946.5,5528 1947.52,5528C1949.47,5528 1951.13,5529.14 1952.49,5531.42C1953.84,5533.69 1954.52,5536.65 1954.52,5540.28C1954.52,5543.32 1953.98,5546.02 1952.88,5548.4C1951.38,5551.65 1949.31,5553.27 1946.66,5553.27C1944.54,5553.27 1942.81,5552.36 1941.47,5550.54C1940.13,5548.71 1939.34,5546.26 1939.08,5543.17Z" style="fill:rgb(55,32,132);fill-rule:nonzero;"/>
                        <path d="M1971.77,5524.83L1967.51,5525.59C1967.41,5524.18 1967.13,5523.14 1966.7,5522.47C1966.26,5521.8 1965.69,5521.47 1964.99,5521.47C1964.06,5521.47 1963.27,5522.14 1962.63,5523.48C1961.99,5524.82 1961.58,5527.61 1961.42,5531.84C1962.51,5529.77 1963.88,5528.73 1965.51,5528.73C1967.34,5528.73 1968.92,5529.85 1970.23,5532.09C1971.54,5534.34 1972.2,5537.24 1972.2,5540.79C1972.2,5544.56 1971.51,5547.58 1970.13,5549.86C1968.75,5552.14 1966.98,5553.27 1964.82,5553.27C1962.5,5553.27 1960.59,5551.83 1959.1,5548.94C1957.6,5546.05 1956.86,5541.32 1956.86,5534.73C1956.86,5527.98 1957.64,5523.12 1959.19,5520.14C1960.75,5517.15 1962.77,5515.66 1965.26,5515.66C1967,5515.66 1968.44,5516.45 1969.59,5518.01C1970.73,5519.58 1971.46,5521.85 1971.77,5524.83ZM1961.79,5540.23C1961.79,5542.53 1962.12,5544.3 1962.78,5545.55C1963.44,5546.8 1964.19,5547.42 1965.04,5547.42C1965.85,5547.42 1966.53,5546.91 1967.07,5545.89C1967.62,5544.87 1967.89,5543.19 1967.89,5540.86C1967.89,5538.47 1967.6,5536.71 1967.01,5535.6C1966.42,5534.48 1965.69,5533.93 1964.82,5533.93C1963.97,5533.93 1963.26,5534.46 1962.67,5535.52C1962.09,5536.59 1961.79,5538.16 1961.79,5540.23Z" style="fill:rgb(55,32,132);fill-rule:nonzero;"/>
                        <rect x="1975.64" y="5545.59" width="4.402" height="7.06" style="fill:rgb(55,32,132);fill-rule:nonzero;"/>
                        <path d="M1991.06,5515.66C1993.28,5515.66 1995.02,5516.94 1996.28,5519.48C1997.77,5522.5 1998.52,5527.5 1998.52,5534.48C1998.52,5541.45 1997.77,5546.46 1996.26,5549.51C1995.02,5552.02 1993.28,5553.27 1991.06,5553.27C1988.82,5553.27 1987.02,5551.9 1985.65,5549.14C1984.29,5546.39 1983.6,5541.47 1983.6,5534.41C1983.6,5527.47 1984.35,5522.48 1985.86,5519.43C1987.1,5516.92 1988.83,5515.66 1991.06,5515.66ZM1991.06,5521.52C1990.53,5521.52 1990.05,5521.79 1989.63,5522.33C1989.22,5522.88 1988.89,5523.85 1988.66,5525.26C1988.36,5527.09 1988.21,5530.16 1988.21,5534.48C1988.21,5538.8 1988.34,5541.77 1988.62,5543.39C1988.89,5545 1989.23,5546.08 1989.64,5546.62C1990.05,5547.15 1990.53,5547.42 1991.06,5547.42C1991.59,5547.42 1992.07,5547.15 1992.49,5546.6C1992.9,5546.06 1993.23,5545.08 1993.46,5543.68C1993.76,5541.87 1993.91,5538.8 1993.91,5534.48C1993.91,5530.16 1993.78,5527.19 1993.5,5525.57C1993.23,5523.96 1992.89,5522.88 1992.48,5522.33C1992.06,5521.79 1991.59,5521.52 1991.06,5521.52Z" style="fill:rgb(55,32,132);fill-rule:nonzero;"/>
                        <path d="M2002.45,5515.81L2011.63,5515.81C2013.45,5515.81 2014.8,5515.94 2015.7,5516.18C2016.59,5516.42 2017.39,5516.93 2018.09,5517.7C2018.8,5518.47 2019.38,5519.49 2019.86,5520.78C2020.33,5522.06 2020.56,5523.49 2020.56,5525.08C2020.56,5526.81 2020.27,5528.39 2019.69,5529.83C2019.11,5531.27 2018.33,5532.35 2017.33,5533.07C2018.73,5533.73 2019.81,5534.84 2020.56,5536.42C2021.31,5537.99 2021.69,5539.84 2021.69,5541.97C2021.69,5543.64 2021.45,5545.27 2020.96,5546.86C2020.47,5548.44 2019.81,5549.7 2018.97,5550.65C2018.13,5551.6 2017.09,5552.18 2015.86,5552.4C2015.09,5552.53 2013.22,5552.61 2010.27,5552.65L2002.45,5552.65L2002.45,5515.81ZM2007.09,5521.94L2007.09,5530.46L2010.13,5530.46C2011.93,5530.46 2013.06,5530.42 2013.5,5530.34C2014.29,5530.19 2014.91,5529.74 2015.37,5529.02C2015.82,5528.29 2016.05,5527.33 2016.05,5526.14C2016.05,5525 2015.85,5524.07 2015.46,5523.36C2015.07,5522.65 2014.49,5522.22 2013.71,5522.07C2013.25,5521.99 2011.93,5521.94 2009.75,5521.94L2007.09,5521.94ZM2007.09,5536.59L2007.09,5546.44L2011.38,5546.44C2013.05,5546.44 2014.11,5546.36 2014.56,5546.21C2015.25,5546.01 2015.81,5545.52 2016.24,5544.74C2016.68,5543.97 2016.89,5542.92 2016.89,5541.62C2016.89,5540.51 2016.73,5539.57 2016.39,5538.8C2016.06,5538.03 2015.58,5537.47 2014.94,5537.12C2014.31,5536.77 2012.94,5536.59 2010.83,5536.59L2007.09,5536.59Z" style="fill:rgb(55,32,132);fill-rule:nonzero;"/>
                        <path d="M2036.29,5539.1L2036.29,5532.9L2046.29,5532.9L2046.29,5547.57C2045.32,5549.08 2043.91,5550.41 2042.06,5551.55C2040.22,5552.7 2038.35,5553.27 2036.46,5553.27C2034.06,5553.27 2031.97,5552.47 2030.18,5550.85C2028.39,5549.23 2027.05,5546.92 2026.15,5543.91C2025.26,5540.91 2024.81,5537.64 2024.81,5534.1C2024.81,5530.27 2025.31,5526.86 2026.31,5523.88C2027.31,5520.9 2028.78,5518.61 2030.71,5517.02C2032.19,5515.8 2034.02,5515.19 2036.21,5515.19C2039.06,5515.19 2041.29,5516.14 2042.89,5518.06C2044.5,5519.98 2045.53,5522.63 2045.99,5526.01L2041.38,5527.4C2041.06,5525.59 2040.45,5524.16 2039.56,5523.11C2038.66,5522.07 2037.55,5521.54 2036.21,5521.54C2034.19,5521.54 2032.58,5522.57 2031.38,5524.63C2030.18,5526.69 2029.59,5529.75 2029.59,5533.8C2029.59,5538.17 2030.19,5541.45 2031.4,5543.64C2032.61,5545.82 2034.2,5546.92 2036.16,5546.92C2037.14,5546.92 2038.11,5546.61 2039.09,5546C2040.06,5545.39 2040.9,5544.65 2041.6,5543.78L2041.6,5539.1L2036.29,5539.1Z" style="fill:rgb(55,32,132);fill-rule:nonzero;"/>
                        <path d="M2059.65,5542.35C2058.89,5542.41 2058.31,5542.6 2057.93,5542.9C2057.54,5543.2 2057.21,5543.71 2056.93,5544.42C2056.66,5545.13 2056.46,5546.02 2056.35,5547.09C2056.26,5547.9 2056.22,5549.29 2056.22,5551.26C2056.22,5554.51 2056.13,5556.78 2055.95,5558.07C2055.76,5559.36 2055.43,5560.4 2054.93,5561.18C2054.44,5561.95 2053.72,5562.57 2052.77,5563.02C2052.14,5563.32 2051.13,5563.48 2049.76,5563.48L2048.93,5563.48L2048.93,5557.44C2050.05,5557.44 2050.78,5557.33 2051.13,5557.11C2051.47,5556.88 2051.72,5556.55 2051.89,5556.13C2052.05,5555.7 2052.13,5554.98 2052.14,5553.95C2052.14,5552.93 2052.19,5550.98 2052.27,5548.1C2052.32,5546.36 2052.46,5544.96 2052.69,5543.91C2052.92,5542.87 2053.23,5541.98 2053.61,5541.25C2053.99,5540.52 2054.48,5539.88 2055.07,5539.33C2054.3,5538.53 2053.74,5537.74 2053.38,5536.97C2052.89,5535.86 2052.56,5534.46 2052.38,5532.75C2052.27,5531.57 2052.18,5528.99 2052.13,5525.01C2052.12,5523.75 2052.05,5522.91 2051.92,5522.5C2051.79,5522.08 2051.55,5521.76 2051.21,5521.53C2050.87,5521.3 2050.11,5521.19 2048.93,5521.19L2048.93,5515.19L2049.76,5515.19C2051.17,5515.19 2052.26,5515.36 2053.01,5515.71C2053.76,5516.07 2054.39,5516.66 2054.9,5517.51C2055.41,5518.36 2055.76,5519.39 2055.95,5520.62C2056.13,5521.86 2056.22,5523.8 2056.22,5526.44C2056.22,5529.51 2056.3,5531.51 2056.45,5532.45C2056.68,5533.79 2057.03,5534.74 2057.5,5535.32C2057.97,5535.9 2058.69,5536.23 2059.65,5536.32L2059.65,5542.35Z" style="fill:rgb(55,32,132);fill-rule:nonzero;"/>
                        <path d="M2063.74,5533.02L2063.74,5525.96L2068.14,5525.96L2068.14,5533.02L2063.74,5533.02ZM2063.74,5545.59L2068.14,5545.59L2068.14,5550.64C2068.14,5552.68 2068.03,5554.29 2067.81,5555.47C2067.59,5556.65 2067.18,5557.71 2066.57,5558.65C2065.96,5559.59 2065.18,5560.33 2064.24,5560.86L2063.38,5557.95C2064.27,5557.48 2064.9,5556.82 2065.28,5555.99C2065.65,5555.15 2065.85,5554.04 2065.87,5552.65L2063.74,5552.65L2063.74,5545.59Z" style="fill:rgb(55,32,132);fill-rule:nonzero;"/>
                    </g>
                </g>
                <g transform="matrix(1.08168,0,0,1,-83.2463,227.96)">
                    <rect x="353.395" y="5159.95" width="1721.82" height="358.961" style="fill:rgb(240,240,240);fill-rule:nonzero;"/>
                    <path d="M353.395,5158.06C352.429,5158.06 351.645,5158.91 351.645,5159.95L352.191,5518.91C352.191,5519.63 352.73,5520.22 353.395,5520.22C353.395,5520.22 388.94,5520.11 449.816,5520.06C545.284,5520 703.048,5520.14 883.715,5520.14C1020.89,5520.13 1171.27,5520.26 1317.61,5520.04C1400.29,5519.91 1481.68,5519.36 1558.67,5519.36C1568.03,5519.36 1577.33,5519.4 1586.56,5519.44C1679.27,5519.81 1764.84,5520.45 1837.6,5520.7C1848.21,5520.74 1858.55,5520.75 1868.6,5520.76C1994.75,5520.87 2075.22,5520.71 2075.22,5520.71C2076.13,5520.71 2076.88,5519.91 2076.88,5518.91L2076.73,5159.95C2076.73,5159.05 2076.05,5158.31 2075.22,5158.31C2075.22,5158.31 1931.96,5158.44 1728.1,5158.56C1576.69,5158.64 1391.84,5158.81 1207.42,5158.79C1079.48,5158.77 951.737,5158.6 835.505,5158.53C826.247,5158.52 817.062,5158.5 807.956,5158.52C769.692,5158.59 732.82,5158.85 697.759,5159.01C678.843,5159.1 660.455,5159.23 642.661,5159.27C638.029,5159.27 633.437,5159.27 628.886,5159.26C463.883,5158.85 353.395,5158.06 353.395,5158.06ZM355.142,5161.83C369.827,5161.73 475.935,5161.02 628.886,5160.65C633.437,5160.64 638.029,5160.63 642.661,5160.64C660.455,5160.67 678.843,5160.8 697.759,5160.89C732.82,5161.05 769.692,5161.31 807.956,5161.39C817.062,5161.41 826.247,5161.38 835.505,5161.38C951.737,5161.31 1079.48,5161.13 1207.42,5161.11C1391.84,5161.09 1576.69,5161.26 1728.1,5161.35C1919.77,5161.46 2057.87,5161.58 2073.7,5161.59C2073.7,5161.59 2073.56,5489.82 2073.55,5517.11C2061.46,5517.09 1984.21,5516.97 1868.6,5517.07C1858.55,5517.07 1848.21,5517.09 1837.6,5517.12C1764.84,5517.38 1679.27,5518.02 1586.56,5518.39C1577.33,5518.42 1568.03,5518.47 1558.67,5518.47C1481.68,5518.47 1400.29,5517.92 1317.61,5517.79C1171.27,5517.57 1020.89,5517.69 883.715,5517.69C703.048,5517.68 545.284,5517.83 449.816,5517.76C395.448,5517.73 361.284,5517.63 354.601,5517.61C354.601,5517.61 355.142,5161.83 355.142,5161.83L355.142,5161.83Z" style="fill:rgb(49,49,49);"/>
                    <g transform="matrix(0.92449,0,0,1,26.6848,0)">
                        <text x="365.206px" y="5213.43px" style="font-family:'ArialMT', 'Arial', sans-serif;font-size:33.333px;fill:rgb(20,16,21);">berichten</text>
                        <text x="510.998px" y="5213.43px" style="font-family:'ArialMT', 'Arial', sans-serif;font-size:33.333px;fill:rgb(20,16,21);">wir</text>
                        <text x="562.243px" y="5213.43px" style="font-family:'ArialMT', 'Arial', sans-serif;font-size:33.333px;fill:rgb(20,16,21);">von</text>
                        <text x="624.653px" y="5213.43px" style="font-family:'ArialMT', 'Arial', sans-serif;font-size:33.333px;fill:rgb(20,16,21);">unserem</text>
                        <text x="763.007px" y="5213.43px" style="font-family:'ArialMT', 'Arial', sans-serif;font-size:33.333px;fill:rgb(20,16,21);">gemeinsamen</text>
                        <text x="981.049px" y="5213.43px" style="font-family:'ArialMT', 'Arial', sans-serif;font-size:33.333px;fill:rgb(20,16,21);">Patienten</text>
                        <text x="1130.57px" y="5213.43px" style="font-family:'ArialMT', 'Arial', sans-serif;font-size:33.333px;fill:rgb(20,16,21);">Herr</text>
                        <text x="1204.05px" y="5213.43px" style="font-family:'ArialMT', 'Arial', sans-serif;font-size:33.333px;fill:rgb(20,16,21);">Spahr</text>
                        <text x="1293px" y="5213.43px" style="font-family:'NotoSansArabicUI-Regular', 'Noto Sans Arabic UI', sans-serif;font-size:33.333px;fill:rgb(20,16,21);">,</text>
                        <text x="1310.6px" y="5213.43px" style="font-family:'ArialMT', 'Arial', sans-serif;font-size:33.333px;fill:rgb(20,16,21);">Jens</text>
                        <text x="1381.01px" y="5213.43px" style="font-family:'NotoSansArabicUI-Regular', 'Noto Sans Arabic UI', sans-serif;font-size:33.333px;fill:rgb(20,16,21);">, 29.04.1981,</text>
                        <text x="1586.61px" y="5213.43px" style="font-family:'ArialMT', 'Arial', sans-serif;font-size:33.333px;fill:rgb(20,16,21);">Strae</text>
                        <text x="1695.3px" y="5213.43px" style="font-family:'ArialMT', 'Arial', sans-serif;font-size:33.333px;fill:rgb(20,16,21);">am</text>
                        <text x="1750.28px" y="5213.43px" style="font-family:'ArialMT', 'Arial', sans-serif;font-size:33.333px;fill:rgb(20,16,21);">Geldsack</text>
                        <text x="1897.89px" y="5213.43px" style="font-family:'NotoSansArabicUI-Regular', 'Noto Sans Arabic UI', sans-serif;font-size:33.333px;fill:rgb(20,16,21);">1, 10630</text>
                        <text x="2038.56px" y="5213.43px" style="font-family:'ArialMT', 'Arial', sans-serif;font-size:33.333px;fill:rgb(20,16,21);">Berlin</text>
                        <text x="2123.78px" y="5213.43px" style="font-family:'NotoSansArabicUI-Regular', 'Noto Sans Arabic UI', sans-serif;font-size:33.333px;fill:rgb(20,16,21);">,</text>
                        <text x="2141.38px" y="5213.43px" style="font-family:'ArialMT', 'Arial', sans-serif;font-size:33.333px;fill:rgb(20,16,21);">der</text>
                        <text x="365.206px" y="5262.44px" style="font-family:'ArialMT', 'Arial', sans-serif;font-size:33.333px;fill:rgb(20,16,21);">sich</text>
                        <text x="433.15px" y="5262.44px" style="font-family:'ArialMT', 'Arial', sans-serif;font-size:33.333px;fill:rgb(20,16,21);">nie</text>
                        <text x="486.299px" y="5262.44px" style="font-family:'ArialMT', 'Arial', sans-serif;font-size:33.333px;fill:rgb(20,16,21);">in</text>
                        <text x="520.91px" y="5262.44px" style="font-family:'ArialMT', 'Arial', sans-serif;font-size:33.333px;fill:rgb(20,16,21);">unserer</text>
                        <text x="642.597px" y="5262.44px" style="font-family:'ArialMT', 'Arial', sans-serif;font-size:33.333px;fill:rgb(20,16,21);">Behandlung</text>
                        <text x="829.21px" y="5262.44px" style="font-family:'ArialMT', 'Arial', sans-serif;font-size:33.333px;fill:rgb(20,16,21);">befand</text>
                        <text x="931.163px" y="5262.44px" style="font-family:'NotoSansArabicUI-Regular', 'Noto Sans Arabic UI', sans-serif;font-size:33.333px;fill:rgb(20,16,21);">.</text>
                        <text x="365.206px" y="5355.2px" style="font-family:'Arial-BoldMT', 'Arial', sans-serif;font-weight:700;font-size:33.333px;fill:rgb(20,16,21);">Diagnosen</text>
                        <text x="535.6px" y="5355.2px" style="font-family:'NotoSansArabicUI-Bold', 'Noto Sans Arabic UI', sans-serif;font-weight:700;font-size:33.333px;fill:rgb(20,16,21);">:</text>
                        <rect x="365.206" y="5358.73" width="170.394" height="3.499" style="fill:rgb(20,16,21);"/>
                        <rect x="535.6" y="5358.73" width="9.5" height="3.499" style="fill:rgb(20,16,21);"/>
                        <text x="365.206px" y="5402.12px" style="font-family:'ArialMT', 'Arial', sans-serif;font-size:33.333px;fill:rgb(20,16,21);">Spastische</text>
                        <text x="536.926px" y="5402.12px" style="font-family:'ArialMT', 'Arial', sans-serif;font-size:33.333px;fill:rgb(20,16,21);">Paraparese</text>
                        <text x="717.923px" y="5402.12px" style="font-family:'ArialMT', 'Arial', sans-serif;font-size:33.333px;fill:rgb(20,16,21);">G</text>
                        <text x="743.851px" y="5402.12px" style="font-family:'NotoSansArabicUI-Regular', 'Noto Sans Arabic UI', sans-serif;font-size:33.333px;fill:rgb(20,16,21);">82.13</text>
                        <text x="829.051px" y="5402.12px" style="font-family:'ArialMT', 'Arial', sans-serif;font-size:33.333px;fill:rgb(20,16,21);">G</text>
                        <text x="365.206px" y="5440.72px" style="font-family:'ArialMT', 'Arial', sans-serif;font-size:33.333px;fill:rgb(20,16,21);">Achillessporn</text>
                        <text x="563.448px" y="5440.72px" style="font-family:'NotoSansArabicUI-Regular', 'Noto Sans Arabic UI', sans-serif;font-size:33.333px;fill:rgb(20,16,21);">,</text>
                        <text x="581.048px" y="5440.72px" style="font-family:'ArialMT', 'Arial', sans-serif;font-size:33.333px;fill:rgb(20,16,21);">bds</text>
                        <text x="634.792px" y="5440.72px" style="font-family:'NotoSansArabicUI-Regular', 'Noto Sans Arabic UI', sans-serif;font-size:33.333px;fill:rgb(20,16,21);">.</text>
                        <text x="652.392px" y="5440.72px" style="font-family:'ArialMT', 'Arial', sans-serif;font-size:33.333px;fill:rgb(20,16,21);">M</text>
                        <text x="680.159px" y="5440.72px" style="font-family:'NotoSansArabicUI-Regular', 'Noto Sans Arabic UI', sans-serif;font-size:33.333px;fill:rgb(20,16,21);">77.3</text>
                        <text x="746.292px" y="5440.72px" style="font-family:'ArialMT', 'Arial', sans-serif;font-size:33.333px;fill:rgb(20,16,21);">BG</text>
                        <text x="365.206px" y="5479.31px" style="font-family:'ArialMT', 'Arial', sans-serif;font-size:33.333px;fill:rgb(20,16,21);">Karpaltunnelsyndrom</text>
                        <text x="680.196px" y="5479.31px" style="font-family:'NotoSansArabicUI-Regular', 'Noto Sans Arabic UI', sans-serif;font-size:33.333px;fill:rgb(20,16,21);">,</text>
                        <text x="697.796px" y="5479.31px" style="font-family:'ArialMT', 'Arial', sans-serif;font-size:33.333px;fill:rgb(20,16,21);">bds</text>
                        <text x="751.54px" y="5479.31px" style="font-family:'NotoSansArabicUI-Regular', 'Noto Sans Arabic UI', sans-serif;font-size:33.333px;fill:rgb(20,16,21);">.,</text>
                        <text x="778.073px" y="5479.31px" style="font-family:'ArialMT', 'Arial', sans-serif;font-size:33.333px;fill:rgb(20,16,21);">G</text>
                        <text x="804.001px" y="5479.31px" style="font-family:'NotoSansArabicUI-Regular', 'Noto Sans Arabic UI', sans-serif;font-size:33.333px;fill:rgb(20,16,21);">56.0</text>
                        <text x="870.134px" y="5479.31px" style="font-family:'ArialMT', 'Arial', sans-serif;font-size:33.333px;fill:rgb(20,16,21);">BG</text>
                    </g>
                </g>
            </g>
        </g>
    </g>
</svg>
